<svg xmlns="http://www.w3.org/2000/svg" xmlns:xlink="http://www.w3.org/1999/xlink" width="1868" zoomAndPan="magnify" viewBox="0 0 1401 1847.249984" height="2463" preserveAspectRatio="xMidYMid meet" version="1.0">
  <defs>
    <clipPath id="6704525ce6">
      <path d="M 0.285156 0 L 1387.222656 0 L 1387.222656 1846.5 L 0.285156 1846.5 Z M 0.285156 0 " clip-rule="nonzero"/>
    </clipPath>
    <linearGradient x1="835.28101" gradientTransform="matrix(1, 0, 0, 1, 0, -0.000000000000625278)" y1="112.999995" x2="835.28101" gradientUnits="userSpaceOnUse" y2="2462.999897" id="51b9d3fb02">
      <stop stop-opacity="1" stop-color="rgb(21.998596%, 27.099609%, 90.99884%)" offset="0"/>
      <stop stop-opacity="1" stop-color="rgb(22.10083%, 27.288818%, 91.070557%)" offset="0.015625"/>
      <!-- Gradient stops truncated for brevity -->
      <stop stop-opacity="1" stop-color="rgb(57.287598%, 99.990845%, 99.595642%)" offset="0.984375"/>
      <stop stop-opacity="1" stop-color="rgb(57.293701%, 99.995422%, 99.597168%)" offset="1"/>
    </linearGradient>
  </defs>
  <g clip-path="url(#6704525ce6)">
    <path d="M 0.285156 0 L 1387.222656 0 L 1387.222656 1846.5 L 0.285156 1846.5 Z M 0.285156 0" fill="none" fill-rule="nonzero"/>
    <path stroke-linecap="butt" transform="matrix(0.749696, 0, 0, 0.749696, 0.2843, 0)" fill="none" stroke-linejoin="miter" 
          d="M -43.000687 131.501292 C 379.999131 244.500283 503.002183 599.498541 379.999131 781.999701 C 322.376784 867.497946 84.900186 884.900843 128.501216 670.501319 C 174.332319 531.83045 346.198954 296.099352 667.001041 462.500226 C 740.833092 498.999416 873.10032 613.999219 811.502401 781.999701 C 734.502397 992.001606 1026.000923 893.998286 1035.49957 886.500451 C 1044.998217 878.997405 1347.50121 812.501665 1270.501206 1109.502424 C 1208.898077 1347.098863 1543.002438 1375.000814 1657.001835 1265.498034 C 1731.250722 1194.182629 1773.502247 978.001132 1513.000677 1042.50127 C 1402.330757 1089.827772 1214.202313 1244.499927 1347.001007 1484.498383 C 1479.799701 1724.502049 1319.672206 1911.171567 1222.99755 1974.499355 C 1126.828307 2028.672385 903.800281 2101.597819 781.000437 1959.998678 C 658.200593 1818.399537 469.999204 1780.998939 364.498048 1795.499617 C 244.985997 1811.92816 46.499182 1990.500642 296.501699 2201.997945 C 331.833748 2231.499503 396.000418 2287.501401 396.000418 2346.499306 C 396.000418 2405.502422 314.498587 2475.999786 192.501152 2377.00127 C 127.000607 2323.849488 51.501213 2294.999236 -26.9994 2393.002556 " 
          stroke="url(#51b9d3fb02)" stroke-width="37" stroke-miterlimit="4"/>
  </g>
</svg>
