<svg xmlns="http://www.w3.org/2000/svg" xmlns:xlink="http://www.w3.org/1999/xlink" width="500" zoomAndPan="magnify" viewBox="0 0 375 374.999991" height="500" preserveAspectRatio="xMidYMid meet" version="1.0"><defs><clipPath id="50d1a473f8"><path d="M 89.140625 6.761719 L 309.636719 6.761719 L 309.636719 225.761719 L 89.140625 225.761719 Z M 89.140625 6.761719 " clip-rule="nonzero"/></clipPath><clipPath id="d9f51a10f2"><path d="M 141.636719 6.761719 L 256.882812 6.761719 C 285.875 6.761719 309.378906 30.265625 309.378906 59.261719 L 309.378906 173.089844 C 309.378906 202.082031 285.875 225.585938 256.882812 225.585938 L 141.636719 225.585938 C 112.644531 225.585938 89.140625 202.082031 89.140625 173.089844 L 89.140625 59.261719 C 89.140625 30.265625 112.644531 6.761719 141.636719 6.761719 Z M 141.636719 6.761719 " clip-rule="nonzero"/></clipPath><clipPath id="0f539b240b"><path d="M 89.140625 237.777344 L 169.390625 237.777344 L 169.390625 317.273438 L 89.140625 317.273438 Z M 89.140625 237.777344 " clip-rule="nonzero"/></clipPath><clipPath id="2dda58ad24"><path d="M 106.386719 237.777344 L 152.445312 237.777344 C 157.019531 237.777344 161.40625 239.59375 164.640625 242.828125 C 167.875 246.0625 169.695312 250.449219 169.695312 255.023438 L 169.695312 299.8125 C 169.695312 304.386719 167.875 308.773438 164.640625 312.007812 C 161.40625 315.242188 157.019531 317.0625 152.445312 317.0625 L 106.386719 317.0625 C 101.8125 317.0625 97.425781 315.242188 94.191406 312.007812 C 90.957031 308.773438 89.140625 304.386719 89.140625 299.8125 L 89.140625 255.023438 C 89.140625 250.449219 90.957031 246.0625 94.191406 242.828125 C 97.425781 239.59375 101.8125 237.777344 106.386719 237.777344 Z M 106.386719 237.777344 " clip-rule="nonzero"/></clipPath><clipPath id="d3c8cb21dd"><path d="M 128.222656 322.5 L 169.472656 322.5 L 169.472656 363.75 L 128.222656 363.75 Z M 128.222656 322.5 " clip-rule="nonzero"/></clipPath><clipPath id="e6d7059e74"><path d="M 138.71875 322.5 L 159.195312 322.5 C 161.980469 322.5 164.652344 323.605469 166.621094 325.574219 C 168.585938 327.542969 169.695312 330.210938 169.695312 332.996094 L 169.695312 353.390625 C 169.695312 356.175781 168.585938 358.847656 166.621094 360.816406 C 164.652344 362.785156 161.980469 363.890625 159.195312 363.890625 L 138.71875 363.890625 C 135.933594 363.890625 133.265625 362.785156 131.296875 360.816406 C 129.328125 358.847656 128.222656 356.175781 128.222656 353.390625 L 128.222656 332.996094 C 128.222656 330.210938 129.328125 327.542969 131.296875 325.574219 C 133.265625 323.605469 135.933594 322.5 138.71875 322.5 Z M 138.71875 322.5 " clip-rule="nonzero"/></clipPath><clipPath id="c97178c1b7"><path d="M 89.140625 322.5 L 114.148438 322.5 L 114.148438 348.390625 L 89.140625 348.390625 Z M 89.140625 322.5 " clip-rule="nonzero"/></clipPath><clipPath id="5089328490"><path d="M 98.140625 322.5 L 105.148438 322.5 C 107.535156 322.5 109.824219 323.445312 111.515625 325.136719 C 113.203125 326.824219 114.148438 329.113281 114.148438 331.5 L 114.148438 339.300781 C 114.148438 341.6875 113.203125 343.976562 111.515625 345.664062 C 109.824219 347.351562 107.535156 348.300781 105.148438 348.300781 L 98.140625 348.300781 C 93.167969 348.300781 89.140625 344.269531 89.140625 339.300781 L 89.140625 331.5 C 89.140625 326.527344 93.167969 322.5 98.140625 322.5 Z M 98.140625 322.5 " clip-rule="nonzero"/></clipPath><clipPath id="acbe730925"><path d="M 126.082031 42.347656 L 272.332031 42.347656 L 272.332031 190.097656 L 126.082031 190.097656 Z M 126.082031 42.347656 " clip-rule="nonzero"/></clipPath><clipPath id="5f51b42070"><path d="M 199.359375 42.347656 C 158.886719 42.347656 126.082031 75.402344 126.082031 116.175781 C 126.082031 156.949219 158.886719 190.003906 199.359375 190.003906 C 239.828125 190.003906 272.636719 156.949219 272.636719 116.175781 C 272.636719 75.402344 239.828125 42.347656 199.359375 42.347656 Z M 199.359375 42.347656 " clip-rule="nonzero"/></clipPath><clipPath id="4a5c8207a3"><path d="M 184.402344 237.773438 L 309.652344 237.773438 L 309.652344 363.773438 L 184.402344 363.773438 Z M 184.402344 237.773438 " clip-rule="nonzero"/></clipPath><clipPath id="3f648187fd"><path d="M 213.648438 237.773438 L 280.132812 237.773438 C 287.890625 237.773438 295.328125 240.855469 300.816406 246.339844 C 306.300781 251.824219 309.382812 259.265625 309.382812 267.023438 L 309.382812 334.644531 C 309.382812 342.398438 306.300781 349.839844 300.816406 355.324219 C 295.328125 360.808594 287.890625 363.890625 280.132812 363.890625 L 213.648438 363.890625 C 205.890625 363.890625 198.453125 360.808594 192.96875 355.324219 C 187.484375 349.839844 184.402344 342.398438 184.402344 334.644531 L 184.402344 267.023438 C 184.402344 259.265625 187.484375 251.824219 192.96875 246.339844 C 198.453125 240.855469 205.890625 237.773438 213.648438 237.773438 Z M 213.648438 237.773438 " clip-rule="nonzero"/></clipPath><clipPath id="a43e12e84c"><path d="M 220.285156 274.023438 L 273.53125 274.023438 L 273.53125 327.273438 L 220.285156 327.273438 Z M 220.285156 274.023438 " clip-rule="nonzero"/></clipPath><clipPath id="97bae04da2"><path d="M 246.890625 274.023438 C 232.195312 274.023438 220.285156 286.027344 220.285156 300.832031 C 220.285156 315.636719 232.195312 327.636719 246.890625 327.636719 C 261.585938 327.636719 273.496094 315.636719 273.496094 300.832031 C 273.496094 286.027344 261.585938 274.023438 246.890625 274.023438 Z M 246.890625 274.023438 " clip-rule="nonzero"/></clipPath><clipPath id="2c7b138619"><path d="M 116.355469 264.257812 L 142.484375 264.257812 L 142.484375 290.589844 L 116.355469 290.589844 Z M 116.355469 264.257812 " clip-rule="nonzero"/></clipPath><clipPath id="a16c146073"><path d="M 129.421875 264.257812 C 122.207031 264.257812 116.355469 270.152344 116.355469 277.421875 C 116.355469 284.691406 122.207031 290.582031 129.421875 290.582031 C 136.636719 290.582031 142.484375 284.691406 142.484375 277.421875 C 142.484375 270.152344 136.636719 264.257812 129.421875 264.257812 Z M 129.421875 264.257812 " clip-rule="nonzero"/></clipPath><clipPath id="7a5797e890"><path d="M 116.355469 264.261719 L 142.523438 264.261719 L 142.523438 290.507812 L 116.355469 290.507812 Z M 116.355469 264.261719 " clip-rule="nonzero"/></clipPath><clipPath id="fdd04ddab1"><path d="M 129.417969 264.261719 C 122.203125 264.261719 116.355469 270.152344 116.355469 277.417969 C 116.355469 284.6875 122.203125 290.578125 129.417969 290.578125 C 136.632812 290.578125 142.476562 284.6875 142.476562 277.417969 C 142.476562 270.152344 136.632812 264.261719 129.417969 264.261719 Z M 129.417969 264.261719 " clip-rule="nonzero"/></clipPath><clipPath id="785c4db452"><path d="M 170 83.816406 L 234 83.816406 L 234 148.316406 L 170 148.316406 Z M 170 83.816406 " clip-rule="nonzero"/></clipPath></defs><g clip-path="url(#50d1a473f8)"><g clip-path="url(#d9f51a10f2)"><path stroke-linecap="butt" transform="matrix(0.75, 0, 0, 0.75, 89.138809, 6.76234)" fill="none" stroke-linejoin="miter" d="M 69.997213 -0.000828808 L 223.658672 -0.000828808 C 262.314922 -0.000828808 293.653463 31.337713 293.653463 69.999171 L 293.653463 221.770005 C 293.653463 260.426255 262.314922 291.764797 223.658672 291.764797 L 69.997213 291.764797 C 31.340963 291.764797 0.00242127 260.426255 0.00242127 221.770005 L 0.00242127 69.999171 C 0.00242127 31.337713 31.340963 -0.000828808 69.997213 -0.000828808 Z M 69.997213 -0.000828808 " stroke="#000000" stroke-width="34" stroke-opacity="1" stroke-miterlimit="4"/></g></g><g clip-path="url(#0f539b240b)"><g clip-path="url(#2dda58ad24)"><path stroke-linecap="butt" transform="matrix(0.75, 0, 0, 0.75, 89.138684, 237.776776)" fill="none" stroke-linejoin="miter" d="M 22.997381 0.000757552 L 84.408843 0.000757552 C 90.507802 0.000757552 96.356761 2.422633 100.669261 6.735133 C 104.981761 11.047633 107.408845 16.896592 107.408845 22.995551 L 107.408845 82.714305 C 107.408845 88.813263 104.981761 94.662222 100.669261 98.974722 C 96.356761 103.287223 90.507802 105.714306 84.408843 105.714306 L 22.997381 105.714306 C 16.898422 105.714306 11.049463 103.287223 6.736963 98.974722 C 2.424463 94.662222 0.00258767 88.813263 0.00258767 82.714305 L 0.00258767 22.995551 C 0.00258767 16.896592 2.424463 11.047633 6.736963 6.735133 C 11.049463 2.422633 16.898422 0.000757552 22.997381 0.000757552 Z M 22.997381 0.000757552 " stroke="#000000" stroke-width="32" stroke-opacity="1" stroke-miterlimit="4"/></g></g><g clip-path="url(#d3c8cb21dd)"><g clip-path="url(#e6d7059e74)"><path stroke-linecap="butt" transform="matrix(0.75, 0, 0, 0.75, 128.221167, 322.499218)" fill="none" stroke-linejoin="miter" d="M 13.996778 0.00104264 L 41.298863 0.00104264 C 45.012405 0.00104264 48.574905 1.475001 51.199905 4.100001 C 53.819697 6.725001 55.298864 10.282293 55.298864 13.995835 L 55.298864 41.188545 C 55.298864 44.902087 53.819697 48.464587 51.199905 51.089588 C 48.574905 53.714588 45.012405 55.188546 41.298863 55.188546 L 13.996778 55.188546 C 10.283236 55.188546 6.725944 53.714588 4.100944 51.089588 C 1.475944 48.464587 0.00198529 44.902087 0.00198529 41.188545 L 0.00198529 13.995835 C 0.00198529 10.282293 1.475944 6.725001 4.100944 4.100001 C 6.725944 1.475001 10.283236 0.00104264 13.996778 0.00104264 Z M 13.996778 0.00104264 " stroke="#000000" stroke-width="32" stroke-opacity="1" stroke-miterlimit="4"/></g></g><g clip-path="url(#c97178c1b7)"><g clip-path="url(#5089328490)"><path fill="#000000" d="M 89.140625 322.5 L 114.148438 322.5 L 114.148438 348.292969 L 89.140625 348.292969 Z M 89.140625 322.5 " fill-opacity="1" fill-rule="nonzero"/></g></g><g clip-path="url(#acbe730925)"><g clip-path="url(#5f51b42070)"><path stroke-linecap="butt" transform="matrix(0.75, 0, 0, 0.75, 126.080576, 42.348876)" fill="none" stroke-linejoin="miter" d="M 97.705078 -0.00162583 C 43.741529 -0.00162583 0.00194004 44.071297 0.00194004 98.435887 C 0.00194004 152.800477 43.741529 196.8734 97.705078 196.8734 C 151.663418 196.8734 195.408215 152.800477 195.408215 98.435887 C 195.408215 44.071297 151.663418 -0.00162583 97.705078 -0.00162583 Z M 97.705078 -0.00162583 " stroke="#e2e5c2" stroke-width="38" stroke-opacity="1" stroke-miterlimit="4"/></g></g><g clip-path="url(#4a5c8207a3)"><g clip-path="url(#3f648187fd)"><path stroke-linecap="butt" transform="matrix(0.75, 0, 0, 0.75, 184.4011, 237.77433)" fill="none" stroke-linejoin="miter" d="M 38.996452 -0.00118998 L 127.642291 -0.00118998 C 137.986042 -0.00118998 147.902709 4.108185 155.220418 11.420686 C 162.532918 18.733186 166.642294 28.655062 166.642294 38.998813 L 166.642294 129.160277 C 166.642294 139.498819 162.532918 149.420695 155.220418 156.733195 C 147.902709 164.045696 137.986042 168.155071 127.642291 168.155071 L 38.996452 168.155071 C 28.652701 168.155071 18.736034 164.045696 11.423534 156.733195 C 4.111033 149.420695 0.00165781 139.498819 0.00165781 129.160277 L 0.00165781 38.998813 C 0.00165781 28.655062 4.111033 18.733186 11.423534 11.420686 C 18.736034 4.108185 28.652701 -0.00118998 38.996452 -0.00118998 Z M 38.996452 -0.00118998 " stroke="#000000" stroke-width="32" stroke-opacity="1" stroke-miterlimit="4"/></g></g><g clip-path="url(#a43e12e84c)"><g clip-path="url(#97bae04da2)"><path stroke-linecap="butt" transform="matrix(0.75, 0, 0, 0.75, 220.283911, 274.024612)" fill="none" stroke-linejoin="miter" d="M 35.475623 -0.00156547 C 15.881871 -0.00156547 0.00166055 16.003645 0.00166055 35.743231 C 0.00166055 55.482817 15.881871 71.482819 35.475623 71.482819 C 55.069376 71.482819 70.949586 55.482817 70.949586 35.743231 C 70.949586 16.003645 55.069376 -0.00156547 35.475623 -0.00156547 Z M 35.475623 -0.00156547 " stroke="#e2e5c2" stroke-width="38" stroke-opacity="1" stroke-miterlimit="4"/></g></g><g clip-path="url(#2c7b138619)"><g clip-path="url(#a16c146073)"><path fill="#e2e5c2" d="M 116.355469 264.257812 L 142.484375 264.257812 L 142.484375 290.589844 L 116.355469 290.589844 Z M 116.355469 264.257812 " fill-opacity="1" fill-rule="nonzero"/></g></g><g clip-path="url(#7a5797e890)"><g clip-path="url(#fdd04ddab1)"><path stroke-linecap="butt" transform="matrix(0.75, 0, 0, 0.75, 116.357378, 264.260783)" fill="none" stroke-linejoin="miter" d="M 17.414123 0.00124707 C 7.79433 0.00124707 -0.00254521 7.855414 -0.00254521 17.542915 C -0.00254521 27.235624 7.79433 35.089791 17.414123 35.089791 C 27.033915 35.089791 34.825582 27.235624 34.825582 17.542915 C 34.825582 7.855414 27.033915 0.00124707 17.414123 0.00124707 Z M 17.414123 0.00124707 " stroke="#e2e5c2" stroke-width="38" stroke-opacity="1" stroke-miterlimit="4"/></g></g><g clip-path="url(#785c4db452)"><path fill="#000000" d="M 232.3125 123.429688 L 170.871094 148.316406 L 170.871094 134.171875 L 214.855469 116.363281 L 232.3125 123.433594 Z M 233.039062 108.996094 L 170.867188 83.816406 L 170.867188 97.960938 L 233.035156 123.136719 L 233.035156 109 Z M 233.039062 108.996094 " fill-opacity="1" fill-rule="nonzero"/></g></svg>