<svg xmlns="http://www.w3.org/2000/svg" xmlns:xlink="http://www.w3.org/1999/xlink" width="350" zoomAndPan="magnify" viewBox="0 0 262.5 149.999998" height="200" preserveAspectRatio="xMidYMid meet" version="1.0"><defs><clipPath id="a4c8660b0a"><path d="M 223.933594 95.535156 L 252.378906 95.535156 L 252.378906 123.980469 L 223.933594 123.980469 Z M 223.933594 95.535156 " clip-rule="nonzero"/></clipPath><clipPath id="688fdc1b26"><path d="M 223.933594 115 L 223.933594 104.589844 C 223.933594 102.207031 224.878906 99.921875 226.566406 98.238281 C 228.25 96.554688 230.53125 95.609375 232.914062 95.609375 L 243.269531 95.609375 C 245.652344 95.609375 247.9375 96.554688 249.621094 98.238281 C 251.304688 99.921875 252.25 102.207031 252.25 104.589844 L 252.25 115 C 252.25 117.382812 251.304688 119.667969 249.621094 121.351562 C 247.9375 123.035156 245.652344 123.980469 243.269531 123.980469 L 232.914062 123.980469 C 230.53125 123.980469 228.25 123.035156 226.566406 121.351562 C 224.878906 119.667969 223.933594 117.382812 223.933594 115 Z M 223.933594 115 " clip-rule="nonzero"/></clipPath><clipPath id="7a8e29e4c2"><path d="M 223.933594 129.691406 L 244.808594 129.691406 L 244.808594 149.855469 L 223.933594 149.855469 Z M 223.933594 129.691406 " clip-rule="nonzero"/></clipPath><clipPath id="18963a048e"><path d="M 223.933594 142.371094 L 223.933594 137.175781 C 223.933594 133.042969 227.285156 129.691406 231.421875 129.691406 L 237.25 129.691406 C 241.386719 129.691406 244.734375 133.042969 244.734375 137.175781 L 244.734375 142.371094 C 244.734375 146.503906 241.386719 149.855469 237.25 149.855469 L 231.421875 149.855469 C 227.285156 149.855469 223.933594 146.503906 223.933594 142.371094 Z M 223.933594 142.371094 " clip-rule="nonzero"/></clipPath><clipPath id="54dd08891e"><path d="M 166.746094 0.144531 L 252.082031 0.144531 L 252.082031 86.230469 L 166.746094 86.230469 Z M 166.746094 0.144531 " clip-rule="nonzero"/></clipPath><clipPath id="4903f4f8d4"><path d="M 189.199219 0.144531 L 229.792969 0.144531 C 242.195312 0.144531 252.246094 10.199219 252.246094 22.601562 L 252.246094 63.96875 C 252.246094 76.371094 242.195312 86.425781 229.792969 86.425781 L 189.199219 86.425781 C 176.800781 86.425781 166.746094 76.371094 166.746094 63.96875 L 166.746094 22.601562 C 166.746094 10.199219 176.800781 0.144531 189.199219 0.144531 Z M 189.199219 0.144531 " clip-rule="nonzero"/></clipPath><clipPath id="eabd1c78cd"><path d="M 191.296875 24.941406 L 227.769531 24.941406 L 227.769531 61.625 L 191.296875 61.625 Z M 191.296875 24.941406 " clip-rule="nonzero"/></clipPath><clipPath id="7752a9f2db"><path d="M 209.5 24.941406 C 199.445312 24.941406 191.296875 33.15625 191.296875 43.285156 C 191.296875 53.414062 199.445312 61.625 209.5 61.625 C 219.554688 61.625 227.703125 53.414062 227.703125 43.285156 C 227.703125 33.15625 219.554688 24.941406 209.5 24.941406 Z M 209.5 24.941406 " clip-rule="nonzero"/></clipPath><clipPath id="6364a62eca"><path d="M 166.746094 95.609375 L 221.648438 95.609375 L 221.648438 149.855469 L 166.746094 149.855469 Z M 166.746094 95.609375 " clip-rule="nonzero"/></clipPath><clipPath id="4fe826d51d"><path d="M 183.210938 95.609375 L 205.390625 95.609375 C 209.757812 95.609375 213.945312 97.34375 217.035156 100.433594 C 220.125 103.519531 221.859375 107.710938 221.859375 112.078125 L 221.859375 133.386719 C 221.859375 137.753906 220.125 141.941406 217.035156 145.027344 C 213.945312 148.117188 209.757812 149.851562 205.390625 149.851562 L 183.210938 149.851562 C 178.84375 149.851562 174.65625 148.117188 171.570312 145.027344 C 168.480469 141.941406 166.746094 137.753906 166.746094 133.386719 L 166.746094 112.078125 C 166.746094 107.710938 168.480469 103.519531 171.570312 100.433594 C 174.65625 97.34375 178.84375 95.609375 183.210938 95.609375 Z M 183.210938 95.609375 " clip-rule="nonzero"/></clipPath><clipPath id="2f50594c6c"><path d="M 185.367188 113.726562 L 203.242188 113.726562 L 203.242188 131.742188 L 185.367188 131.742188 Z M 185.367188 113.726562 " clip-rule="nonzero"/></clipPath><clipPath id="0cf18c6be6"><path d="M 194.304688 113.726562 C 189.371094 113.726562 185.367188 117.757812 185.367188 122.734375 C 185.367188 127.707031 189.371094 131.738281 194.304688 131.738281 C 199.242188 131.738281 203.242188 127.707031 203.242188 122.734375 C 203.242188 117.757812 199.242188 113.726562 194.304688 113.726562 Z M 194.304688 113.726562 " clip-rule="nonzero"/></clipPath><clipPath id="7df0a4031a"><path d="M 185.367188 113.730469 L 203.269531 113.730469 L 203.269531 131.6875 L 185.367188 131.6875 Z M 185.367188 113.730469 " clip-rule="nonzero"/></clipPath><clipPath id="574709ca48"><path d="M 194.304688 113.730469 C 189.367188 113.730469 185.367188 117.757812 185.367188 122.730469 C 185.367188 127.703125 189.367188 131.734375 194.304688 131.734375 C 199.238281 131.734375 203.238281 127.703125 203.238281 122.730469 C 203.238281 117.757812 199.238281 113.730469 194.304688 113.730469 Z M 194.304688 113.730469 " clip-rule="nonzero"/></clipPath><clipPath id="ec2b079565"><path d="M 9.742188 0.148438 L 160.207031 0.148438 L 160.207031 149.855469 L 9.742188 149.855469 Z M 9.742188 0.148438 " clip-rule="nonzero"/></clipPath><clipPath id="d3afe88404"><path d="M 43.425781 0.148438 L 126.734375 0.148438 C 135.667969 0.148438 144.234375 3.695312 150.550781 10.011719 C 156.867188 16.332031 160.417969 24.898438 160.417969 33.832031 L 160.417969 116.167969 C 160.417969 125.101562 156.867188 133.667969 150.550781 139.988281 C 144.234375 146.304688 135.667969 149.851562 126.734375 149.851562 L 43.425781 149.851562 C 34.492188 149.851562 25.925781 146.304688 19.609375 139.988281 C 13.292969 133.667969 9.742188 125.101562 9.742188 116.167969 L 9.742188 33.832031 C 9.742188 24.898438 13.292969 16.332031 19.609375 10.011719 C 25.925781 3.695312 34.492188 0.148438 43.425781 0.148438 Z M 43.425781 0.148438 " clip-rule="nonzero"/></clipPath><clipPath id="aec1e48dcf"><path d="M 35.019531 24.488281 L 135.328125 24.488281 L 135.328125 125.546875 L 35.019531 125.546875 Z M 35.019531 24.488281 " clip-rule="nonzero"/></clipPath><clipPath id="43802c111c"><path d="M 85.148438 24.488281 C 57.464844 24.488281 35.019531 47.101562 35.019531 74.996094 C 35.019531 102.886719 57.464844 125.5 85.148438 125.5 C 112.835938 125.5 135.277344 102.886719 135.277344 74.996094 C 135.277344 47.101562 112.835938 24.488281 85.148438 24.488281 Z M 85.148438 24.488281 " clip-rule="nonzero"/></clipPath><clipPath id="c6dd3bcb51"><path d="M 65 52.859375 L 109 52.859375 L 109 97.027344 L 65 97.027344 Z M 65 52.859375 " clip-rule="nonzero"/></clipPath></defs><g clip-path="url(#a4c8660b0a)"><g clip-path="url(#688fdc1b26)"><path stroke-linecap="butt" transform="matrix(0, -0.748574, 0.748574, 0, 223.934279, 123.981731)" fill="none" stroke-linejoin="miter" d="M 11.998452 -0.000915097 L 25.905099 -0.000915097 C 29.088234 -0.000915097 32.140912 1.261902 34.38998 3.516188 C 36.639047 5.765255 37.901865 8.812716 37.901865 11.995851 L 37.901865 25.829441 C 37.901865 29.012576 36.639047 32.065255 34.38998 34.314322 C 32.140912 36.56339 29.088234 37.826207 25.905099 37.826207 L 11.998452 37.826207 C 8.815318 37.826207 5.762639 36.56339 3.513572 34.314322 C 1.264504 32.065255 0.0016868 29.012576 0.0016868 25.829441 L 0.0016868 11.995851 C 0.0016868 8.812716 1.264504 5.765255 3.513572 3.516188 C 5.762639 1.261902 8.815318 -0.000915097 11.998452 -0.000915097 Z M 11.998452 -0.000915097 " stroke="#000000" stroke-width="16" stroke-opacity="1" stroke-miterlimit="4"/></g></g><g clip-path="url(#7a8e29e4c2)"><g clip-path="url(#18963a048e)"><path fill="#000000" d="M 223.933594 149.855469 L 223.933594 129.691406 L 244.730469 129.691406 L 244.730469 149.855469 Z M 223.933594 149.855469 " fill-opacity="1" fill-rule="nonzero"/></g></g><g clip-path="url(#54dd08891e)"><g clip-path="url(#4903f4f8d4)"><path stroke-linecap="butt" transform="matrix(0.748574, 0, 0, 0.748574, 166.746316, 0.145631)" fill="none" stroke-linejoin="miter" d="M 29.994228 -0.0014689 L 84.222325 -0.0014689 C 100.790282 -0.0014689 114.21685 13.430317 114.21685 29.998274 L 114.21685 85.259586 C 114.21685 101.827543 100.790282 115.25933 84.222325 115.25933 L 29.994228 115.25933 C 13.431489 115.25933 -0.000297176 101.827543 -0.000297176 85.259586 L -0.000297176 29.998274 C -0.000297176 13.430317 13.431489 -0.0014689 29.994228 -0.0014689 Z M 29.994228 -0.0014689 " stroke="#000000" stroke-width="26" stroke-opacity="1" stroke-miterlimit="4"/></g></g><g clip-path="url(#eabd1c78cd)"><g clip-path="url(#7752a9f2db)"><path stroke-linecap="butt" transform="matrix(0.748574, 0, 0, 0.748574, 191.297398, 24.943337)" fill="none" stroke-linejoin="miter" d="M 24.316365 -0.00257862 C 10.889797 -0.00257862 -0.000699219 10.97141 -0.000699219 24.502343 C -0.000699219 38.033276 10.889797 49.002046 24.316365 49.002046 C 37.748152 49.002046 48.63343 38.033276 48.63343 24.502343 C 48.63343 10.97141 37.748152 -0.00257862 24.316365 -0.00257862 Z M 24.316365 -0.00257862 " stroke="#e2e5c2" stroke-width="38" stroke-opacity="1" stroke-miterlimit="4"/></g></g><g clip-path="url(#6364a62eca)"><g clip-path="url(#4fe826d51d)"><path stroke-linecap="butt" transform="matrix(0.513114, 0, 0, 0.513114, 166.746331, 95.609857)" fill="none" stroke-linejoin="miter" d="M 32.08762 -0.000940319 L 75.313273 -0.000940319 C 83.824418 -0.000940319 91.985372 3.379157 98.007122 9.400906 C 104.028871 15.415042 107.408968 23.583609 107.408968 32.094754 L 107.408968 73.622746 C 107.408968 82.133891 104.028871 90.294845 98.007122 96.308982 C 91.985372 102.330731 83.824418 105.710828 75.313273 105.710828 L 32.08762 105.710828 C 23.576475 105.710828 15.415521 102.330731 9.401384 96.308982 C 3.379635 90.294845 -0.000461556 82.133891 -0.000461556 73.622746 L -0.000461556 32.094754 C -0.000461556 23.583609 3.379635 15.415042 9.401384 9.400906 C 15.415521 3.379157 23.576475 -0.000940319 32.08762 -0.000940319 Z M 32.08762 -0.000940319 " stroke="#000000" stroke-width="37.931004" stroke-opacity="1" stroke-miterlimit="4"/></g></g><g clip-path="url(#2f50594c6c)"><g clip-path="url(#0cf18c6be6)"><path fill="#e2e5c2" d="M 185.367188 113.726562 L 203.242188 113.726562 L 203.242188 131.742188 L 185.367188 131.742188 Z M 185.367188 113.726562 " fill-opacity="1" fill-rule="nonzero"/></g></g><g clip-path="url(#7df0a4031a)"><g clip-path="url(#574709ca48)"><path stroke-linecap="butt" transform="matrix(0.513114, 0, 0, 0.513114, 185.368033, 113.728963)" fill="none" stroke-linejoin="miter" d="M 17.41651 0.00293385 C 7.793892 0.00293385 -0.00164719 7.851762 -0.00164719 17.542896 C -0.00164719 27.234029 7.793892 35.090471 17.41651 35.090471 C 27.031515 35.090471 34.827054 27.234029 34.827054 17.542896 C 34.827054 7.851762 27.031515 0.00293385 17.41651 0.00293385 Z M 17.41651 0.00293385 " stroke="#e2e5c2" stroke-width="55.437618" stroke-opacity="1" stroke-miterlimit="4"/></g></g><g clip-path="url(#ec2b079565)"><g clip-path="url(#d3afe88404)"><path stroke-linecap="butt" transform="matrix(0.748574, 0, 0, 0.748574, 9.743807, 0.147983)" fill="none" stroke-linejoin="miter" d="M 44.994843 0.000607195 L 156.28455 0.000607195 C 168.218697 0.000607195 179.662328 4.738782 188.100245 13.176699 C 196.538162 21.619834 201.281555 33.063466 201.281555 44.997613 L 201.281555 154.987975 C 201.281555 166.922122 196.538162 178.365754 188.100245 186.808889 C 179.662328 195.246806 168.218697 199.984981 156.28455 199.984981 L 44.994843 199.984981 C 33.060695 199.984981 21.617064 195.246806 13.179147 186.808889 C 4.74123 178.365754 -0.00216334 166.922122 -0.00216334 154.987975 L -0.00216334 44.997613 C -0.00216334 33.063466 4.74123 21.619834 13.179147 13.176699 C 21.617064 4.738782 33.060695 0.000607195 44.994843 0.000607195 Z M 44.994843 0.000607195 " stroke="#000000" stroke-width="26" stroke-opacity="1" stroke-miterlimit="4"/></g></g><g clip-path="url(#aec1e48dcf)"><g clip-path="url(#43802c111c)"><path stroke-linecap="butt" transform="matrix(0.748574, 0, 0, 0.748574, 35.020179, 24.489184)" fill="none" stroke-linejoin="miter" d="M 66.964986 -0.00120651 C 29.983221 -0.00120651 -0.000865785 30.207265 -0.000865785 67.470816 C -0.000865785 104.729148 29.983221 134.93762 66.964986 134.93762 C 103.951969 134.93762 133.930838 104.729148 133.930838 67.470816 C 133.930838 30.207265 103.951969 -0.00120651 66.964986 -0.00120651 Z M 66.964986 -0.00120651 " stroke="#e2e5c2" stroke-width="38" stroke-opacity="1" stroke-miterlimit="4"/></g></g><g clip-path="url(#c6dd3bcb51)"><path fill="#000000" d="M 107.734375 79.984375 L 65.660156 97.027344 L 65.660156 87.339844 L 95.777344 75.144531 L 107.734375 79.988281 Z M 108.230469 70.101562 L 65.660156 52.859375 L 65.660156 62.546875 L 108.226562 79.785156 L 108.226562 70.101562 Z M 108.230469 70.101562 " fill-opacity="1" fill-rule="nonzero"/></g></svg>