<svg xmlns="http://www.w3.org/2000/svg" xmlns:xlink="http://www.w3.org/1999/xlink" width="500" zoomAndPan="magnify" viewBox="0 0 375 374.999991" height="500" preserveAspectRatio="xMidYMid meet" version="1.0"><path fill="#a6a6a6" d="M 113.25 117.75 L 240 117.75 C 243 117.75 245.625 120.375 245.625 123.375 L 245.625 147 C 245.625 150 243 152.625 240 152.625 L 113.25 152.625 C 110.25 152.625 107.625 150 107.625 147 L 107.625 123.375 C 107.625 120 109.875 117.75 113.25 117.75 Z M 113.25 117.75 " fill-opacity="1" fill-rule="nonzero"/><path fill="#000000" d="M 295.875 284.25 L 220.875 195 C 220.5 194.625 220.125 194.25 219.375 193.875 L 184.875 175.125 C 183.375 174.375 181.125 174.375 179.625 175.5 C 178.125 176.625 177.375 178.875 178.125 180.375 L 188.625 215.25 C 188.625 216 189 216.375 189.375 216.75 L 264.375 309.375 C 267.75 313.5 272.625 316.125 278.25 316.875 C 279 316.875 279.75 316.875 280.5 316.875 C 285 316.875 289.5 315.375 293.25 312.375 C 293.25 312.375 293.625 312 293.625 312 C 297.75 308.625 300.375 303.75 300.75 298.125 C 301.125 293.625 299.25 288.375 295.875 284.25 Z M 286.875 306 C 284.625 307.875 281.625 308.625 279 308.25 C 276 307.875 273.375 306.375 271.5 304.125 L 264 294.75 L 271.875 288.375 C 273.75 286.875 274.125 283.875 272.625 281.625 C 271.125 279.75 268.125 279.375 265.875 280.875 L 258 287.25 L 197.25 212.25 L 190.5 189 L 214.125 201.75 L 288.75 290.25 C 290.625 292.5 291.375 295.5 291.375 298.125 C 290.625 301.125 289.5 303.75 286.875 306 Z M 286.875 306 " fill-opacity="1" fill-rule="nonzero"/><path fill="#000000" d="M 268.875 222.375 C 268.875 225 271.125 227.25 273.75 227.25 C 276.375 227.25 278.625 225 278.625 222.375 L 278.625 66 C 278.625 61.125 274.875 57.375 270 57.375 L 83.25 57.375 C 78.375 57.375 74.625 61.125 74.25 66 L 74.25 222.375 C 74.25 225 76.5 227.25 79.125 227.25 C 81.75 227.25 84 225 84 222.375 L 84 66.75 L 269.25 66.75 L 269.25 222.375 Z M 268.875 222.375 " fill-opacity="1" fill-rule="nonzero"/><path fill="#000000" d="M 109.5 84.75 C 109.5 82.125 107.25 79.875 104.625 79.875 L 102.375 79.875 C 99.75 79.875 97.5 82.125 97.5 84.75 C 97.5 87.375 99.75 89.625 102.375 89.625 L 105 89.625 C 107.625 89.25 109.5 87.375 109.5 84.75 Z M 109.5 84.75 " fill-opacity="1" fill-rule="nonzero"/><path fill="#000000" d="M 125.25 79.875 L 123 79.875 C 120.375 79.875 118.125 82.125 118.125 84.75 C 118.125 87.375 120.375 89.625 123 89.625 L 125.25 89.625 C 127.875 89.625 130.125 87.375 130.125 84.75 C 130.125 82.125 127.875 79.875 125.25 79.875 Z M 125.25 79.875 " fill-opacity="1" fill-rule="nonzero"/><path fill="#000000" d="M 145.5 79.875 L 143.25 79.875 C 140.625 79.875 138.375 82.125 138.375 84.75 C 138.375 87.375 140.625 89.625 143.25 89.625 L 145.5 89.625 C 148.125 89.625 150.375 87.375 150.375 84.75 C 150.375 82.125 148.125 79.875 145.5 79.875 Z M 145.5 79.875 " fill-opacity="1" fill-rule="nonzero"/><path fill="#000000" d="M 115.125 174.75 L 112.5 174.75 C 109.875 174.75 107.625 177 107.625 179.625 C 107.625 182.25 109.875 184.5 112.5 184.5 L 114.75 184.5 C 117.375 184.5 119.625 182.25 119.625 179.625 C 119.625 177 117.75 174.75 115.125 174.75 Z M 115.125 174.75 " fill-opacity="1" fill-rule="nonzero"/><path fill="#000000" d="M 115.125 195.75 L 112.5 195.75 C 109.875 195.75 107.625 198 107.625 200.625 C 107.625 203.25 109.875 205.5 112.5 205.5 L 114.75 205.5 C 117.375 205.5 119.625 203.25 119.625 200.625 C 119.625 198 117.75 195.75 115.125 195.75 Z M 115.125 195.75 " fill-opacity="1" fill-rule="nonzero"/><path fill="#000000" d="M 115.125 216.75 L 112.5 216.75 C 109.875 216.75 107.625 219 107.625 221.625 C 107.625 224.25 109.875 226.5 112.5 226.5 L 114.75 226.5 C 117.375 226.5 119.625 224.25 119.625 221.625 C 119.625 219 117.75 216.75 115.125 216.75 Z M 115.125 216.75 " fill-opacity="1" fill-rule="nonzero"/><path fill="#000000" d="M 136.125 216.75 L 133.875 216.75 C 131.25 216.75 129 219 129 221.625 C 129 224.25 131.25 226.5 133.875 226.5 L 136.125 226.5 C 138.75 226.5 141 224.25 141 221.625 C 141 219 138.75 216.75 136.125 216.75 Z M 136.125 216.75 " fill-opacity="1" fill-rule="nonzero"/><path fill="#000000" d="M 157.125 216.75 L 154.875 216.75 C 152.25 216.75 150 219 150 221.625 C 150 224.25 152.25 226.5 154.875 226.5 L 157.125 226.5 C 159.75 226.5 162 224.25 162 221.625 C 162 219 159.75 216.75 157.125 216.75 Z M 157.125 216.75 " fill-opacity="1" fill-rule="nonzero"/><path fill="#000000" d="M 157.125 195.75 L 154.875 195.75 C 152.25 195.75 150 198 150 200.625 C 150 203.25 152.25 205.5 154.875 205.5 L 157.125 205.5 C 159.75 205.5 162 203.25 162 200.625 C 162 198 159.75 195.75 157.125 195.75 Z M 157.125 195.75 " fill-opacity="1" fill-rule="nonzero"/><path fill="#000000" d="M 136.125 174.75 L 133.875 174.75 C 131.25 174.75 129 177 129 179.625 C 129 182.25 131.25 184.5 133.875 184.5 L 136.125 184.5 C 138.75 184.5 141 182.25 141 179.625 C 141 177 138.75 174.75 136.125 174.75 Z M 136.125 174.75 " fill-opacity="1" fill-rule="nonzero"/><path fill="#000000" d="M 157.125 174.75 L 154.875 174.75 C 152.25 174.75 150 177 150 179.625 C 150 182.25 152.25 184.5 154.875 184.5 L 157.125 184.5 C 159.75 184.5 162 182.25 162 179.625 C 162 177 159.75 174.75 157.125 174.75 Z M 157.125 174.75 " fill-opacity="1" fill-rule="nonzero"/><path fill="#040606" d="M 183.390625 139.515625 L 189.257812 133.800781 L 183.480469 133.800781 L 183.480469 131.109375 L 193.363281 131.109375 L 193.363281 133.847656 L 187.496094 139.539062 L 193.476562 139.539062 L 193.476562 142.230469 L 183.394531 142.230469 Z M 179.222656 127.453125 L 182.277344 127.453125 L 182.277344 130.21875 L 179.222656 130.21875 Z M 179.179688 131.144531 L 182.238281 131.144531 L 182.238281 142.261719 L 179.179688 142.261719 Z M 142.207031 136.671875 C 142.21875 133.492188 144.8125 130.925781 148 130.933594 C 151.191406 130.941406 153.769531 133.519531 153.765625 136.699219 C 153.761719 139.878906 151.175781 142.453125 147.984375 142.453125 C 146.449219 142.453125 144.972656 141.84375 143.890625 140.757812 C 142.804688 139.675781 142.199219 138.203125 142.207031 136.671875 Z M 150.796875 136.671875 C 150.796875 135.089844 149.546875 133.777344 147.984375 133.777344 C 146.402344 133.777344 145.195312 135.089844 145.195312 136.671875 C 145.195312 138.25 146.402344 139.5625 147.984375 139.5625 C 149.546875 139.558594 150.796875 138.25 150.796875 136.671875 Z M 167.5625 131.109375 L 170.597656 131.109375 L 170.597656 132.355469 C 171.308594 131.441406 172.402344 130.886719 173.675781 130.886719 C 176.308594 130.886719 177.894531 132.578125 177.894531 135.445312 L 177.894531 142.230469 L 174.789062 142.230469 L 174.789062 135.847656 C 174.789062 134.355469 174.097656 133.488281 172.738281 133.488281 C 171.578125 133.488281 170.617188 134.289062 170.617188 136.152344 L 170.617188 142.222656 L 167.5625 142.222656 Z M 193.652344 136.671875 C 193.652344 132.734375 196.554688 130.882812 199.074219 130.882812 C 200.527344 130.882812 201.664062 131.417969 202.398438 132.195312 L 202.398438 131.109375 L 205.453125 131.109375 L 205.453125 142.230469 L 202.398438 142.230469 L 202.398438 140.984375 C 201.664062 141.851562 200.480469 142.453125 199.03125 142.453125 C 196.664062 142.453125 193.652344 140.585938 193.652344 136.671875 Z M 202.488281 136.648438 C 202.488281 135.003906 201.28125 133.667969 199.628906 133.667969 C 197.933594 133.667969 196.640625 134.933594 196.640625 136.648438 C 196.640625 138.359375 197.933594 139.648438 199.628906 139.648438 C 201.285156 139.648438 202.488281 138.292969 202.488281 136.648438 Z M 206.691406 131.109375 L 209.726562 131.109375 L 209.726562 132.355469 C 210.4375 131.441406 211.53125 130.886719 212.804688 130.886719 C 215.4375 130.886719 217.019531 132.578125 217.019531 135.445312 L 217.019531 142.230469 L 213.917969 142.230469 L 213.917969 135.847656 C 213.917969 134.355469 213.230469 133.488281 211.867188 133.488281 C 210.707031 133.488281 209.746094 134.289062 209.746094 136.152344 L 209.746094 142.222656 L 206.691406 142.222656 Z M 183.390625 142.230469 L 183.390625 139.515625 L 189.257812 133.800781 L 183.480469 133.800781 L 183.480469 131.109375 L 193.363281 131.109375 L 193.363281 133.847656 L 187.496094 139.539062 M 138.945312 136.574219 L 138.902344 136.660156 C 138.058594 138.433594 136.507812 139.453125 134.644531 139.453125 C 131.945312 139.453125 129.832031 137.324219 129.832031 134.609375 C 129.832031 131.824219 131.929688 129.726562 134.710938 129.726562 C 136.515625 129.726562 137.882812 130.570312 138.785156 132.230469 L 138.832031 132.316406 L 141.550781 130.582031 L 141.507812 130.507812 C 140.09375 128.109375 137.554688 126.675781 134.710938 126.675781 C 130.171875 126.675781 126.75 130.089844 126.75 134.613281 C 126.75 139.210938 130.097656 142.546875 134.710938 142.546875 C 137.6875 142.546875 140.3125 140.902344 141.738281 138.148438 L 141.78125 138.0625 Z M 154.535156 136.671875 C 154.535156 132.734375 157.4375 130.882812 159.957031 130.882812 C 161.410156 130.882812 162.546875 131.484375 163.28125 132.308594 L 163.28125 131.109375 L 166.339844 131.109375 L 166.339844 141.921875 C 166.339844 145.054688 164.351562 147.589844 160.582031 147.589844 C 157.746094 147.589844 155.671875 146.121094 154.777344 144.386719 L 157.476562 142.875 C 158.054688 144.03125 159.082031 144.765625 160.578125 144.765625 C 162.230469 144.765625 163.277344 143.476562 163.277344 142.03125 L 163.277344 140.984375 C 162.539062 141.851562 161.359375 142.453125 159.910156 142.453125 C 157.546875 142.453125 154.535156 140.585938 154.535156 136.671875 Z M 163.371094 136.648438 C 163.371094 135.003906 162.167969 133.667969 160.515625 133.667969 C 158.820312 133.667969 157.523438 134.933594 157.523438 136.648438 C 157.523438 138.359375 158.820312 139.648438 160.515625 139.648438 C 162.167969 139.648438 163.371094 138.292969 163.371094 136.648438 Z M 224.550781 133.847656 L 224.550781 131.109375 L 222.453125 131.109375 L 222.453125 127.441406 L 219.398438 127.441406 L 219.398438 131.109375 L 217.5 131.109375 L 217.5 133.847656 L 219.394531 133.847656 L 219.394531 137.402344 C 219.394531 141.027344 220.554688 142.230469 224.101562 142.230469 L 224.546875 142.230469 L 224.546875 139.382812 C 222.671875 139.382812 222.449219 139.117188 222.449219 137.382812 L 222.449219 133.847656 Z M 225.199219 128.769531 C 225.046875 128.921875 224.863281 129 224.644531 129 C 224.429688 129 224.246094 128.921875 224.09375 128.769531 C 223.9375 128.617188 223.863281 128.433594 223.863281 128.21875 C 223.867188 127.867188 224.101562 127.558594 224.445312 127.46875 C 224.785156 127.378906 225.144531 127.527344 225.320312 127.832031 C 225.496094 128.136719 225.445312 128.519531 225.195312 128.769531 Z M 224.171875 127.746094 C 224.039062 127.875 223.972656 128.035156 223.976562 128.21875 C 223.972656 128.40625 224.039062 128.566406 224.171875 128.695312 C 224.300781 128.828125 224.460938 128.894531 224.644531 128.894531 C 224.824219 128.894531 224.996094 128.820312 225.121094 128.695312 C 225.253906 128.566406 225.320312 128.40625 225.316406 128.21875 C 225.320312 127.949219 225.15625 127.703125 224.902344 127.597656 C 224.652344 127.492188 224.363281 127.550781 224.171875 127.746094 Z M 224.628906 127.789062 C 224.710938 127.785156 224.789062 127.796875 224.863281 127.820312 C 224.960938 127.859375 225.007812 127.929688 224.996094 128.035156 C 225 128.109375 224.972656 128.164062 224.914062 128.203125 C 224.875 128.226562 224.832031 128.242188 224.789062 128.246094 C 224.851562 128.253906 224.898438 128.28125 224.9375 128.328125 C 224.964844 128.367188 224.980469 128.414062 224.984375 128.460938 L 224.984375 128.585938 C 224.984375 128.601562 224.984375 128.617188 224.988281 128.632812 L 224.996094 128.640625 L 224.855469 128.640625 C 224.855469 128.640625 224.855469 128.636719 224.855469 128.632812 L 224.855469 128.53125 C 224.863281 128.449219 224.839844 128.382812 224.773438 128.335938 C 224.71875 128.3125 224.664062 128.300781 224.605469 128.308594 L 224.484375 128.308594 L 224.484375 128.640625 L 224.332031 128.640625 L 224.332031 127.789062 Z M 224.792969 127.921875 C 224.734375 127.898438 224.671875 127.886719 224.609375 127.890625 L 224.480469 127.890625 L 224.480469 128.199219 L 224.617188 128.199219 C 224.667969 128.203125 224.714844 128.195312 224.761719 128.183594 C 224.8125 128.160156 224.84375 128.117188 224.851562 128.0625 C 224.859375 128.003906 224.839844 127.957031 224.792969 127.921875 Z M 224.792969 127.921875 " fill-opacity="1" fill-rule="nonzero"/></svg>