<svg xmlns="http://www.w3.org/2000/svg" xmlns:xlink="http://www.w3.org/1999/xlink" width="500" zoomAndPan="magnify" viewBox="0 0 375 374.999991" height="500" preserveAspectRatio="xMidYMid meet" version="1.0"><defs><g/><clipPath id="05648a7312"><path d="M 291 297 L 307 297 L 307 312 L 291 312 Z M 291 297 " clip-rule="nonzero"/></clipPath><clipPath id="f12c6e136c"><path d="M 293.234375 296.492188 L 307.269531 298.941406 L 304.820312 312.980469 L 290.785156 310.53125 Z M 293.234375 296.492188 " clip-rule="nonzero"/></clipPath><clipPath id="5351d40339"><path d="M 293.234375 296.492188 L 307.269531 298.941406 L 304.820312 312.980469 L 290.785156 310.53125 Z M 293.234375 296.492188 " clip-rule="nonzero"/></clipPath><clipPath id="75857af0f1"><path d="M 293.234375 296.492188 L 307.269531 298.941406 L 304.820312 312.980469 L 290.785156 310.53125 Z M 293.234375 296.492188 " clip-rule="nonzero"/></clipPath><clipPath id="ae909dc2ca"><path d="M 56 74 L 72 74 L 72 90 L 56 90 Z M 56 74 " clip-rule="nonzero"/></clipPath><clipPath id="b9ab23bb5a"><path d="M 55.746094 76.492188 L 69.699219 73.597656 L 72.59375 87.550781 L 58.640625 90.445312 Z M 55.746094 76.492188 " clip-rule="nonzero"/></clipPath><clipPath id="f111a9208c"><path d="M 55.746094 76.492188 L 69.699219 73.597656 L 72.59375 87.550781 L 58.640625 90.445312 Z M 55.746094 76.492188 " clip-rule="nonzero"/></clipPath><clipPath id="a6fa1372be"><path d="M 55.746094 76.492188 L 69.699219 73.597656 L 72.59375 87.550781 L 58.640625 90.445312 Z M 55.746094 76.492188 " clip-rule="nonzero"/></clipPath><clipPath id="9655cb1103"><path d="M 252 30 L 267 30 L 267 45 L 252 45 Z M 252 30 " clip-rule="nonzero"/></clipPath><clipPath id="92c838f591"><path d="M 254.457031 28.75 L 268.226562 32.421875 L 264.554688 46.191406 L 250.785156 42.519531 Z M 254.457031 28.75 " clip-rule="nonzero"/></clipPath><clipPath id="cc5a2acdad"><path d="M 254.457031 28.75 L 268.226562 32.421875 L 264.554688 46.191406 L 250.785156 42.519531 Z M 254.457031 28.75 " clip-rule="nonzero"/></clipPath><clipPath id="cd01febe66"><path d="M 254.457031 28.75 L 268.226562 32.421875 L 264.554688 46.191406 L 250.785156 42.519531 Z M 254.457031 28.75 " clip-rule="nonzero"/></clipPath></defs><path fill="#000000" d="M 267.164062 56.441406 L 107.835938 56.441406 C 99.335938 56.441406 92.417969 63.359375 92.417969 71.859375 L 92.417969 303.140625 C 92.417969 311.640625 99.335938 318.558594 107.835938 318.558594 L 241.464844 318.558594 C 264.136719 318.558594 282.582031 300.113281 282.582031 277.441406 L 282.582031 71.859375 C 282.582031 63.359375 275.664062 56.441406 267.164062 56.441406 Z M 272.300781 277.441406 C 272.300781 294.445312 258.46875 308.277344 241.464844 308.277344 L 107.835938 308.277344 C 105.003906 308.277344 102.695312 305.972656 102.695312 303.140625 L 102.695312 71.859375 C 102.695312 69.027344 105.003906 66.71875 107.835938 66.71875 L 267.164062 66.71875 C 269.996094 66.71875 272.300781 69.027344 272.300781 71.859375 Z M 272.300781 277.441406 " fill-opacity="1" fill-rule="nonzero"/><path fill="#000000" d="M 158.167969 273.808594 L 147.886719 284.085938 C 145.882812 286.09375 145.882812 289.347656 147.886719 291.355469 C 149.898438 293.363281 153.148438 293.363281 155.15625 291.355469 L 165.4375 281.078125 C 167.445312 279.070312 167.445312 275.816406 165.4375 273.808594 C 163.429688 271.800781 160.175781 271.800781 158.167969 273.808594 Z M 158.167969 273.808594 " fill-opacity="1" fill-rule="nonzero"/><path fill="#000000" d="M 189.003906 273.808594 L 178.726562 284.085938 C 176.71875 286.09375 176.71875 289.347656 178.726562 291.355469 C 180.734375 293.363281 183.988281 293.363281 185.996094 291.355469 L 196.273438 281.078125 C 198.28125 279.070312 198.28125 275.816406 196.273438 273.808594 C 194.265625 271.800781 191.011719 271.800781 189.003906 273.808594 Z M 189.003906 273.808594 " fill-opacity="1" fill-rule="nonzero"/><path fill="#000000" d="M 219.84375 273.808594 L 209.5625 284.085938 C 207.554688 286.09375 207.554688 289.347656 209.5625 291.355469 C 211.570312 293.363281 214.824219 293.363281 216.832031 291.355469 L 227.109375 281.078125 C 229.117188 279.070312 229.117188 275.816406 227.109375 273.808594 C 225.101562 271.800781 221.851562 271.800781 219.84375 273.808594 Z M 219.84375 273.808594 " fill-opacity="1" fill-rule="nonzero"/><path fill="#65e29c" d="M 256.882812 77 L 118.117188 77 C 115.277344 77 112.976562 79.300781 112.976562 82.140625 L 112.976562 169.511719 C 112.976562 172.347656 115.277344 174.652344 118.117188 174.652344 L 256.882812 174.652344 C 259.722656 174.652344 262.023438 172.347656 262.023438 169.511719 L 262.023438 82.140625 C 262.023438 79.300781 259.722656 77 256.882812 77 Z M 251.742188 164.371094 L 123.253906 164.371094 L 123.253906 87.277344 L 251.742188 87.277344 Z M 251.742188 164.371094 " fill-opacity="1" fill-rule="nonzero"/><path fill="#65e29c" d="M 174.652344 205.488281 L 164.371094 205.488281 L 164.371094 195.207031 C 164.371094 192.371094 162.070312 190.070312 159.230469 190.070312 L 138.675781 190.070312 C 135.835938 190.070312 133.535156 192.371094 133.535156 195.207031 L 133.535156 205.488281 L 123.253906 205.488281 C 120.417969 205.488281 118.117188 207.789062 118.117188 210.628906 L 118.117188 231.1875 C 118.117188 234.023438 120.417969 236.324219 123.253906 236.324219 L 133.535156 236.324219 L 133.535156 246.605469 C 133.535156 249.441406 135.835938 251.742188 138.675781 251.742188 L 159.230469 251.742188 C 162.070312 251.742188 164.371094 249.441406 164.371094 246.605469 L 164.371094 236.324219 L 174.652344 236.324219 C 177.488281 236.324219 179.789062 234.023438 179.789062 231.1875 L 179.789062 210.628906 C 179.789062 207.789062 177.488281 205.488281 174.652344 205.488281 Z M 169.511719 226.046875 L 159.230469 226.046875 C 156.394531 226.046875 154.09375 228.347656 154.09375 231.1875 L 154.09375 241.464844 L 143.8125 241.464844 L 143.8125 231.1875 C 143.8125 228.347656 141.511719 226.046875 138.675781 226.046875 L 128.394531 226.046875 L 128.394531 215.765625 L 138.675781 215.765625 C 141.511719 215.765625 143.8125 213.464844 143.8125 210.628906 L 143.8125 200.347656 L 154.09375 200.347656 L 154.09375 210.628906 C 154.09375 213.464844 156.394531 215.765625 159.230469 215.765625 L 169.511719 215.765625 Z M 169.511719 226.046875 " fill-opacity="1" fill-rule="nonzero"/><path fill="#65e29c" d="M 241.464844 190.070312 C 232.964844 190.070312 226.046875 196.984375 226.046875 205.488281 C 226.046875 213.988281 232.964844 220.90625 241.464844 220.90625 C 249.964844 220.90625 256.882812 213.988281 256.882812 205.488281 C 256.882812 196.984375 249.964844 190.070312 241.464844 190.070312 Z M 241.464844 210.628906 C 238.628906 210.628906 236.324219 208.320312 236.324219 205.488281 C 236.324219 202.652344 238.628906 200.347656 241.464844 200.347656 C 244.296875 200.347656 246.605469 202.652344 246.605469 205.488281 C 246.605469 208.320312 244.296875 210.628906 241.464844 210.628906 Z M 241.464844 210.628906 " fill-opacity="1" fill-rule="nonzero"/><path fill="#65e29c" d="M 205.488281 226.046875 C 196.984375 226.046875 190.070312 232.964844 190.070312 241.464844 C 190.070312 249.964844 196.984375 256.882812 205.488281 256.882812 C 213.988281 256.882812 220.90625 249.964844 220.90625 241.464844 C 220.90625 232.964844 213.988281 226.046875 205.488281 226.046875 Z M 205.488281 246.605469 C 202.652344 246.605469 200.347656 244.296875 200.347656 241.464844 C 200.347656 238.628906 202.652344 236.324219 205.488281 236.324219 C 208.320312 236.324219 210.628906 238.628906 210.628906 241.464844 C 210.628906 244.296875 208.320312 246.605469 205.488281 246.605469 Z M 205.488281 246.605469 " fill-opacity="1" fill-rule="nonzero"/><path stroke-linecap="round" transform="matrix(1.65625, 0, 0, 1.65625, 43.753437, 319.072714)" fill="none" stroke-linejoin="round" d="M 20.589906 4.970248 C 21.469623 5.960814 22.000284 7.260342 22.000284 8.689588 C 22.000284 15.689588 15.519152 19.819305 12.620567 20.819305 C 12.280944 20.939588 11.719623 20.939588 11.380001 20.819305 C 8.479057 19.819305 2.000283 15.689588 2.000283 8.689588 C 2.000283 5.599965 4.49085 3.099965 7.559246 3.099965 C 9.380001 3.099965 10.99085 3.979682 12.000284 5.340531 C 13.009718 3.979682 14.630001 3.099965 16.438963 3.099965 " stroke="#292d32" stroke-width="1.5" stroke-opacity="1" stroke-miterlimit="4"/><path stroke-linecap="round" transform="matrix(2.625, 0, 0, 2.625, 294.391948, 19.047626)" fill="none" stroke-linejoin="round" d="M 1.999496 12.959535 L 1.999496 14.999714 C 1.999496 19.999714 3.999496 21.999713 8.999496 21.999713 L 14.999495 21.999713 C 19.999495 21.999713 21.999495 19.999714 21.999495 14.999714 L 21.999495 8.999714 C 21.999495 3.999714 19.999495 1.999714 14.999495 1.999714 L 8.999496 1.999714 C 3.999496 1.999714 1.999496 3.999714 1.999496 8.999714 " stroke="#292d32" stroke-width="1.5" stroke-opacity="1" stroke-miterlimit="4"/><path stroke-linecap="round" transform="matrix(2.625, 0, 0, 2.625, 294.391948, 19.047626)" fill="none" stroke-linejoin="round" d="M 15.499495 9.749714 C 16.328364 9.749714 16.999495 9.078583 16.999495 8.249714 C 16.999495 7.420845 16.328364 6.749714 15.499495 6.749714 C 14.672115 6.749714 13.999495 7.420845 13.999495 8.249714 C 13.999495 9.078583 14.672115 9.749714 15.499495 9.749714 Z M 15.499495 9.749714 " stroke="#292d32" stroke-width="1.5" stroke-opacity="1" stroke-miterlimit="10"/><path stroke-linecap="round" transform="matrix(2.625, 0, 0, 2.625, 294.391948, 19.047626)" fill="none" stroke-linejoin="round" d="M 8.499496 9.749714 C 9.328365 9.749714 9.999496 9.078583 9.999496 8.249714 C 9.999496 7.420845 9.328365 6.749714 8.499496 6.749714 C 7.672115 6.749714 6.999496 7.420845 6.999496 8.249714 C 6.999496 9.078583 7.672115 9.749714 8.499496 9.749714 Z M 8.499496 9.749714 " stroke="#292d32" stroke-width="1.5" stroke-opacity="1" stroke-miterlimit="10"/><path stroke-linecap="round" transform="matrix(2.625, 0, 0, 2.625, 294.391948, 19.047626)" fill="none" stroke-linejoin="round" d="M 8.399793 13.300309 L 15.600686 13.300309 C 16.100686 13.300309 16.499495 13.700607 16.499495 14.200607 C 16.499495 16.69019 14.490567 18.700606 11.999496 18.700606 C 9.509912 18.700606 7.499496 16.69019 7.499496 14.200607 C 7.499496 13.700607 7.899793 13.300309 8.399793 13.300309 Z M 8.399793 13.300309 " stroke="#292d32" stroke-width="1.5" stroke-opacity="1" stroke-miterlimit="10"/><g clip-path="url(#05648a7312)"><g clip-path="url(#f12c6e136c)"><g clip-path="url(#5351d40339)"><g clip-path="url(#75857af0f1)"><path fill="#000000" d="M 301.542969 303.179688 C 301.410156 303.15625 301.320312 303.027344 301.34375 302.894531 C 301.34375 302.894531 302.0625 298.785156 302.0625 298.785156 C 302.128906 298.386719 301.863281 298.003906 301.460938 297.933594 L 299.042969 297.511719 C 298.640625 297.441406 298.257812 297.710938 298.1875 298.109375 L 297.472656 302.21875 C 297.449219 302.351562 297.320312 302.441406 297.1875 302.417969 C 297.1875 302.417969 293.078125 301.703125 293.078125 301.703125 C 292.675781 301.632812 292.296875 301.902344 292.226562 302.300781 L 291.804688 304.722656 C 291.734375 305.125 292 305.503906 292.402344 305.574219 L 296.511719 306.292969 C 296.644531 306.316406 296.734375 306.441406 296.710938 306.574219 C 296.710938 306.574219 295.992188 310.683594 295.992188 310.683594 C 295.925781 311.085938 296.191406 311.46875 296.59375 311.539062 L 299.015625 311.960938 C 299.414062 312.03125 299.796875 311.761719 299.867188 311.359375 L 300.582031 307.25 C 300.605469 307.117188 300.734375 307.027344 300.867188 307.050781 C 300.867188 307.050781 304.976562 307.769531 304.976562 307.769531 C 305.378906 307.839844 305.757812 307.570312 305.828125 307.167969 L 306.25 304.75 C 306.320312 304.347656 306.054688 303.964844 305.652344 303.898438 Z M 301.542969 303.179688 " fill-opacity="1" fill-rule="evenodd"/></g></g></g></g><g clip-path="url(#ae909dc2ca)"><g clip-path="url(#b9ab23bb5a)"><g clip-path="url(#f111a9208c)"><g clip-path="url(#a6fa1372be)"><path fill="#000000" d="M 65.9375 79.648438 C 65.804688 79.675781 65.671875 79.589844 65.644531 79.457031 C 65.644531 79.457031 64.796875 75.375 64.796875 75.375 C 64.714844 74.976562 64.324219 74.71875 63.925781 74.800781 L 61.523438 75.300781 C 61.121094 75.382812 60.867188 75.773438 60.949219 76.171875 L 61.796875 80.257812 C 61.824219 80.390625 61.738281 80.519531 61.605469 80.546875 C 61.605469 80.546875 57.523438 81.394531 57.523438 81.394531 C 57.125 81.476562 56.867188 81.867188 56.949219 82.265625 L 57.449219 84.671875 C 57.53125 85.070312 57.921875 85.324219 58.320312 85.242188 L 62.40625 84.394531 C 62.539062 84.367188 62.667969 84.453125 62.695312 84.585938 C 62.695312 84.585938 63.542969 88.671875 63.542969 88.671875 C 63.625 89.070312 64.015625 89.324219 64.414062 89.242188 L 66.820312 88.742188 C 67.21875 88.660156 67.472656 88.269531 67.390625 87.871094 L 66.542969 83.789062 C 66.515625 83.65625 66.601562 83.523438 66.734375 83.496094 C 66.734375 83.496094 70.820312 82.648438 70.820312 82.648438 C 71.21875 82.566406 71.472656 82.175781 71.390625 81.777344 L 70.890625 79.371094 C 70.808594 78.972656 70.417969 78.71875 70.019531 78.800781 Z M 65.9375 79.648438 " fill-opacity="1" fill-rule="evenodd"/></g></g></g></g><g clip-path="url(#9655cb1103)"><g clip-path="url(#92c838f591)"><g clip-path="url(#cc5a2acdad)"><g clip-path="url(#cd01febe66)"><path fill="#000000" d="M 262.148438 36.140625 C 262.015625 36.105469 261.9375 35.972656 261.972656 35.839844 C 261.972656 35.839844 263.046875 31.808594 263.046875 31.808594 C 263.152344 31.417969 262.917969 31.011719 262.527344 30.910156 L 260.152344 30.277344 C 259.757812 30.171875 259.355469 30.40625 259.25 30.796875 L 258.175781 34.828125 C 258.140625 34.960938 258.007812 35.039062 257.875 35.003906 C 257.875 35.003906 253.84375 33.929688 253.84375 33.929688 C 253.453125 33.824219 253.046875 34.058594 252.941406 34.449219 L 252.308594 36.824219 C 252.207031 37.21875 252.4375 37.621094 252.832031 37.726562 L 256.863281 38.800781 C 256.992188 38.835938 257.070312 38.96875 257.039062 39.101562 C 257.039062 39.101562 255.964844 43.132812 255.964844 43.132812 C 255.859375 43.523438 256.09375 43.929688 256.484375 44.035156 L 258.859375 44.667969 C 259.253906 44.769531 259.65625 44.539062 259.761719 44.144531 L 260.835938 40.113281 C 260.871094 39.984375 261.003906 39.90625 261.136719 39.941406 C 261.136719 39.941406 265.167969 41.011719 265.167969 41.011719 C 265.558594 41.117188 265.964844 40.882812 266.070312 40.492188 L 266.699219 38.117188 C 266.804688 37.722656 266.570312 37.320312 266.179688 37.214844 Z M 262.148438 36.140625 " fill-opacity="1" fill-rule="evenodd"/></g></g></g></g><g fill="#000000" fill-opacity="1"><g transform="translate(135.39691, 131.86358)"><g><path d="M 8.75 -4.265625 L 8.75 -2 L 0.765625 -5.203125 L 0.765625 -7.328125 L 8.75 -10.515625 L 8.75 -8.265625 L 3.71875 -6.359375 L 3.71875 -6.171875 Z M 8.75 -4.265625 "/></g></g></g><g fill="#000000" fill-opacity="1"><g transform="translate(145.145786, 131.86358)"><g><path d="M 7.0625 0.1875 C 5.875 0.1875 4.828125 -0.0546875 3.921875 -0.546875 C 3.015625 -1.046875 2.300781 -1.789062 1.78125 -2.78125 C 1.269531 -3.78125 1.015625 -5.007812 1.015625 -6.46875 C 1.015625 -7.914062 1.269531 -9.132812 1.78125 -10.125 C 2.300781 -11.125 3.015625 -11.867188 3.921875 -12.359375 C 4.828125 -12.859375 5.875 -13.109375 7.0625 -13.109375 C 8.3125 -13.109375 9.367188 -12.863281 10.234375 -12.375 C 11.109375 -11.894531 11.726562 -11.15625 12.09375 -10.15625 L 10.234375 -9.015625 L 10.015625 -9.03125 C 9.734375 -9.695312 9.351562 -10.175781 8.875 -10.46875 C 8.40625 -10.757812 7.800781 -10.90625 7.0625 -10.90625 C 5.988281 -10.90625 5.148438 -10.550781 4.546875 -9.84375 C 3.953125 -9.132812 3.65625 -8.007812 3.65625 -6.46875 C 3.65625 -4.925781 3.953125 -3.800781 4.546875 -3.09375 C 5.148438 -2.382812 5.988281 -2.03125 7.0625 -2.03125 C 8.738281 -2.03125 9.769531 -2.84375 10.15625 -4.46875 L 10.375 -4.46875 L 12.25 -3.5 C 11.894531 -2.269531 11.289062 -1.347656 10.4375 -0.734375 C 9.582031 -0.117188 8.457031 0.1875 7.0625 0.1875 Z M 7.0625 0.1875 "/></g></g></g><g fill="#000000" fill-opacity="1"><g transform="translate(157.820204, 131.86358)"><g><path d="M 4.171875 -8.015625 L 3.046875 -5.78125 L 1.21875 -7.125 L 2.96875 -8.828125 L 2.90625 -9.015625 L 0.484375 -9.375 L 1.1875 -11.5625 L 3.34375 -10.40625 L 3.5 -10.5 L 3.09375 -12.921875 L 5.390625 -12.921875 L 4.984375 -10.5 L 5.125 -10.40625 L 7.296875 -11.546875 L 8 -9.359375 L 5.59375 -9.015625 L 5.53125 -8.828125 L 7.265625 -7.125 L 5.421875 -5.78125 L 4.328125 -8.015625 Z M 4.171875 -8.015625 "/></g></g></g><g fill="#000000" fill-opacity="1"><g transform="translate(166.287492, 131.86358)"><g><path d="M 4.8125 0.1875 C 4.039062 0.1875 3.359375 0 2.765625 -0.375 C 2.179688 -0.75 1.71875 -1.3125 1.375 -2.0625 C 1.039062 -2.820312 0.875 -3.757812 0.875 -4.875 C 0.875 -5.988281 1.046875 -6.921875 1.390625 -7.671875 C 1.734375 -8.429688 2.207031 -9 2.8125 -9.375 C 3.425781 -9.75 4.132812 -9.9375 4.9375 -9.9375 C 5.550781 -9.9375 6.078125 -9.832031 6.515625 -9.625 C 6.960938 -9.414062 7.34375 -9.085938 7.65625 -8.640625 L 7.828125 -8.6875 L 7.828125 -13.671875 L 10.28125 -13.671875 L 10.28125 0 L 7.828125 0 L 7.828125 -1.265625 L 7.65625 -1.296875 C 7.375 -0.835938 7 -0.472656 6.53125 -0.203125 C 6.0625 0.0546875 5.488281 0.1875 4.8125 0.1875 Z M 5.609375 -1.890625 C 6.304688 -1.890625 6.851562 -2.132812 7.25 -2.625 C 7.65625 -3.125 7.859375 -3.875 7.859375 -4.875 C 7.859375 -5.875 7.65625 -6.617188 7.25 -7.109375 C 6.851562 -7.609375 6.304688 -7.859375 5.609375 -7.859375 C 4.890625 -7.859375 4.335938 -7.617188 3.953125 -7.140625 C 3.578125 -6.660156 3.390625 -5.90625 3.390625 -4.875 C 3.390625 -3.84375 3.578125 -3.085938 3.953125 -2.609375 C 4.335938 -2.128906 4.890625 -1.890625 5.609375 -1.890625 Z M 5.609375 -1.890625 "/></g></g></g><g fill="#000000" fill-opacity="1"><g transform="translate(177.971996, 131.86358)"><g><path d="M 9.640625 -4.328125 L 3.375 -4.328125 C 3.4375 -3.472656 3.675781 -2.851562 4.09375 -2.46875 C 4.507812 -2.082031 5.070312 -1.890625 5.78125 -1.890625 C 6.34375 -1.890625 6.796875 -1.992188 7.140625 -2.203125 C 7.492188 -2.410156 7.773438 -2.726562 7.984375 -3.15625 L 8.171875 -3.15625 L 9.796875 -2.109375 C 9.472656 -1.429688 8.988281 -0.878906 8.34375 -0.453125 C 7.707031 -0.0234375 6.851562 0.1875 5.78125 0.1875 C 4.769531 0.1875 3.894531 -0.00390625 3.15625 -0.390625 C 2.425781 -0.773438 1.863281 -1.34375 1.46875 -2.09375 C 1.070312 -2.851562 0.875 -3.78125 0.875 -4.875 C 0.875 -5.976562 1.082031 -6.910156 1.5 -7.671875 C 1.914062 -8.429688 2.476562 -9 3.1875 -9.375 C 3.90625 -9.75 4.710938 -9.9375 5.609375 -9.9375 C 6.984375 -9.9375 8.035156 -9.570312 8.765625 -8.84375 C 9.503906 -8.113281 9.875 -7.039062 9.875 -5.625 C 9.875 -5.113281 9.859375 -4.71875 9.828125 -4.4375 Z M 7.53125 -5.90625 C 7.507812 -6.644531 7.335938 -7.179688 7.015625 -7.515625 C 6.691406 -7.859375 6.222656 -8.03125 5.609375 -8.03125 C 4.367188 -8.03125 3.640625 -7.320312 3.421875 -5.90625 Z M 7.53125 -5.90625 "/></g></g></g><g fill="#000000" fill-opacity="1"><g transform="translate(188.572373, 131.86358)"><g><path d="M 7.03125 0 L 5.046875 0 L 0.5625 -12.921875 L 2.171875 -12.921875 L 5.96875 -1.90625 L 6.1875 -1.90625 L 9.9375 -12.921875 L 11.53125 -12.921875 Z M 7.03125 0 "/></g></g></g><g fill="#000000" fill-opacity="1"><g transform="translate(200.645772, 131.86358)"><g><path d="M 2.421875 -11.640625 C 2.117188 -11.640625 1.867188 -11.734375 1.671875 -11.921875 C 1.484375 -12.117188 1.390625 -12.363281 1.390625 -12.65625 C 1.390625 -12.945312 1.484375 -13.1875 1.671875 -13.375 C 1.867188 -13.570312 2.117188 -13.671875 2.421875 -13.671875 C 2.722656 -13.671875 2.96875 -13.570312 3.15625 -13.375 C 3.351562 -13.1875 3.453125 -12.945312 3.453125 -12.65625 C 3.453125 -12.363281 3.351562 -12.117188 3.15625 -11.921875 C 2.96875 -11.734375 2.722656 -11.640625 2.421875 -11.640625 Z M 1.703125 0 L 1.703125 -9.75 L 3.140625 -9.75 L 3.140625 0 Z M 1.703125 0 "/></g></g></g><g fill="#000000" fill-opacity="1"><g transform="translate(205.480439, 131.86358)"><g><path d="M 6.59375 -1.546875 L 7.0625 -0.515625 C 6.832031 -0.285156 6.53125 -0.113281 6.15625 0 C 5.78125 0.125 5.375 0.1875 4.9375 0.1875 C 3.070312 0.1875 2.140625 -0.753906 2.140625 -2.640625 L 2.140625 -8.578125 L 0.4375 -8.578125 L 0.4375 -9.765625 L 2.140625 -9.765625 L 2.140625 -11.828125 L 3.578125 -12.0625 L 3.578125 -9.765625 L 6.71875 -9.765625 L 6.71875 -8.578125 L 3.578125 -8.578125 L 3.578125 -2.78125 C 3.578125 -1.664062 4.066406 -1.109375 5.046875 -1.109375 C 5.578125 -1.109375 6.03125 -1.253906 6.40625 -1.546875 Z M 6.59375 -1.546875 "/></g></g></g><g fill="#000000" fill-opacity="1"><g transform="translate(212.904783, 131.86358)"><g><path d="M 4.015625 0.1875 C 3.054688 0.1875 2.304688 -0.0625 1.765625 -0.5625 C 1.234375 -1.0625 0.96875 -1.78125 0.96875 -2.71875 C 0.96875 -3.289062 1.085938 -3.773438 1.328125 -4.171875 C 1.566406 -4.578125 1.9375 -4.90625 2.4375 -5.15625 C 2.9375 -5.40625 3.585938 -5.597656 4.390625 -5.734375 C 5.097656 -5.847656 5.632812 -5.976562 6 -6.125 C 6.375 -6.269531 6.625 -6.429688 6.75 -6.609375 C 6.875 -6.796875 6.9375 -7.03125 6.9375 -7.3125 C 6.9375 -7.75 6.785156 -8.085938 6.484375 -8.328125 C 6.179688 -8.566406 5.691406 -8.6875 5.015625 -8.6875 C 4.390625 -8.6875 3.847656 -8.5625 3.390625 -8.3125 C 2.941406 -8.070312 2.53125 -7.707031 2.15625 -7.21875 L 1.984375 -7.21875 L 1.265625 -8.21875 C 1.679688 -8.75 2.207031 -9.164062 2.84375 -9.46875 C 3.476562 -9.78125 4.203125 -9.9375 5.015625 -9.9375 C 6.171875 -9.9375 7.019531 -9.679688 7.5625 -9.171875 C 8.101562 -8.671875 8.375 -7.976562 8.375 -7.09375 L 8.375 -1.921875 C 8.375 -1.378906 8.609375 -1.109375 9.078125 -1.109375 C 9.222656 -1.109375 9.367188 -1.132812 9.515625 -1.1875 L 9.640625 -1.15625 L 9.8125 -0.15625 C 9.695312 -0.0820312 9.550781 -0.0234375 9.375 0.015625 C 9.207031 0.0546875 9.03125 0.078125 8.84375 0.078125 C 8.3125 0.078125 7.90625 -0.0390625 7.625 -0.28125 C 7.351562 -0.519531 7.179688 -0.867188 7.109375 -1.328125 L 6.921875 -1.34375 C 6.648438 -0.832031 6.273438 -0.445312 5.796875 -0.1875 C 5.328125 0.0625 4.734375 0.1875 4.015625 0.1875 Z M 4.34375 -0.96875 C 4.882812 -0.96875 5.351562 -1.09375 5.75 -1.34375 C 6.144531 -1.59375 6.445312 -1.941406 6.65625 -2.390625 C 6.875 -2.847656 6.984375 -3.375 6.984375 -3.96875 L 6.984375 -5.203125 L 6.8125 -5.25 C 6.59375 -5.09375 6.328125 -4.960938 6.015625 -4.859375 C 5.703125 -4.753906 5.269531 -4.660156 4.71875 -4.578125 C 4.144531 -4.503906 3.691406 -4.382812 3.359375 -4.21875 C 3.023438 -4.0625 2.785156 -3.859375 2.640625 -3.609375 C 2.503906 -3.367188 2.4375 -3.070312 2.4375 -2.71875 C 2.4375 -2.144531 2.601562 -1.707031 2.9375 -1.40625 C 3.28125 -1.113281 3.75 -0.96875 4.34375 -0.96875 Z M 4.34375 -0.96875 "/></g></g></g><g fill="#000000" fill-opacity="1"><g transform="translate(222.989523, 131.86358)"><g><path d="M 1.609375 1.84375 L 0.21875 1.84375 L 5.046875 -13.671875 L 6.421875 -13.671875 Z M 1.609375 1.84375 "/></g></g></g><g fill="#000000" fill-opacity="1"><g transform="translate(229.980786, 131.86358)"><g><path d="M 8.703125 -5.6875 L 1.140625 -2.265625 L 1.140625 -3.75 L 6.75 -6.171875 L 6.75 -6.359375 L 1.140625 -8.765625 L 1.140625 -10.25 L 8.703125 -6.828125 Z M 8.703125 -5.6875 "/></g></g></g></svg>