<svg xmlns="http://www.w3.org/2000/svg" xmlns:xlink="http://www.w3.org/1999/xlink" width="500" zoomAndPan="magnify" viewBox="0 0 375 374.999991" height="500" preserveAspectRatio="xMidYMid meet" version="1.0"><path fill="#000000" d="M 39.257812 72.984375 C 38.984375 72.714844 38.691406 72.46875 38.371094 72.257812 C 38.050781 72.042969 37.710938 71.863281 37.355469 71.714844 C 37 71.566406 36.636719 71.457031 36.257812 71.382812 C 35.878906 71.304688 35.5 71.269531 35.113281 71.269531 C 34.730469 71.269531 34.347656 71.304688 33.972656 71.382812 C 33.59375 71.457031 33.226562 71.566406 32.871094 71.714844 C 32.515625 71.863281 32.179688 72.042969 31.859375 72.257812 C 31.539062 72.46875 31.242188 72.714844 30.972656 72.984375 L 26.476562 77.480469 L 21.984375 72.984375 C 21.710938 72.722656 21.414062 72.488281 21.09375 72.285156 C 20.773438 72.078125 20.4375 71.90625 20.085938 71.765625 C 19.730469 71.625 19.367188 71.523438 18.996094 71.453125 C 18.621094 71.382812 18.246094 71.351562 17.867188 71.355469 C 17.488281 71.359375 17.113281 71.398438 16.738281 71.476562 C 16.367188 71.554688 16.007812 71.664062 15.65625 71.8125 C 15.308594 71.960938 14.976562 72.140625 14.660156 72.351562 C 14.34375 72.5625 14.054688 72.804688 13.785156 73.070312 C 13.515625 73.339844 13.277344 73.632812 13.066406 73.945312 C 12.851562 74.261719 12.671875 74.59375 12.527344 74.945312 C 12.378906 75.292969 12.269531 75.65625 12.191406 76.027344 C 12.113281 76.398438 12.074219 76.773438 12.070312 77.152344 C 12.066406 77.53125 12.097656 77.910156 12.167969 78.28125 C 12.234375 78.65625 12.339844 79.019531 12.480469 79.371094 C 12.621094 79.722656 12.792969 80.058594 12.996094 80.378906 C 13.203125 80.699219 13.4375 80.996094 13.699219 81.269531 L 18.195312 85.765625 L 13.699219 90.257812 C 13.421875 90.53125 13.175781 90.824219 12.957031 91.144531 C 12.738281 91.464844 12.554688 91.804688 12.40625 92.160156 C 12.253906 92.515625 12.140625 92.886719 12.0625 93.265625 C 11.984375 93.644531 11.945312 94.027344 11.941406 94.414062 C 11.941406 94.800781 11.976562 95.183594 12.050781 95.5625 C 12.125 95.945312 12.234375 96.3125 12.382812 96.671875 C 12.53125 97.027344 12.710938 97.367188 12.925781 97.691406 C 13.140625 98.011719 13.386719 98.3125 13.660156 98.585938 C 13.933594 98.859375 14.230469 99.101562 14.550781 99.316406 C 14.875 99.53125 15.214844 99.714844 15.574219 99.859375 C 15.929688 100.007812 16.300781 100.117188 16.679688 100.191406 C 17.058594 100.265625 17.441406 100.300781 17.828125 100.300781 C 18.21875 100.300781 18.601562 100.257812 18.980469 100.179688 C 19.359375 100.105469 19.726562 99.988281 20.082031 99.839844 C 20.4375 99.6875 20.777344 99.503906 21.097656 99.285156 C 21.417969 99.070312 21.714844 98.820312 21.984375 98.546875 L 26.480469 94.050781 L 30.972656 98.546875 C 31.242188 98.824219 31.539062 99.074219 31.859375 99.296875 C 32.179688 99.515625 32.519531 99.703125 32.875 99.859375 C 33.234375 100.011719 33.601562 100.128906 33.984375 100.207031 C 34.363281 100.289062 34.746094 100.332031 35.136719 100.332031 C 35.527344 100.335938 35.910156 100.300781 36.292969 100.226562 C 36.675781 100.15625 37.046875 100.042969 37.40625 99.898438 C 37.765625 99.75 38.109375 99.570312 38.433594 99.351562 C 38.757812 99.136719 39.054688 98.890625 39.332031 98.617188 C 39.605469 98.34375 39.851562 98.042969 40.066406 97.71875 C 40.28125 97.394531 40.464844 97.054688 40.609375 96.691406 C 40.757812 96.332031 40.867188 95.960938 40.941406 95.578125 C 41.015625 95.199219 41.050781 94.8125 41.046875 94.421875 C 41.042969 94.035156 41 93.648438 40.921875 93.269531 C 40.839844 92.886719 40.726562 92.519531 40.570312 92.160156 C 40.417969 91.804688 40.230469 91.464844 40.007812 91.144531 C 39.789062 90.824219 39.539062 90.53125 39.257812 90.257812 L 34.761719 85.765625 L 39.257812 81.269531 C 39.53125 80.996094 39.773438 80.703125 39.984375 80.382812 C 40.199219 80.0625 40.378906 79.722656 40.527344 79.367188 C 40.675781 79.011719 40.785156 78.648438 40.859375 78.269531 C 40.9375 77.894531 40.972656 77.511719 40.972656 77.128906 C 40.972656 76.742188 40.9375 76.363281 40.859375 75.984375 C 40.785156 75.605469 40.675781 75.242188 40.527344 74.886719 C 40.378906 74.53125 40.199219 74.191406 39.984375 73.871094 C 39.773438 73.554688 39.53125 73.257812 39.257812 72.984375 Z M 39.257812 72.984375 " fill-opacity="1" fill-rule="nonzero"/><path fill="#000000" d="M 328.125 328.125 C 327.550781 328.125 326.976562 328.152344 326.402344 328.210938 C 325.828125 328.265625 325.261719 328.351562 324.695312 328.460938 C 324.132812 328.574219 323.574219 328.714844 323.023438 328.882812 C 322.472656 329.050781 321.929688 329.242188 321.398438 329.464844 C 320.867188 329.683594 320.347656 329.929688 319.839844 330.199219 C 319.332031 330.472656 318.835938 330.769531 318.359375 331.085938 C 317.878906 331.40625 317.417969 331.75 316.972656 332.113281 C 316.527344 332.480469 316.101562 332.867188 315.695312 333.273438 C 315.289062 333.679688 314.902344 334.105469 314.535156 334.550781 C 314.171875 334.996094 313.828125 335.457031 313.507812 335.9375 C 313.1875 336.414062 312.894531 336.910156 312.621094 337.417969 C 312.351562 337.925781 312.105469 338.445312 311.886719 338.976562 C 311.664062 339.507812 311.472656 340.050781 311.304688 340.601562 C 311.136719 341.152344 310.996094 341.710938 310.882812 342.273438 C 310.773438 342.839844 310.6875 343.40625 310.632812 343.980469 C 310.574219 344.554688 310.546875 345.128906 310.546875 345.703125 C 310.546875 346.277344 310.574219 346.851562 310.632812 347.425781 C 310.6875 348 310.773438 348.566406 310.882812 349.132812 C 310.996094 349.695312 311.136719 350.253906 311.304688 350.804688 C 311.472656 351.355469 311.664062 351.898438 311.886719 352.429688 C 312.105469 352.960938 312.351562 353.480469 312.621094 353.988281 C 312.894531 354.496094 313.1875 354.992188 313.507812 355.46875 C 313.828125 355.949219 314.171875 356.410156 314.535156 356.855469 C 314.902344 357.300781 315.289062 357.726562 315.695312 358.132812 C 316.101562 358.539062 316.527344 358.925781 316.972656 359.292969 C 317.417969 359.65625 317.878906 360 318.359375 360.320312 C 318.835938 360.636719 319.332031 360.933594 319.839844 361.207031 C 320.347656 361.476562 320.867188 361.722656 321.398438 361.941406 C 321.929688 362.164062 322.472656 362.355469 323.023438 362.523438 C 323.574219 362.691406 324.132812 362.832031 324.695312 362.945312 C 325.261719 363.054688 325.828125 363.140625 326.402344 363.195312 C 326.976562 363.253906 327.550781 363.28125 328.125 363.28125 C 328.699219 363.28125 329.273438 363.253906 329.847656 363.195312 C 330.421875 363.140625 330.988281 363.054688 331.554688 362.945312 C 332.117188 362.832031 332.675781 362.691406 333.226562 362.523438 C 333.777344 362.355469 334.320312 362.164062 334.851562 361.941406 C 335.382812 361.722656 335.902344 361.476562 336.410156 361.207031 C 336.917969 360.933594 337.414062 360.636719 337.890625 360.320312 C 338.371094 360 338.832031 359.65625 339.277344 359.292969 C 339.722656 358.925781 340.148438 358.539062 340.554688 358.132812 C 340.960938 357.726562 341.347656 357.300781 341.714844 356.855469 C 342.078125 356.410156 342.421875 355.949219 342.742188 355.46875 C 343.058594 354.992188 343.355469 354.496094 343.628906 353.988281 C 343.898438 353.480469 344.144531 352.960938 344.363281 352.429688 C 344.585938 351.898438 344.777344 351.355469 344.945312 350.804688 C 345.113281 350.253906 345.253906 349.695312 345.367188 349.132812 C 345.476562 348.566406 345.5625 348 345.617188 347.425781 C 345.675781 346.851562 345.703125 346.277344 345.703125 345.703125 C 345.703125 345.128906 345.671875 344.554688 345.617188 343.980469 C 345.558594 343.40625 345.476562 342.839844 345.363281 342.273438 C 345.25 341.710938 345.109375 341.152344 344.941406 340.601562 C 344.773438 340.050781 344.582031 339.511719 344.359375 338.980469 C 344.140625 338.449219 343.894531 337.929688 343.621094 337.421875 C 343.351562 336.914062 343.054688 336.421875 342.734375 335.941406 C 342.414062 335.464844 342.074219 335 341.707031 334.558594 C 341.34375 334.113281 340.957031 333.6875 340.550781 333.277344 C 340.140625 332.871094 339.714844 332.484375 339.269531 332.121094 C 338.828125 331.753906 338.363281 331.414062 337.886719 331.09375 C 337.40625 330.773438 336.914062 330.476562 336.40625 330.207031 C 335.898438 329.933594 335.378906 329.6875 334.847656 329.46875 C 334.316406 329.246094 333.777344 329.054688 333.226562 328.886719 C 332.675781 328.71875 332.117188 328.578125 331.554688 328.464844 C 330.988281 328.351562 330.421875 328.269531 329.847656 328.210938 C 329.273438 328.15625 328.699219 328.125 328.125 328.125 Z M 328.125 351.5625 C 327.742188 351.5625 327.359375 351.523438 326.980469 351.449219 C 326.605469 351.375 326.238281 351.261719 325.882812 351.117188 C 325.527344 350.96875 325.191406 350.789062 324.871094 350.574219 C 324.550781 350.359375 324.253906 350.117188 323.980469 349.847656 C 323.710938 349.574219 323.46875 349.277344 323.253906 348.957031 C 323.039062 348.636719 322.859375 348.300781 322.710938 347.945312 C 322.5625 347.589844 322.453125 347.222656 322.378906 346.847656 C 322.304688 346.46875 322.265625 346.085938 322.265625 345.703125 C 322.265625 345.320312 322.304688 344.9375 322.378906 344.558594 C 322.453125 344.183594 322.5625 343.816406 322.710938 343.460938 C 322.859375 343.105469 323.039062 342.769531 323.253906 342.449219 C 323.46875 342.128906 323.710938 341.832031 323.980469 341.558594 C 324.253906 341.289062 324.550781 341.042969 324.871094 340.832031 C 325.191406 340.617188 325.527344 340.4375 325.882812 340.289062 C 326.238281 340.140625 326.605469 340.03125 326.980469 339.957031 C 327.359375 339.882812 327.742188 339.84375 328.125 339.84375 C 328.507812 339.84375 328.890625 339.882812 329.269531 339.957031 C 329.644531 340.03125 330.011719 340.140625 330.367188 340.289062 C 330.722656 340.4375 331.058594 340.617188 331.378906 340.832031 C 331.699219 341.046875 331.996094 341.289062 332.269531 341.558594 C 332.539062 341.832031 332.78125 342.128906 332.996094 342.449219 C 333.210938 342.769531 333.390625 343.105469 333.539062 343.460938 C 333.683594 343.816406 333.796875 344.183594 333.871094 344.558594 C 333.945312 344.9375 333.984375 345.320312 333.984375 345.703125 C 333.984375 346.085938 333.945312 346.46875 333.871094 346.847656 C 333.796875 347.222656 333.683594 347.589844 333.535156 347.945312 C 333.390625 348.300781 333.207031 348.636719 332.996094 348.957031 C 332.78125 349.277344 332.539062 349.574219 332.265625 349.84375 C 331.996094 350.117188 331.699219 350.359375 331.378906 350.574219 C 331.058594 350.785156 330.722656 350.96875 330.367188 351.113281 C 330.011719 351.261719 329.644531 351.375 329.269531 351.449219 C 328.890625 351.523438 328.507812 351.5625 328.125 351.5625 Z M 328.125 351.5625 " fill-opacity="1" fill-rule="nonzero"/><path fill="#000000" d="M 351.5625 281.25 C 351.5625 281.632812 351.523438 282.015625 351.449219 282.394531 C 351.375 282.769531 351.261719 283.136719 351.117188 283.492188 C 350.96875 283.847656 350.789062 284.183594 350.574219 284.503906 C 350.359375 284.824219 350.117188 285.121094 349.847656 285.394531 C 349.574219 285.664062 349.277344 285.90625 348.957031 286.121094 C 348.636719 286.335938 348.300781 286.515625 347.945312 286.664062 C 347.589844 286.808594 347.222656 286.921875 346.847656 286.996094 C 346.46875 287.070312 346.085938 287.109375 345.703125 287.109375 C 345.320312 287.109375 344.9375 287.070312 344.558594 286.996094 C 344.183594 286.921875 343.816406 286.808594 343.460938 286.664062 C 343.105469 286.515625 342.769531 286.335938 342.449219 286.121094 C 342.128906 285.90625 341.832031 285.664062 341.558594 285.394531 C 341.289062 285.121094 341.046875 284.824219 340.832031 284.503906 C 340.617188 284.183594 340.4375 283.847656 340.289062 283.492188 C 340.140625 283.136719 340.03125 282.769531 339.957031 282.394531 C 339.882812 282.015625 339.84375 281.632812 339.84375 281.25 C 339.84375 280.867188 339.882812 280.484375 339.957031 280.105469 C 340.03125 279.730469 340.140625 279.363281 340.289062 279.007812 C 340.4375 278.652344 340.617188 278.316406 340.832031 277.996094 C 341.046875 277.675781 341.289062 277.378906 341.558594 277.105469 C 341.832031 276.835938 342.128906 276.59375 342.449219 276.378906 C 342.769531 276.164062 343.105469 275.984375 343.460938 275.835938 C 343.816406 275.6875 344.183594 275.578125 344.558594 275.503906 C 344.9375 275.429688 345.320312 275.390625 345.703125 275.390625 C 346.085938 275.390625 346.46875 275.429688 346.847656 275.503906 C 347.222656 275.578125 347.589844 275.6875 347.945312 275.835938 C 348.300781 275.984375 348.636719 276.164062 348.957031 276.378906 C 349.277344 276.589844 349.574219 276.835938 349.847656 277.105469 C 350.117188 277.378906 350.359375 277.675781 350.574219 277.996094 C 350.789062 278.316406 350.96875 278.652344 351.117188 279.007812 C 351.261719 279.363281 351.375 279.730469 351.449219 280.105469 C 351.523438 280.484375 351.5625 280.867188 351.5625 281.25 Z M 351.5625 281.25 " fill-opacity="1" fill-rule="nonzero"/><path fill="#000000" d="M 175.78125 257.8125 C 175.78125 258.195312 175.742188 258.578125 175.667969 258.957031 C 175.59375 259.332031 175.484375 259.699219 175.335938 260.054688 C 175.1875 260.410156 175.007812 260.746094 174.792969 261.066406 C 174.578125 261.386719 174.335938 261.683594 174.066406 261.957031 C 173.792969 262.226562 173.496094 262.46875 173.175781 262.683594 C 172.855469 262.898438 172.519531 263.078125 172.164062 263.226562 C 171.808594 263.371094 171.441406 263.484375 171.066406 263.558594 C 170.6875 263.632812 170.304688 263.671875 169.921875 263.671875 C 169.539062 263.671875 169.15625 263.632812 168.777344 263.558594 C 168.402344 263.484375 168.035156 263.375 167.679688 263.226562 C 167.324219 263.078125 166.988281 262.898438 166.667969 262.683594 C 166.347656 262.46875 166.050781 262.226562 165.777344 261.957031 C 165.507812 261.683594 165.265625 261.386719 165.050781 261.066406 C 164.835938 260.746094 164.65625 260.410156 164.507812 260.054688 C 164.359375 259.699219 164.25 259.332031 164.175781 258.957031 C 164.101562 258.578125 164.0625 258.195312 164.0625 257.8125 C 164.0625 257.429688 164.101562 257.046875 164.175781 256.667969 C 164.25 256.292969 164.359375 255.925781 164.507812 255.570312 C 164.65625 255.214844 164.835938 254.878906 165.050781 254.558594 C 165.265625 254.238281 165.507812 253.941406 165.777344 253.667969 C 166.050781 253.398438 166.347656 253.15625 166.667969 252.941406 C 166.988281 252.726562 167.324219 252.546875 167.679688 252.398438 C 168.035156 252.25 168.402344 252.140625 168.777344 252.066406 C 169.15625 251.992188 169.539062 251.953125 169.921875 251.953125 C 170.304688 251.953125 170.6875 251.992188 171.066406 252.066406 C 171.441406 252.140625 171.808594 252.25 172.164062 252.398438 C 172.519531 252.546875 172.855469 252.726562 173.175781 252.941406 C 173.496094 253.15625 173.792969 253.398438 174.066406 253.667969 C 174.335938 253.941406 174.578125 254.238281 174.792969 254.558594 C 175.007812 254.878906 175.1875 255.214844 175.335938 255.570312 C 175.484375 255.925781 175.59375 256.292969 175.667969 256.667969 C 175.742188 257.046875 175.78125 257.429688 175.78125 257.8125 Z M 175.78125 257.8125 " fill-opacity="1" fill-rule="nonzero"/><path fill="#000000" d="M 210.9375 257.8125 C 210.9375 258.195312 210.898438 258.578125 210.824219 258.957031 C 210.75 259.332031 210.640625 259.699219 210.492188 260.054688 C 210.34375 260.410156 210.164062 260.746094 209.949219 261.066406 C 209.734375 261.386719 209.492188 261.683594 209.222656 261.957031 C 208.949219 262.226562 208.652344 262.46875 208.332031 262.683594 C 208.011719 262.898438 207.675781 263.078125 207.320312 263.226562 C 206.964844 263.371094 206.597656 263.484375 206.222656 263.558594 C 205.84375 263.632812 205.460938 263.671875 205.078125 263.671875 C 204.695312 263.671875 204.3125 263.632812 203.933594 263.558594 C 203.558594 263.484375 203.191406 263.375 202.835938 263.226562 C 202.480469 263.078125 202.144531 262.898438 201.824219 262.683594 C 201.503906 262.46875 201.207031 262.226562 200.933594 261.957031 C 200.664062 261.683594 200.421875 261.386719 200.207031 261.066406 C 199.992188 260.746094 199.8125 260.410156 199.664062 260.054688 C 199.515625 259.699219 199.40625 259.332031 199.332031 258.957031 C 199.257812 258.578125 199.21875 258.195312 199.21875 257.8125 C 199.21875 257.429688 199.257812 257.046875 199.332031 256.667969 C 199.40625 256.292969 199.515625 255.925781 199.664062 255.570312 C 199.8125 255.214844 199.992188 254.878906 200.207031 254.558594 C 200.421875 254.238281 200.664062 253.941406 200.933594 253.667969 C 201.207031 253.398438 201.503906 253.15625 201.824219 252.941406 C 202.144531 252.726562 202.480469 252.546875 202.835938 252.398438 C 203.191406 252.25 203.558594 252.140625 203.933594 252.066406 C 204.3125 251.992188 204.695312 251.953125 205.078125 251.953125 C 205.460938 251.953125 205.84375 251.992188 206.222656 252.066406 C 206.597656 252.140625 206.964844 252.25 207.320312 252.398438 C 207.675781 252.546875 208.011719 252.726562 208.332031 252.941406 C 208.652344 253.15625 208.949219 253.398438 209.222656 253.667969 C 209.492188 253.941406 209.734375 254.238281 209.949219 254.558594 C 210.164062 254.878906 210.34375 255.214844 210.492188 255.570312 C 210.640625 255.925781 210.75 256.292969 210.824219 256.667969 C 210.898438 257.046875 210.9375 257.429688 210.9375 257.8125 Z M 210.9375 257.8125 " fill-opacity="1" fill-rule="nonzero"/><path fill="#000000" d="M 193.359375 257.8125 C 193.359375 258.195312 193.320312 258.578125 193.246094 258.957031 C 193.171875 259.332031 193.0625 259.699219 192.914062 260.054688 C 192.765625 260.410156 192.585938 260.746094 192.371094 261.066406 C 192.15625 261.386719 191.914062 261.683594 191.644531 261.957031 C 191.371094 262.226562 191.074219 262.46875 190.753906 262.683594 C 190.433594 262.898438 190.097656 263.078125 189.742188 263.226562 C 189.386719 263.371094 189.019531 263.484375 188.644531 263.558594 C 188.265625 263.632812 187.882812 263.671875 187.5 263.671875 C 187.117188 263.671875 186.734375 263.632812 186.355469 263.558594 C 185.980469 263.484375 185.613281 263.375 185.257812 263.226562 C 184.902344 263.078125 184.566406 262.898438 184.246094 262.683594 C 183.925781 262.46875 183.628906 262.226562 183.355469 261.957031 C 183.085938 261.683594 182.84375 261.386719 182.628906 261.066406 C 182.414062 260.746094 182.234375 260.410156 182.085938 260.054688 C 181.9375 259.699219 181.828125 259.332031 181.753906 258.957031 C 181.679688 258.578125 181.640625 258.195312 181.640625 257.8125 C 181.640625 257.429688 181.679688 257.046875 181.753906 256.667969 C 181.828125 256.292969 181.9375 255.925781 182.085938 255.570312 C 182.234375 255.214844 182.414062 254.878906 182.628906 254.558594 C 182.84375 254.238281 183.085938 253.941406 183.355469 253.667969 C 183.628906 253.398438 183.925781 253.15625 184.246094 252.941406 C 184.566406 252.726562 184.902344 252.546875 185.257812 252.398438 C 185.613281 252.25 185.980469 252.140625 186.355469 252.066406 C 186.734375 251.992188 187.117188 251.953125 187.5 251.953125 C 187.882812 251.953125 188.265625 251.992188 188.644531 252.066406 C 189.019531 252.140625 189.386719 252.25 189.742188 252.398438 C 190.097656 252.546875 190.433594 252.726562 190.753906 252.941406 C 191.074219 253.15625 191.371094 253.398438 191.644531 253.667969 C 191.914062 253.941406 192.15625 254.238281 192.371094 254.558594 C 192.585938 254.878906 192.765625 255.214844 192.914062 255.570312 C 193.0625 255.925781 193.171875 256.292969 193.246094 256.667969 C 193.320312 257.046875 193.359375 257.429688 193.359375 257.8125 Z M 193.359375 257.8125 " fill-opacity="1" fill-rule="nonzero"/><path fill="#000000" d="M 175.78125 275.390625 C 175.78125 275.773438 175.742188 276.15625 175.667969 276.535156 C 175.59375 276.910156 175.484375 277.277344 175.335938 277.632812 C 175.1875 277.988281 175.007812 278.324219 174.792969 278.644531 C 174.578125 278.964844 174.335938 279.261719 174.066406 279.535156 C 173.792969 279.804688 173.496094 280.046875 173.175781 280.261719 C 172.855469 280.476562 172.519531 280.65625 172.164062 280.804688 C 171.808594 280.949219 171.441406 281.0625 171.066406 281.136719 C 170.6875 281.210938 170.304688 281.25 169.921875 281.25 C 169.539062 281.25 169.15625 281.210938 168.777344 281.136719 C 168.402344 281.0625 168.035156 280.949219 167.679688 280.804688 C 167.324219 280.65625 166.988281 280.476562 166.667969 280.261719 C 166.347656 280.046875 166.050781 279.804688 165.777344 279.535156 C 165.507812 279.261719 165.265625 278.964844 165.050781 278.644531 C 164.835938 278.324219 164.65625 277.988281 164.507812 277.632812 C 164.359375 277.277344 164.25 276.910156 164.175781 276.535156 C 164.101562 276.15625 164.0625 275.773438 164.0625 275.390625 C 164.0625 275.007812 164.101562 274.625 164.175781 274.246094 C 164.25 273.871094 164.359375 273.503906 164.507812 273.148438 C 164.65625 272.792969 164.835938 272.457031 165.050781 272.136719 C 165.265625 271.816406 165.507812 271.519531 165.777344 271.246094 C 166.050781 270.976562 166.347656 270.734375 166.667969 270.519531 C 166.988281 270.304688 167.324219 270.125 167.679688 269.976562 C 168.035156 269.828125 168.402344 269.71875 168.777344 269.644531 C 169.15625 269.570312 169.539062 269.53125 169.921875 269.53125 C 170.304688 269.53125 170.6875 269.570312 171.066406 269.644531 C 171.441406 269.71875 171.808594 269.828125 172.164062 269.976562 C 172.519531 270.125 172.855469 270.304688 173.175781 270.519531 C 173.496094 270.734375 173.792969 270.976562 174.066406 271.246094 C 174.335938 271.519531 174.578125 271.816406 174.792969 272.136719 C 175.007812 272.457031 175.1875 272.792969 175.335938 273.148438 C 175.484375 273.503906 175.59375 273.871094 175.667969 274.246094 C 175.742188 274.625 175.78125 275.007812 175.78125 275.390625 Z M 175.78125 275.390625 " fill-opacity="1" fill-rule="nonzero"/><path fill="#000000" d="M 210.9375 275.390625 C 210.9375 275.773438 210.898438 276.15625 210.824219 276.535156 C 210.75 276.910156 210.640625 277.277344 210.492188 277.632812 C 210.34375 277.988281 210.164062 278.324219 209.949219 278.644531 C 209.734375 278.964844 209.492188 279.261719 209.222656 279.535156 C 208.949219 279.804688 208.652344 280.046875 208.332031 280.261719 C 208.011719 280.476562 207.675781 280.65625 207.320312 280.804688 C 206.964844 280.949219 206.597656 281.0625 206.222656 281.136719 C 205.84375 281.210938 205.460938 281.25 205.078125 281.25 C 204.695312 281.25 204.3125 281.210938 203.933594 281.136719 C 203.558594 281.0625 203.191406 280.949219 202.835938 280.804688 C 202.480469 280.65625 202.144531 280.476562 201.824219 280.261719 C 201.503906 280.046875 201.207031 279.804688 200.933594 279.535156 C 200.664062 279.261719 200.421875 278.964844 200.207031 278.644531 C 199.992188 278.324219 199.8125 277.988281 199.664062 277.632812 C 199.515625 277.277344 199.40625 276.910156 199.332031 276.535156 C 199.257812 276.15625 199.21875 275.773438 199.21875 275.390625 C 199.21875 275.007812 199.257812 274.625 199.332031 274.246094 C 199.40625 273.871094 199.515625 273.503906 199.664062 273.148438 C 199.8125 272.792969 199.992188 272.457031 200.207031 272.136719 C 200.421875 271.816406 200.664062 271.519531 200.933594 271.246094 C 201.207031 270.976562 201.503906 270.734375 201.824219 270.519531 C 202.144531 270.304688 202.480469 270.125 202.835938 269.976562 C 203.191406 269.828125 203.558594 269.71875 203.933594 269.644531 C 204.3125 269.570312 204.695312 269.53125 205.078125 269.53125 C 205.460938 269.53125 205.84375 269.570312 206.222656 269.644531 C 206.597656 269.71875 206.964844 269.828125 207.320312 269.976562 C 207.675781 270.125 208.011719 270.304688 208.332031 270.519531 C 208.652344 270.734375 208.949219 270.976562 209.222656 271.246094 C 209.492188 271.519531 209.734375 271.816406 209.949219 272.136719 C 210.164062 272.457031 210.34375 272.792969 210.492188 273.148438 C 210.640625 273.503906 210.75 273.871094 210.824219 274.246094 C 210.898438 274.625 210.9375 275.007812 210.9375 275.390625 Z M 210.9375 275.390625 " fill-opacity="1" fill-rule="nonzero"/><path fill="#000000" d="M 193.359375 275.390625 C 193.359375 275.773438 193.320312 276.15625 193.246094 276.535156 C 193.171875 276.910156 193.0625 277.277344 192.914062 277.632812 C 192.765625 277.988281 192.585938 278.324219 192.371094 278.644531 C 192.15625 278.964844 191.914062 279.261719 191.644531 279.535156 C 191.371094 279.804688 191.074219 280.046875 190.753906 280.261719 C 190.433594 280.476562 190.097656 280.65625 189.742188 280.804688 C 189.386719 280.949219 189.019531 281.0625 188.644531 281.136719 C 188.265625 281.210938 187.882812 281.25 187.5 281.25 C 187.117188 281.25 186.734375 281.210938 186.355469 281.136719 C 185.980469 281.0625 185.613281 280.949219 185.257812 280.804688 C 184.902344 280.65625 184.566406 280.476562 184.246094 280.261719 C 183.925781 280.046875 183.628906 279.804688 183.355469 279.535156 C 183.085938 279.261719 182.84375 278.964844 182.628906 278.644531 C 182.414062 278.324219 182.234375 277.988281 182.085938 277.632812 C 181.9375 277.277344 181.828125 276.910156 181.753906 276.535156 C 181.679688 276.15625 181.640625 275.773438 181.640625 275.390625 C 181.640625 275.007812 181.679688 274.625 181.753906 274.246094 C 181.828125 273.871094 181.9375 273.503906 182.085938 273.148438 C 182.234375 272.792969 182.414062 272.457031 182.628906 272.136719 C 182.84375 271.816406 183.085938 271.519531 183.355469 271.246094 C 183.628906 270.976562 183.925781 270.734375 184.246094 270.519531 C 184.566406 270.304688 184.902344 270.125 185.257812 269.976562 C 185.613281 269.828125 185.980469 269.71875 186.355469 269.644531 C 186.734375 269.570312 187.117188 269.53125 187.5 269.53125 C 187.882812 269.53125 188.265625 269.570312 188.644531 269.644531 C 189.019531 269.71875 189.386719 269.828125 189.742188 269.976562 C 190.097656 270.125 190.433594 270.304688 190.753906 270.519531 C 191.074219 270.734375 191.371094 270.976562 191.644531 271.246094 C 191.914062 271.519531 192.15625 271.816406 192.371094 272.136719 C 192.585938 272.457031 192.765625 272.792969 192.914062 273.148438 C 193.0625 273.503906 193.171875 273.871094 193.246094 274.246094 C 193.320312 274.625 193.359375 275.007812 193.359375 275.390625 Z M 193.359375 275.390625 " fill-opacity="1" fill-rule="nonzero"/><path fill="#000000" d="M 175.78125 292.96875 C 175.78125 293.351562 175.742188 293.734375 175.667969 294.113281 C 175.59375 294.488281 175.484375 294.855469 175.335938 295.210938 C 175.1875 295.566406 175.007812 295.902344 174.792969 296.222656 C 174.578125 296.542969 174.335938 296.839844 174.066406 297.113281 C 173.792969 297.382812 173.496094 297.625 173.175781 297.839844 C 172.855469 298.054688 172.519531 298.234375 172.164062 298.382812 C 171.808594 298.527344 171.441406 298.640625 171.066406 298.714844 C 170.6875 298.789062 170.304688 298.828125 169.921875 298.828125 C 169.539062 298.828125 169.15625 298.789062 168.777344 298.714844 C 168.402344 298.640625 168.035156 298.53125 167.679688 298.382812 C 167.324219 298.234375 166.988281 298.054688 166.667969 297.839844 C 166.347656 297.625 166.050781 297.382812 165.777344 297.113281 C 165.507812 296.839844 165.265625 296.542969 165.050781 296.222656 C 164.835938 295.902344 164.65625 295.566406 164.507812 295.210938 C 164.359375 294.855469 164.25 294.488281 164.175781 294.113281 C 164.101562 293.734375 164.0625 293.351562 164.0625 292.96875 C 164.0625 292.585938 164.101562 292.203125 164.175781 291.824219 C 164.25 291.449219 164.359375 291.082031 164.507812 290.726562 C 164.65625 290.371094 164.835938 290.035156 165.050781 289.714844 C 165.265625 289.394531 165.507812 289.097656 165.777344 288.824219 C 166.050781 288.554688 166.347656 288.308594 166.667969 288.097656 C 166.988281 287.882812 167.324219 287.703125 167.679688 287.554688 C 168.035156 287.40625 168.402344 287.296875 168.777344 287.222656 C 169.15625 287.148438 169.539062 287.109375 169.921875 287.109375 C 170.304688 287.109375 170.6875 287.148438 171.066406 287.222656 C 171.441406 287.296875 171.808594 287.40625 172.164062 287.554688 C 172.519531 287.703125 172.855469 287.882812 173.175781 288.097656 C 173.496094 288.3125 173.792969 288.554688 174.066406 288.824219 C 174.335938 289.097656 174.578125 289.394531 174.792969 289.714844 C 175.007812 290.035156 175.1875 290.371094 175.335938 290.726562 C 175.484375 291.082031 175.59375 291.449219 175.667969 291.824219 C 175.742188 292.203125 175.78125 292.585938 175.78125 292.96875 Z M 175.78125 292.96875 " fill-opacity="1" fill-rule="nonzero"/><path fill="#000000" d="M 210.9375 292.96875 C 210.9375 293.351562 210.898438 293.734375 210.824219 294.113281 C 210.75 294.488281 210.640625 294.855469 210.492188 295.210938 C 210.34375 295.566406 210.164062 295.902344 209.949219 296.222656 C 209.734375 296.542969 209.492188 296.839844 209.222656 297.113281 C 208.949219 297.382812 208.652344 297.625 208.332031 297.839844 C 208.011719 298.054688 207.675781 298.234375 207.320312 298.382812 C 206.964844 298.527344 206.597656 298.640625 206.222656 298.714844 C 205.84375 298.789062 205.460938 298.828125 205.078125 298.828125 C 204.695312 298.828125 204.3125 298.789062 203.933594 298.714844 C 203.558594 298.640625 203.191406 298.53125 202.835938 298.382812 C 202.480469 298.234375 202.144531 298.054688 201.824219 297.839844 C 201.503906 297.625 201.207031 297.382812 200.933594 297.113281 C 200.664062 296.839844 200.421875 296.542969 200.207031 296.222656 C 199.992188 295.902344 199.8125 295.566406 199.664062 295.210938 C 199.515625 294.855469 199.40625 294.488281 199.332031 294.113281 C 199.257812 293.734375 199.21875 293.351562 199.21875 292.96875 C 199.21875 292.585938 199.257812 292.203125 199.332031 291.824219 C 199.40625 291.449219 199.515625 291.082031 199.664062 290.726562 C 199.8125 290.371094 199.992188 290.035156 200.207031 289.714844 C 200.421875 289.394531 200.664062 289.097656 200.933594 288.824219 C 201.207031 288.554688 201.503906 288.308594 201.824219 288.097656 C 202.144531 287.882812 202.480469 287.703125 202.835938 287.554688 C 203.191406 287.40625 203.558594 287.296875 203.933594 287.222656 C 204.3125 287.148438 204.695312 287.109375 205.078125 287.109375 C 205.460938 287.109375 205.84375 287.148438 206.222656 287.222656 C 206.597656 287.296875 206.964844 287.40625 207.320312 287.554688 C 207.675781 287.703125 208.011719 287.882812 208.332031 288.097656 C 208.652344 288.3125 208.949219 288.554688 209.222656 288.824219 C 209.492188 289.097656 209.734375 289.394531 209.949219 289.714844 C 210.164062 290.035156 210.34375 290.371094 210.492188 290.726562 C 210.640625 291.082031 210.75 291.449219 210.824219 291.824219 C 210.898438 292.203125 210.9375 292.585938 210.9375 292.96875 Z M 210.9375 292.96875 " fill-opacity="1" fill-rule="nonzero"/><path fill="#000000" d="M 193.359375 292.96875 C 193.359375 293.351562 193.320312 293.734375 193.246094 294.113281 C 193.171875 294.488281 193.0625 294.855469 192.914062 295.210938 C 192.765625 295.566406 192.585938 295.902344 192.371094 296.222656 C 192.15625 296.542969 191.914062 296.839844 191.644531 297.113281 C 191.371094 297.382812 191.074219 297.625 190.753906 297.839844 C 190.433594 298.054688 190.097656 298.234375 189.742188 298.382812 C 189.386719 298.527344 189.019531 298.640625 188.644531 298.714844 C 188.265625 298.789062 187.882812 298.828125 187.5 298.828125 C 187.117188 298.828125 186.734375 298.789062 186.355469 298.714844 C 185.980469 298.640625 185.613281 298.53125 185.257812 298.382812 C 184.902344 298.234375 184.566406 298.054688 184.246094 297.839844 C 183.925781 297.625 183.628906 297.382812 183.355469 297.113281 C 183.085938 296.839844 182.84375 296.542969 182.628906 296.222656 C 182.414062 295.902344 182.234375 295.566406 182.085938 295.210938 C 181.9375 294.855469 181.828125 294.488281 181.753906 294.113281 C 181.679688 293.734375 181.640625 293.351562 181.640625 292.96875 C 181.640625 292.585938 181.679688 292.203125 181.753906 291.824219 C 181.828125 291.449219 181.9375 291.082031 182.085938 290.726562 C 182.234375 290.371094 182.414062 290.035156 182.628906 289.714844 C 182.84375 289.394531 183.085938 289.097656 183.355469 288.824219 C 183.628906 288.554688 183.925781 288.308594 184.246094 288.097656 C 184.566406 287.882812 184.902344 287.703125 185.257812 287.554688 C 185.613281 287.40625 185.980469 287.296875 186.355469 287.222656 C 186.734375 287.148438 187.117188 287.109375 187.5 287.109375 C 187.882812 287.109375 188.265625 287.148438 188.644531 287.222656 C 189.019531 287.296875 189.386719 287.40625 189.742188 287.554688 C 190.097656 287.703125 190.433594 287.882812 190.753906 288.097656 C 191.074219 288.3125 191.371094 288.554688 191.644531 288.824219 C 191.914062 289.097656 192.15625 289.394531 192.371094 289.714844 C 192.585938 290.035156 192.765625 290.371094 192.914062 290.726562 C 193.0625 291.082031 193.171875 291.449219 193.246094 291.824219 C 193.320312 292.203125 193.359375 292.585938 193.359375 292.96875 Z M 193.359375 292.96875 " fill-opacity="1" fill-rule="nonzero"/><path fill="#000000" d="M 277.238281 164.0625 L 97.761719 164.0625 C 96.863281 164.0625 95.964844 164.109375 95.070312 164.199219 C 94.175781 164.285156 93.289062 164.417969 92.410156 164.59375 C 91.527344 164.769531 90.65625 164.988281 89.796875 165.25 C 88.9375 165.511719 88.09375 165.816406 87.261719 166.160156 C 86.433594 166.503906 85.621094 166.890625 84.828125 167.3125 C 84.035156 167.738281 83.265625 168.199219 82.519531 168.699219 C 81.773438 169.199219 81.050781 169.734375 80.355469 170.304688 C 79.660156 170.871094 78.996094 171.476562 78.363281 172.109375 C 77.726562 172.746094 77.121094 173.410156 76.554688 174.105469 C 75.984375 174.800781 75.449219 175.523438 74.949219 176.269531 C 74.449219 177.015625 73.988281 177.785156 73.5625 178.578125 C 73.140625 179.371094 72.753906 180.183594 72.410156 181.011719 C 72.066406 181.84375 71.761719 182.6875 71.5 183.546875 C 71.238281 184.40625 71.019531 185.277344 70.84375 186.160156 C 70.667969 187.039062 70.535156 187.925781 70.449219 188.820312 C 70.359375 189.714844 70.3125 190.613281 70.3125 191.511719 L 70.3125 212.785156 C 70.3125 213.683594 70.359375 214.582031 70.449219 215.476562 C 70.535156 216.371094 70.667969 217.257812 70.84375 218.136719 C 71.019531 219.019531 71.238281 219.890625 71.5 220.75 C 71.761719 221.609375 72.066406 222.453125 72.410156 223.285156 C 72.753906 224.113281 73.140625 224.925781 73.5625 225.71875 C 73.988281 226.511719 74.449219 227.28125 74.949219 228.027344 C 75.449219 228.773438 75.984375 229.496094 76.554688 230.191406 C 77.121094 230.886719 77.726562 231.550781 78.359375 232.183594 C 78.996094 232.820312 79.660156 233.425781 80.355469 233.992188 C 81.050781 234.5625 81.773438 235.097656 82.519531 235.597656 C 83.265625 236.097656 84.035156 236.558594 84.828125 236.984375 C 85.621094 237.40625 86.433594 237.792969 87.261719 238.136719 C 88.09375 238.480469 88.9375 238.785156 89.796875 239.046875 C 90.65625 239.308594 91.527344 239.527344 92.410156 239.703125 C 93.289062 239.878906 94.175781 240.011719 95.070312 240.097656 C 95.964844 240.1875 96.863281 240.234375 97.761719 240.234375 L 277.238281 240.234375 C 278.136719 240.234375 279.035156 240.1875 279.929688 240.097656 C 280.824219 240.011719 281.710938 239.878906 282.589844 239.703125 C 283.472656 239.527344 284.34375 239.308594 285.203125 239.046875 C 286.0625 238.785156 286.90625 238.480469 287.738281 238.136719 C 288.566406 237.792969 289.378906 237.40625 290.171875 236.984375 C 290.964844 236.558594 291.734375 236.097656 292.480469 235.597656 C 293.226562 235.097656 293.949219 234.5625 294.644531 233.992188 C 295.339844 233.425781 296.003906 232.820312 296.640625 232.183594 C 297.273438 231.550781 297.878906 230.886719 298.445312 230.191406 C 299.015625 229.496094 299.550781 228.773438 300.050781 228.027344 C 300.550781 227.28125 301.011719 226.511719 301.4375 225.71875 C 301.859375 224.925781 302.246094 224.113281 302.589844 223.285156 C 302.933594 222.453125 303.238281 221.609375 303.5 220.75 C 303.761719 219.890625 303.980469 219.019531 304.15625 218.136719 C 304.332031 217.257812 304.464844 216.371094 304.550781 215.476562 C 304.640625 214.582031 304.6875 213.683594 304.6875 212.785156 L 304.6875 191.511719 C 304.6875 190.613281 304.640625 189.714844 304.550781 188.820312 C 304.464844 187.925781 304.332031 187.039062 304.15625 186.160156 C 303.980469 185.277344 303.761719 184.40625 303.5 183.546875 C 303.238281 182.6875 302.933594 181.84375 302.589844 181.011719 C 302.246094 180.183594 301.859375 179.371094 301.4375 178.578125 C 301.011719 177.785156 300.550781 177.015625 300.050781 176.269531 C 299.550781 175.523438 299.015625 174.800781 298.445312 174.105469 C 297.878906 173.410156 297.273438 172.746094 296.640625 172.109375 C 296.003906 171.476562 295.339844 170.871094 294.644531 170.304688 C 293.949219 169.734375 293.226562 169.199219 292.480469 168.699219 C 291.734375 168.199219 290.964844 167.738281 290.171875 167.3125 C 289.378906 166.890625 288.566406 166.503906 287.738281 166.160156 C 286.90625 165.816406 286.0625 165.511719 285.203125 165.25 C 284.34375 164.988281 283.472656 164.769531 282.589844 164.59375 C 281.710938 164.417969 280.824219 164.285156 279.929688 164.199219 C 279.035156 164.109375 278.136719 164.0625 277.238281 164.0625 Z M 251.953125 188.53125 C 252.722656 188.53125 253.484375 188.453125 254.238281 188.304688 C 254.992188 188.15625 255.726562 187.933594 256.4375 187.636719 C 257.148438 187.34375 257.824219 186.984375 258.464844 186.554688 C 259.101562 186.128906 259.695312 185.640625 260.238281 185.097656 C 260.785156 184.554688 261.269531 183.960938 261.695312 183.320312 C 262.125 182.683594 262.484375 182.007812 262.78125 181.296875 C 263.074219 180.585938 263.296875 179.851562 263.445312 179.097656 C 263.597656 178.34375 263.671875 177.582031 263.671875 176.8125 C 263.671875 176.460938 263.597656 176.125 263.566406 175.78125 L 268.851562 175.78125 C 268.6875 176.601562 268.488281 177.410156 268.253906 178.210938 C 268.019531 179.015625 267.753906 179.804688 267.449219 180.582031 C 267.148438 181.363281 266.816406 182.125 266.449219 182.875 C 266.082031 183.625 265.679688 184.359375 265.25 185.074219 C 264.820312 185.792969 264.359375 186.488281 263.871094 187.164062 C 263.378906 187.839844 262.863281 188.492188 262.316406 189.125 C 261.769531 189.757812 261.199219 190.363281 260.597656 190.949219 C 260 191.53125 259.378906 192.085938 258.730469 192.617188 C 258.085938 193.144531 257.417969 193.644531 256.730469 194.117188 C 256.039062 194.589844 255.332031 195.03125 254.605469 195.441406 C 253.878906 195.851562 253.132812 196.230469 252.375 196.578125 C 251.617188 196.925781 250.84375 197.238281 250.054688 197.519531 C 249.269531 197.800781 248.472656 198.046875 247.664062 198.261719 C 246.855469 198.472656 246.042969 198.648438 245.21875 198.792969 C 244.394531 198.933594 243.566406 199.042969 242.734375 199.113281 C 241.902344 199.183594 241.070312 199.21875 240.234375 199.21875 L 234.375 199.21875 C 232.703125 199.210938 231.046875 199.0625 229.402344 198.773438 C 227.753906 198.480469 226.148438 198.054688 224.574219 197.488281 C 223.003906 196.921875 221.492188 196.226562 220.039062 195.402344 C 218.585938 194.578125 217.210938 193.636719 215.917969 192.574219 C 214.628906 191.515625 213.433594 190.355469 212.339844 189.09375 C 211.25 187.828125 210.269531 186.480469 209.40625 185.050781 C 208.542969 183.621094 207.808594 182.128906 207.199219 180.570312 C 206.59375 179.015625 206.121094 177.417969 205.789062 175.78125 L 240.339844 175.78125 C 240.308594 176.125 240.234375 176.457031 240.234375 176.8125 C 240.234375 177.582031 240.308594 178.34375 240.460938 179.097656 C 240.609375 179.851562 240.832031 180.585938 241.125 181.296875 C 241.421875 182.007812 241.78125 182.683594 242.210938 183.320312 C 242.636719 183.960938 243.121094 184.554688 243.667969 185.097656 C 244.210938 185.640625 244.800781 186.128906 245.441406 186.554688 C 246.082031 186.984375 246.757812 187.34375 247.46875 187.636719 C 248.179688 187.933594 248.914062 188.15625 249.667969 188.304688 C 250.421875 188.453125 251.183594 188.53125 251.953125 188.53125 Z M 146.484375 188.53125 C 147.253906 188.53125 148.015625 188.453125 148.769531 188.304688 C 149.523438 188.15625 150.257812 187.933594 150.96875 187.636719 C 151.679688 187.34375 152.355469 186.984375 152.996094 186.554688 C 153.632812 186.128906 154.226562 185.640625 154.769531 185.097656 C 155.316406 184.554688 155.800781 183.960938 156.226562 183.320312 C 156.65625 182.683594 157.015625 182.007812 157.3125 181.296875 C 157.605469 180.585938 157.828125 179.851562 157.976562 179.097656 C 158.128906 178.34375 158.203125 177.582031 158.203125 176.8125 C 158.203125 176.460938 158.128906 176.125 158.097656 175.78125 L 163.382812 175.78125 C 163.21875 176.601562 163.019531 177.410156 162.785156 178.210938 C 162.550781 179.015625 162.285156 179.804688 161.980469 180.582031 C 161.679688 181.363281 161.34375 182.125 160.976562 182.875 C 160.609375 183.625 160.210938 184.359375 159.78125 185.074219 C 159.351562 185.792969 158.890625 186.488281 158.402344 187.164062 C 157.910156 187.839844 157.394531 188.492188 156.847656 189.125 C 156.300781 189.757812 155.726562 190.363281 155.128906 190.949219 C 154.53125 191.53125 153.910156 192.085938 153.261719 192.617188 C 152.617188 193.144531 151.949219 193.644531 151.261719 194.117188 C 150.570312 194.589844 149.863281 195.03125 149.136719 195.441406 C 148.410156 195.851562 147.664062 196.230469 146.90625 196.578125 C 146.148438 196.925781 145.375 197.238281 144.585938 197.519531 C 143.800781 197.800781 143.003906 198.046875 142.195312 198.261719 C 141.386719 198.472656 140.574219 198.648438 139.75 198.792969 C 138.925781 198.933594 138.097656 199.042969 137.265625 199.113281 C 136.433594 199.183594 135.601562 199.21875 134.765625 199.21875 L 128.90625 199.21875 C 128.070312 199.21875 127.238281 199.183594 126.40625 199.113281 C 125.574219 199.042969 124.746094 198.9375 123.925781 198.792969 C 123.101562 198.652344 122.289062 198.476562 121.480469 198.261719 C 120.671875 198.050781 119.875 197.804688 119.089844 197.523438 C 118.304688 197.242188 117.53125 196.929688 116.769531 196.582031 C 116.011719 196.234375 115.269531 195.855469 114.542969 195.445312 C 113.816406 195.035156 113.109375 194.59375 112.421875 194.121094 C 111.730469 193.648438 111.0625 193.148438 110.417969 192.617188 C 109.773438 192.089844 109.152344 191.53125 108.554688 190.949219 C 107.957031 190.367188 107.386719 189.761719 106.839844 189.128906 C 106.292969 188.496094 105.777344 187.839844 105.289062 187.164062 C 104.796875 186.488281 104.339844 185.792969 103.910156 185.078125 C 103.480469 184.359375 103.082031 183.628906 102.71875 182.875 C 102.351562 182.125 102.019531 181.363281 101.71875 180.582031 C 101.417969 179.804688 101.152344 179.015625 100.917969 178.210938 C 100.6875 177.410156 100.488281 176.601562 100.328125 175.78125 L 134.871094 175.78125 C 134.839844 176.125 134.765625 176.457031 134.765625 176.8125 C 134.765625 177.582031 134.839844 178.34375 134.992188 179.097656 C 135.140625 179.851562 135.363281 180.585938 135.65625 181.296875 C 135.953125 182.007812 136.3125 182.683594 136.742188 183.320312 C 137.167969 183.960938 137.652344 184.554688 138.199219 185.097656 C 138.742188 185.640625 139.335938 186.128906 139.972656 186.554688 C 140.613281 186.984375 141.289062 187.34375 142 187.636719 C 142.710938 187.933594 143.445312 188.15625 144.199219 188.304688 C 144.953125 188.453125 145.714844 188.53125 146.484375 188.53125 Z M 146.484375 188.53125 " fill-opacity="1" fill-rule="nonzero"/><path fill="#000000" d="M 109.40625 155.628906 C 110.875 155.628906 112.164062 155.144531 113.269531 154.175781 C 129.289062 140.144531 149.898438 153.320312 150.796875 153.90625 C 151.121094 154.113281 151.457031 154.289062 151.8125 154.429688 C 152.167969 154.570312 152.535156 154.675781 152.910156 154.746094 C 153.285156 154.816406 153.664062 154.847656 154.046875 154.84375 C 154.429688 154.839844 154.808594 154.800781 155.183594 154.722656 C 155.554688 154.644531 155.917969 154.527344 156.269531 154.378906 C 156.621094 154.230469 156.957031 154.046875 157.273438 153.832031 C 157.589844 153.617188 157.882812 153.375 158.152344 153.101562 C 158.417969 152.832031 158.660156 152.535156 158.871094 152.214844 C 159.082031 151.898438 159.257812 151.5625 159.402344 151.207031 C 159.546875 150.855469 159.65625 150.488281 159.730469 150.113281 C 159.804688 149.738281 159.839844 149.359375 159.839844 148.976562 C 159.839844 148.59375 159.800781 148.214844 159.726562 147.84375 C 159.652344 147.46875 159.542969 147.101562 159.398438 146.75 C 159.25 146.394531 159.070312 146.058594 158.859375 145.742188 C 158.648438 145.421875 158.40625 145.128906 158.140625 144.855469 C 157.871094 144.585938 157.574219 144.34375 157.257812 144.128906 C 147.355469 137.5625 123.800781 129.378906 105.542969 145.359375 C 105.09375 145.753906 104.714844 146.203125 104.402344 146.710938 C 104.09375 147.21875 103.863281 147.765625 103.71875 148.34375 C 103.574219 148.921875 103.519531 149.507812 103.554688 150.101562 C 103.585938 150.695312 103.707031 151.273438 103.917969 151.832031 C 104.128906 152.390625 104.417969 152.902344 104.785156 153.375 C 105.148438 153.84375 105.578125 154.246094 106.070312 154.585938 C 106.558594 154.925781 107.089844 155.183594 107.65625 155.363281 C 108.226562 155.539062 108.808594 155.628906 109.40625 155.628906 Z M 109.40625 155.628906 " fill-opacity="1" fill-rule="nonzero"/><path fill="#000000" d="M 218.097656 153.90625 C 218.964844 153.339844 239.585938 140.128906 255.625 154.175781 C 255.917969 154.429688 256.226562 154.652344 256.5625 154.84375 C 256.894531 155.035156 257.242188 155.195312 257.609375 155.316406 C 257.972656 155.441406 258.34375 155.527344 258.726562 155.578125 C 259.109375 155.625 259.492188 155.640625 259.875 155.613281 C 260.257812 155.585938 260.636719 155.523438 261.007812 155.425781 C 261.378906 155.324219 261.738281 155.191406 262.082031 155.019531 C 262.425781 154.847656 262.75 154.648438 263.054688 154.414062 C 263.359375 154.179688 263.640625 153.917969 263.894531 153.628906 C 264.148438 153.335938 264.371094 153.027344 264.5625 152.691406 C 264.753906 152.359375 264.910156 152.011719 265.035156 151.648438 C 265.160156 151.28125 265.246094 150.910156 265.296875 150.527344 C 265.347656 150.148438 265.359375 149.765625 265.332031 149.382812 C 265.308594 148.996094 265.246094 148.621094 265.144531 148.25 C 265.046875 147.875 264.910156 147.519531 264.742188 147.171875 C 264.570312 146.828125 264.371094 146.503906 264.136719 146.199219 C 263.902344 145.894531 263.640625 145.613281 263.351562 145.359375 C 245.09375 129.378906 221.546875 137.5625 211.636719 144.128906 C 211.320312 144.34375 211.023438 144.585938 210.753906 144.855469 C 210.488281 145.128906 210.246094 145.421875 210.035156 145.742188 C 209.824219 146.058594 209.644531 146.394531 209.496094 146.75 C 209.351562 147.101562 209.242188 147.46875 209.167969 147.84375 C 209.09375 148.214844 209.054688 148.59375 209.054688 148.976562 C 209.054688 149.359375 209.089844 149.738281 209.164062 150.113281 C 209.238281 150.488281 209.347656 150.855469 209.492188 151.207031 C 209.636719 151.5625 209.8125 151.898438 210.023438 152.214844 C 210.234375 152.535156 210.476562 152.832031 210.742188 153.101562 C 211.011719 153.375 211.304688 153.617188 211.621094 153.832031 C 211.9375 154.046875 212.273438 154.230469 212.625 154.378906 C 212.976562 154.527344 213.339844 154.644531 213.710938 154.722656 C 214.085938 154.800781 214.464844 154.839844 214.847656 154.84375 C 215.230469 154.847656 215.609375 154.816406 215.984375 154.746094 C 216.359375 154.675781 216.726562 154.570312 217.082031 154.429688 C 217.4375 154.289062 217.773438 154.113281 218.097656 153.90625 Z M 218.097656 153.90625 " fill-opacity="1" fill-rule="nonzero"/><path fill="#000000" d="M 368.664062 114.878906 C 367.722656 112.871094 366.652344 110.933594 365.449219 109.070312 C 364.242188 107.207031 362.917969 105.433594 361.476562 103.75 C 360.03125 102.066406 358.480469 100.488281 356.820312 99.015625 C 355.164062 97.542969 353.414062 96.1875 351.570312 94.953125 C 349.726562 93.714844 347.8125 92.609375 345.820312 91.632812 C 343.828125 90.65625 341.777344 89.820312 339.671875 89.121094 C 337.566406 88.425781 335.421875 87.871094 333.242188 87.464844 C 331.0625 87.058594 328.863281 86.796875 326.648438 86.691406 C 339.179688 70.707031 334.078125 46.65625 333.847656 45.605469 C 333.703125 44.953125 333.453125 44.347656 333.101562 43.78125 C 332.75 43.214844 332.3125 42.722656 331.792969 42.304688 C 331.273438 41.886719 330.695312 41.570312 330.066406 41.347656 C 329.4375 41.125 328.792969 41.015625 328.125 41.015625 C 307.210938 41.015625 292.648438 46.726562 284.84375 57.984375 C 282.632812 61.34375 281.015625 64.96875 279.984375 68.855469 C 278.957031 72.742188 278.574219 76.691406 278.835938 80.707031 C 276.65625 78.84375 274.417969 77.050781 272.128906 75.328125 C 269.835938 73.605469 267.496094 71.953125 265.101562 70.371094 C 262.710938 68.792969 260.273438 67.285156 257.789062 65.855469 C 255.304688 64.425781 252.78125 63.070312 250.210938 61.792969 C 247.644531 60.515625 245.042969 59.320312 242.402344 58.203125 C 239.761719 57.085938 237.089844 56.050781 234.386719 55.097656 C 231.679688 54.144531 228.949219 53.273438 226.195312 52.488281 C 223.4375 51.703125 220.660156 51 217.859375 50.386719 C 215.058594 49.769531 212.242188 49.242188 209.410156 48.796875 C 206.578125 48.351562 203.734375 47.996094 200.878906 47.726562 C 198.027344 47.457031 195.164062 47.277344 192.300781 47.183594 C 189.433594 47.089844 186.570312 47.082031 183.703125 47.164062 C 180.839844 47.242188 177.976562 47.414062 175.121094 47.667969 C 172.265625 47.925781 169.421875 48.269531 166.585938 48.699219 C 163.753906 49.128906 160.933594 49.648438 158.132812 50.25 C 155.328125 50.855469 152.546875 51.542969 149.785156 52.316406 C 147.027344 53.089844 144.292969 53.949219 141.582031 54.886719 C 138.875 55.828125 136.199219 56.851562 133.554688 57.957031 C 130.910156 59.0625 128.300781 60.246094 125.726562 61.511719 C 123.152344 62.777344 120.621094 64.121094 118.132812 65.539062 C 115.640625 66.960938 113.195312 68.453125 110.796875 70.023438 C 108.398438 71.59375 106.050781 73.234375 103.75 74.949219 C 101.453125 76.660156 99.207031 78.445312 97.019531 80.292969 C 94.828125 82.144531 92.699219 84.0625 90.625 86.042969 C 88.554688 88.023438 86.542969 90.066406 84.597656 92.171875 C 82.652344 94.277344 80.769531 96.4375 78.957031 98.65625 C 77.140625 100.878906 75.394531 103.148438 73.71875 105.476562 C 72.046875 107.804688 70.441406 110.179688 68.914062 112.601562 C 67.382812 115.027344 65.929688 117.496094 64.550781 120.011719 C 63.171875 122.523438 61.871094 125.078125 60.648438 127.671875 C 59.425781 130.265625 58.285156 132.890625 57.222656 135.554688 C 56.160156 138.21875 55.183594 140.914062 54.285156 143.636719 C 53.390625 146.359375 52.578125 149.105469 51.851562 151.878906 C 51.121094 154.652344 50.480469 157.445312 49.921875 160.257812 C 49.363281 163.070312 48.894531 165.894531 48.511719 168.738281 C 48.125 171.578125 47.828125 174.429688 47.621094 177.289062 C 47.410156 180.148438 47.289062 183.011719 47.253906 185.875 C 47.222656 188.742188 47.273438 191.609375 47.417969 194.472656 C 47.558594 197.335938 47.785156 200.191406 48.101562 203.042969 C 48.417969 205.890625 48.820312 208.726562 49.3125 211.550781 C 49.800781 214.375 50.378906 217.183594 51.039062 219.972656 C 51.703125 222.761719 52.449219 225.53125 53.28125 228.273438 C 54.113281 231.015625 55.027344 233.734375 56.023438 236.421875 C 57.023438 239.109375 58.101562 241.761719 59.261719 244.382812 C 60.421875 247.007812 61.660156 249.589844 62.980469 252.136719 C 64.296875 254.679688 65.691406 257.183594 67.164062 259.644531 C 68.636719 262.105469 70.183594 264.515625 71.800781 266.882812 C 73.421875 269.25 75.113281 271.5625 76.871094 273.824219 C 78.632812 276.085938 80.464844 278.292969 82.359375 280.441406 C 84.253906 282.59375 86.214844 284.683594 88.242188 286.714844 C 90.265625 288.742188 92.347656 290.710938 94.496094 292.613281 C 96.640625 294.515625 98.839844 296.347656 101.097656 298.117188 C 103.355469 299.882812 105.664062 301.582031 108.023438 303.207031 C 110.386719 304.832031 112.792969 306.386719 115.25 307.863281 C 117.707031 309.34375 120.207031 310.746094 122.746094 312.070312 C 125.289062 313.398438 127.871094 314.644531 130.488281 315.8125 C 133.105469 316.980469 135.757812 318.066406 138.441406 319.070312 C 141.128906 320.074219 143.839844 320.996094 146.582031 321.835938 C 149.324219 322.675781 152.089844 323.429688 154.875 324.101562 C 157.664062 324.769531 160.46875 325.351562 163.292969 325.851562 C 166.117188 326.347656 168.953125 326.761719 171.800781 327.085938 C 174.648438 327.410156 177.503906 327.644531 180.367188 327.796875 C 183.230469 327.945312 186.09375 328.007812 188.960938 327.980469 C 191.828125 327.953125 194.691406 327.839844 197.550781 327.640625 C 200.410156 327.4375 203.261719 327.148438 206.105469 326.773438 C 208.945312 326.398438 211.773438 325.933594 214.589844 325.386719 C 217.402344 324.835938 220.195312 324.199219 222.972656 323.480469 C 225.746094 322.761719 228.496094 321.957031 231.222656 321.066406 C 233.949219 320.179688 236.644531 319.207031 239.3125 318.152344 C 241.976562 317.097656 244.609375 315.964844 247.203125 314.75 C 249.800781 313.535156 252.359375 312.242188 254.875 310.871094 C 257.394531 309.5 259.867188 308.050781 262.296875 306.527344 C 264.726562 305.003906 267.105469 303.410156 269.4375 301.738281 C 271.765625 300.070312 274.042969 298.332031 276.269531 296.523438 C 278.492188 294.714844 280.660156 292.839844 282.769531 290.898438 C 284.882812 288.957031 286.929688 286.953125 288.917969 284.886719 C 290.902344 282.820312 292.824219 280.695312 294.683594 278.511719 C 296.539062 276.328125 298.328125 274.089844 300.046875 271.796875 C 301.769531 269.5 303.414062 267.15625 304.992188 264.761719 C 306.570312 262.367188 308.070312 259.925781 309.496094 257.441406 C 310.921875 254.953125 312.273438 252.425781 313.546875 249.855469 C 314.816406 247.289062 316.007812 244.683594 317.121094 242.039062 C 318.234375 239.398438 319.265625 236.722656 320.214844 234.019531 C 321.160156 231.3125 322.027344 228.582031 322.808594 225.824219 C 323.589844 223.0625 324.285156 220.285156 324.898438 217.484375 C 325.507812 214.683594 326.03125 211.863281 326.472656 209.03125 C 326.910156 206.199219 327.261719 203.355469 327.527344 200.5 C 327.789062 197.644531 327.96875 194.785156 328.058594 191.921875 C 328.144531 189.054688 328.148438 186.1875 328.0625 183.324219 C 327.976562 180.457031 327.800781 177.597656 327.539062 174.742188 C 327.277344 171.886719 326.929688 169.042969 326.496094 166.210938 C 326.058594 163.375 325.539062 160.558594 324.929688 157.757812 C 324.320312 154.953125 323.628906 152.175781 322.847656 149.414062 C 322.070312 146.65625 321.207031 143.921875 320.261719 141.214844 C 319.316406 138.511719 318.289062 135.835938 317.179688 133.191406 C 316.070312 130.546875 314.882812 127.941406 313.613281 125.371094 C 317.042969 126.996094 320.609375 128.222656 324.3125 129.054688 C 328.015625 129.886719 331.765625 130.300781 335.5625 130.300781 C 340.859375 130.195312 346.070312 129.476562 351.195312 128.144531 C 356.320312 126.816406 361.222656 124.910156 365.902344 122.429688 C 366.234375 122.261719 366.546875 122.066406 366.839844 121.84375 C 367.132812 121.617188 367.40625 121.367188 367.652344 121.089844 C 367.898438 120.816406 368.117188 120.519531 368.304688 120.199219 C 368.496094 119.882812 368.65625 119.550781 368.78125 119.203125 C 368.910156 118.855469 369.003906 118.5 369.0625 118.132812 C 369.121094 117.765625 369.148438 117.398438 369.136719 117.03125 C 369.128906 116.660156 369.082031 116.292969 369.003906 115.933594 C 368.925781 115.570312 368.8125 115.21875 368.664062 114.878906 Z M 294.472656 64.664062 C 299.394531 57.566406 309.003906 53.605469 323.082031 52.867188 C 323.765625 59.730469 323.832031 72.507812 316.570312 80.570312 C 311.398438 86.308594 303.003906 88.882812 291.628906 88.253906 C 291.070312 86.292969 290.710938 84.292969 290.546875 82.261719 C 290.386719 80.226562 290.429688 78.195312 290.671875 76.171875 C 290.917969 74.144531 291.359375 72.164062 292 70.226562 C 292.636719 68.289062 293.464844 66.433594 294.472656 64.660156 Z M 252.363281 76.171875 L 122.636719 76.171875 C 125.082031 74.742188 127.574219 73.390625 130.109375 72.125 C 132.644531 70.859375 135.21875 69.679688 137.832031 68.582031 C 140.445312 67.488281 143.09375 66.480469 145.773438 65.558594 C 148.457031 64.636719 151.164062 63.808594 153.898438 63.066406 C 156.632812 62.324219 159.390625 61.675781 162.167969 61.117188 C 164.949219 60.558594 167.742188 60.089844 170.550781 59.714844 C 173.359375 59.34375 176.179688 59.0625 179.007812 58.875 C 181.835938 58.6875 184.664062 58.59375 187.5 58.59375 C 190.335938 58.59375 193.164062 58.6875 195.992188 58.875 C 198.820312 59.0625 201.640625 59.34375 204.449219 59.714844 C 207.257812 60.089844 210.050781 60.558594 212.832031 61.117188 C 215.609375 61.675781 218.367188 62.324219 221.101562 63.066406 C 223.835938 63.808594 226.542969 64.636719 229.226562 65.558594 C 231.90625 66.480469 234.554688 67.488281 237.167969 68.582031 C 239.78125 69.679688 242.355469 70.859375 244.890625 72.125 C 247.425781 73.390625 249.917969 74.742188 252.363281 76.171875 Z M 105.773438 87.890625 L 269.226562 87.890625 C 279.464844 96.316406 288.210938 106.082031 295.457031 117.1875 L 79.539062 117.1875 C 86.789062 106.082031 95.535156 96.316406 105.773438 87.890625 Z M 187.5 316.40625 C 184.753906 316.410156 182.015625 316.324219 179.273438 316.148438 C 176.535156 315.976562 173.804688 315.714844 171.082031 315.367188 C 168.363281 315.019531 165.652344 314.585938 162.957031 314.066406 C 160.265625 313.542969 157.589844 312.9375 154.933594 312.246094 C 152.277344 311.554688 149.648438 310.777344 147.039062 309.917969 C 144.433594 309.058594 141.859375 308.117188 139.3125 307.089844 C 136.765625 306.066406 134.257812 304.960938 131.78125 303.777344 C 129.304688 302.589844 126.871094 301.328125 124.476562 299.988281 C 122.082031 298.648438 119.734375 297.230469 117.429688 295.742188 C 115.125 294.25 112.871094 292.6875 110.667969 291.050781 C 108.460938 289.417969 106.3125 287.710938 104.21875 285.941406 C 102.121094 284.167969 100.085938 282.332031 98.105469 280.429688 C 96.128906 278.527344 94.214844 276.5625 92.363281 274.539062 C 90.511719 272.511719 88.722656 270.429688 87.003906 268.292969 C 85.285156 266.152344 83.636719 263.960938 82.058594 261.714844 C 80.476562 259.472656 78.972656 257.179688 77.539062 254.839844 C 76.105469 252.496094 74.75 250.113281 73.46875 247.6875 C 72.191406 245.257812 70.988281 242.792969 69.867188 240.289062 C 68.742188 237.785156 67.703125 235.246094 66.742188 232.675781 C 65.78125 230.105469 64.902344 227.507812 64.109375 224.878906 C 63.3125 222.253906 62.605469 219.605469 61.980469 216.929688 C 61.355469 214.257812 60.816406 211.570312 60.363281 208.863281 C 59.910156 206.15625 59.542969 203.4375 59.261719 200.707031 C 58.984375 197.976562 58.792969 195.242188 58.6875 192.5 C 58.582031 189.757812 58.566406 187.015625 58.636719 184.269531 C 58.707031 181.527344 58.867188 178.789062 59.113281 176.054688 C 59.355469 173.324219 59.691406 170.601562 60.109375 167.886719 C 60.53125 165.175781 61.035156 162.480469 61.628906 159.800781 C 62.21875 157.121094 62.898438 154.460938 63.660156 151.824219 C 64.421875 149.191406 65.265625 146.582031 66.195312 143.996094 C 67.125 141.414062 68.132812 138.863281 69.226562 136.347656 C 70.316406 133.828125 71.488281 131.347656 72.738281 128.90625 L 302.261719 128.90625 C 303.511719 131.347656 304.683594 133.828125 305.773438 136.347656 C 306.867188 138.863281 307.875 141.414062 308.804688 143.996094 C 309.734375 146.582031 310.578125 149.191406 311.339844 151.824219 C 312.101562 154.460938 312.78125 157.121094 313.371094 159.800781 C 313.964844 162.480469 314.46875 165.175781 314.890625 167.886719 C 315.308594 170.601562 315.644531 173.324219 315.886719 176.054688 C 316.132812 178.789062 316.292969 181.527344 316.363281 184.269531 C 316.433594 187.015625 316.417969 189.757812 316.3125 192.5 C 316.207031 195.242188 316.015625 197.976562 315.738281 200.707031 C 315.457031 203.4375 315.089844 206.15625 314.636719 208.863281 C 314.183594 211.570312 313.644531 214.257812 313.019531 216.929688 C 312.394531 219.605469 311.6875 222.253906 310.890625 224.878906 C 310.097656 227.507812 309.21875 230.105469 308.257812 232.675781 C 307.296875 235.246094 306.257812 237.785156 305.132812 240.289062 C 304.011719 242.792969 302.808594 245.257812 301.53125 247.6875 C 300.25 250.113281 298.894531 252.496094 297.460938 254.839844 C 296.027344 257.179688 294.523438 259.472656 292.941406 261.714844 C 291.363281 263.960938 289.714844 266.152344 287.996094 268.292969 C 286.277344 270.429688 284.488281 272.511719 282.636719 274.539062 C 280.785156 276.5625 278.871094 278.527344 276.890625 280.429688 C 274.914062 282.332031 272.878906 284.167969 270.78125 285.941406 C 268.6875 287.710938 266.539062 289.417969 264.332031 291.050781 C 262.128906 292.6875 259.875 294.25 257.570312 295.742188 C 255.265625 297.230469 252.917969 298.648438 250.523438 299.988281 C 248.128906 301.328125 245.695312 302.589844 243.21875 303.777344 C 240.742188 304.960938 238.234375 306.066406 235.6875 307.089844 C 233.140625 308.117188 230.566406 309.058594 227.960938 309.917969 C 225.351562 310.777344 222.722656 311.554688 220.066406 312.246094 C 217.410156 312.9375 214.734375 313.542969 212.042969 314.066406 C 209.347656 314.585938 206.636719 315.019531 203.917969 315.367188 C 201.195312 315.714844 198.464844 315.976562 195.726562 316.148438 C 192.984375 316.324219 190.246094 316.410156 187.5 316.40625 Z M 187.5 316.40625 " fill-opacity="1" fill-rule="nonzero"/></svg>