<svg xmlns="http://www.w3.org/2000/svg" xmlns:xlink="http://www.w3.org/1999/xlink" width="500" zoomAndPan="magnify" viewBox="0 0 375 374.999991" height="500" preserveAspectRatio="xMidYMid meet" version="1.0"><defs><clipPath id="86974edd83"><path d="M 22.53125 36.296875 L 125.417969 36.296875 L 125.417969 338.921875 L 22.53125 338.921875 Z M 22.53125 36.296875 " clip-rule="nonzero"/></clipPath><clipPath id="a27648a479"><path d="M 39.78125 36.296875 L 108.167969 36.296875 C 112.742188 36.296875 117.128906 38.117188 120.363281 41.351562 C 123.597656 44.585938 125.417969 48.972656 125.417969 53.546875 L 125.417969 321.453125 C 125.417969 326.027344 123.597656 330.414062 120.363281 333.648438 C 117.128906 336.882812 112.742188 338.703125 108.167969 338.703125 L 39.78125 338.703125 C 35.207031 338.703125 30.820312 336.882812 27.585938 333.648438 C 24.347656 330.414062 22.53125 326.027344 22.53125 321.453125 L 22.53125 53.546875 C 22.53125 48.972656 24.347656 44.585938 27.585938 41.351562 C 30.820312 38.117188 35.207031 36.296875 39.78125 36.296875 Z M 39.78125 36.296875 " clip-rule="nonzero"/></clipPath><clipPath id="95553fa85a"><path d="M 136.199219 122.058594 L 239.082031 122.058594 L 239.082031 339 L 136.199219 339 Z M 136.199219 122.058594 " clip-rule="nonzero"/></clipPath><clipPath id="0f01c5cbe5"><path d="M 153.449219 122.058594 L 221.832031 122.058594 C 226.410156 122.058594 230.796875 123.875 234.03125 127.113281 C 237.265625 130.347656 239.082031 134.734375 239.082031 139.308594 L 239.082031 321.453125 C 239.082031 326.027344 237.265625 330.414062 234.03125 333.648438 C 230.796875 336.882812 226.410156 338.703125 221.832031 338.703125 L 153.449219 338.703125 C 148.875 338.703125 144.488281 336.882812 141.25 333.648438 C 138.015625 330.414062 136.199219 326.027344 136.199219 321.453125 L 136.199219 139.308594 C 136.199219 134.734375 138.015625 130.347656 141.25 127.113281 C 144.488281 123.875 148.875 122.058594 153.449219 122.058594 Z M 153.449219 122.058594 " clip-rule="nonzero"/></clipPath><clipPath id="6fd9695dfd"><path d="M 249.582031 209.453125 L 352.46875 209.453125 L 352.46875 338.863281 L 249.582031 338.863281 Z M 249.582031 209.453125 " clip-rule="nonzero"/></clipPath><clipPath id="1e0c8ae84d"><path d="M 266.832031 209.453125 L 335.21875 209.453125 C 339.792969 209.453125 344.179688 211.269531 347.414062 214.507812 C 350.652344 217.742188 352.46875 222.128906 352.46875 226.703125 L 352.46875 321.453125 C 352.46875 326.027344 350.652344 330.414062 347.414062 333.648438 C 344.179688 336.882812 339.792969 338.703125 335.21875 338.703125 L 266.832031 338.703125 C 262.257812 338.703125 257.871094 336.882812 254.636719 333.648438 C 251.402344 330.414062 249.582031 326.027344 249.582031 321.453125 L 249.582031 226.703125 C 249.582031 222.128906 251.402344 217.742188 254.636719 214.507812 C 257.871094 211.269531 262.257812 209.453125 266.832031 209.453125 Z M 266.832031 209.453125 " clip-rule="nonzero"/></clipPath></defs><rect x="-37.5" width="450" fill="#ffffff" y="-37.499999" height="449.999989" fill-opacity="1"/><rect x="-37.5" width="450" fill="#ffffff" y="-37.499999" height="449.999989" fill-opacity="1"/><g clip-path="url(#86974edd83)"><g clip-path="url(#a27648a479)"><path fill="#0f9d58" d="M 22.53125 36.296875 L 125.417969 36.296875 L 125.417969 338.523438 L 22.53125 338.523438 Z M 22.53125 36.296875 " fill-opacity="1" fill-rule="nonzero"/></g></g><g clip-path="url(#95553fa85a)"><g clip-path="url(#0f01c5cbe5)"><path fill="#0f9d58" d="M 136.199219 122.058594 L 239.082031 122.058594 L 239.082031 338.679688 L 136.199219 338.679688 Z M 136.199219 122.058594 " fill-opacity="1" fill-rule="nonzero"/></g></g><g clip-path="url(#6fd9695dfd)"><g clip-path="url(#1e0c8ae84d)"><path fill="#0f9d58" d="M 249.582031 209.453125 L 352.46875 209.453125 L 352.46875 338.863281 L 249.582031 338.863281 Z M 249.582031 209.453125 " fill-opacity="1" fill-rule="nonzero"/></g></g></svg>