<svg xmlns="http://www.w3.org/2000/svg" xmlns:xlink="http://www.w3.org/1999/xlink" width="500" zoomAndPan="magnify" viewBox="0 0 375 374.999991" height="500" preserveAspectRatio="xMidYMid meet" version="1.0"><defs><clipPath id="e4cba4eb0e"><path d="M 16.171875 0 L 358.921875 0 L 358.921875 375 L 16.171875 375 Z M 16.171875 0 " clip-rule="nonzero"/></clipPath><clipPath id="03cb64363a"><path d="M 246.328125 144.300781 L 358.847656 144.300781 L 358.847656 240.316406 L 246.328125 240.316406 Z M 246.328125 144.300781 " clip-rule="nonzero"/></clipPath><clipPath id="79f401b6c8"><path d="M 263.578125 144.300781 L 341.578125 144.300781 C 346.152344 144.300781 350.539062 146.117188 353.777344 149.351562 C 357.011719 152.585938 358.828125 156.972656 358.828125 161.550781 L 358.828125 223.066406 C 358.828125 227.640625 357.011719 232.027344 353.777344 235.261719 C 350.539062 238.5 346.152344 240.316406 341.578125 240.316406 L 263.578125 240.316406 C 259.003906 240.316406 254.617188 238.5 251.378906 235.261719 C 248.144531 232.027344 246.328125 227.640625 246.328125 223.066406 L 246.328125 161.550781 C 246.328125 156.972656 248.144531 152.585938 251.378906 149.351562 C 254.617188 146.117188 259.003906 144.300781 263.578125 144.300781 Z M 263.578125 144.300781 " clip-rule="nonzero"/></clipPath></defs><g clip-path="url(#e4cba4eb0e)"><path fill="#ffffff" d="M 187.5 0 C 181.671875 0 175.84375 1.464844 170.652344 4.394531 L 33.339844 81.554688 C 22.832031 87.445312 16.304688 98.496094 16.304688 110.339844 L 16.304688 264.660156 C 16.304688 276.503906 22.832031 287.554688 33.339844 293.445312 L 170.652344 370.605469 C 175.84375 373.535156 181.671875 375 187.5 375 C 193.328125 375 199.15625 373.535156 204.34375 370.605469 L 341.660156 293.476562 C 352.167969 287.554688 358.695312 276.503906 358.695312 264.660156 L 358.695312 110.339844 C 358.695312 98.496094 352.167969 87.445312 341.660156 81.554688 L 204.34375 4.394531 C 199.15625 1.464844 193.328125 0 187.5 0 Z M 187.5 89.675781 C 218.324219 89.675781 246.824219 103.972656 265.296875 128.300781 L 229.566406 149 C 218.835938 137.25 203.582031 130.433594 187.5 130.433594 C 156.039062 130.433594 130.433594 156.039062 130.433594 187.5 C 130.433594 218.960938 156.039062 244.566406 187.5 244.566406 C 203.582031 244.566406 218.835938 237.75 229.566406 226 L 265.296875 246.699219 C 246.824219 271.027344 218.324219 285.324219 187.5 285.324219 C 133.554688 285.324219 89.675781 241.445312 89.675781 187.5 C 89.675781 133.554688 133.554688 89.675781 187.5 89.675781 Z M 269.023438 146.738281 L 285.324219 146.738281 L 285.324219 163.042969 L 301.628906 163.042969 L 301.628906 146.738281 L 317.933594 146.738281 L 317.933594 163.042969 L 334.238281 163.042969 L 334.238281 179.347656 L 317.933594 179.347656 L 317.933594 195.652344 L 334.238281 195.652344 L 334.238281 211.957031 L 317.933594 211.957031 L 317.933594 228.261719 L 301.628906 228.261719 L 301.628906 211.957031 L 285.324219 211.957031 L 285.324219 228.261719 L 269.023438 228.261719 L 269.023438 211.957031 L 252.71875 211.957031 L 252.71875 195.652344 L 269.023438 195.652344 L 269.023438 179.347656 L 252.71875 179.347656 L 252.71875 163.042969 L 269.023438 163.042969 Z M 285.324219 179.347656 L 285.324219 195.652344 L 301.628906 195.652344 L 301.628906 179.347656 Z M 285.324219 179.347656 " fill-opacity="1" fill-rule="nonzero"/></g><g clip-path="url(#03cb64363a)"><g clip-path="url(#79f401b6c8)"><path fill="#ffffff" d="M 246.328125 144.300781 L 358.847656 144.300781 L 358.847656 240.316406 L 246.328125 240.316406 Z M 246.328125 144.300781 " fill-opacity="1" fill-rule="nonzero"/></g></g></svg>