<svg xmlns="http://www.w3.org/2000/svg" xmlns:xlink="http://www.w3.org/1999/xlink" width="500" zoomAndPan="magnify" viewBox="0 0 375 374.999991" height="500" preserveAspectRatio="xMidYMid meet" version="1.0"><defs><clipPath id="cbd968d7b5"><path d="M 187.5 0 C 83.945312 0 0 83.945312 0 187.5 C 0 291.054688 83.945312 375 187.5 375 C 291.054688 375 375 291.054688 375 187.5 C 375 83.945312 291.054688 0 187.5 0 Z M 187.5 0 " clip-rule="nonzero"/></clipPath></defs><rect x="-37.5" width="450" fill="#ffffff" y="-37.499999" height="449.999989" fill-opacity="1"/><rect x="-37.5" width="450" fill="#ffffff" y="-37.499999" height="449.999989" fill-opacity="1"/><g clip-path="url(#cbd968d7b5)"><rect x="-37.5" width="450" fill="#e2d8fc" y="-37.499999" height="449.999989" fill-opacity="1"/></g><path fill="#c262ff" d="M 91.097656 134.117188 C 91.097656 120.804688 101.886719 110.015625 115.199219 110.015625 L 259.796875 110.015625 C 273.105469 110.015625 283.894531 120.804688 283.894531 134.117188 L 283.894531 172.023438 C 280.28125 168.789062 276.234375 166.03125 271.84375 163.851562 L 271.84375 134.117188 C 271.84375 127.460938 266.449219 122.066406 259.796875 122.066406 L 115.199219 122.066406 C 108.542969 122.066406 103.148438 127.460938 103.148438 134.117188 L 103.148438 230.515625 C 103.148438 237.167969 108.542969 242.5625 115.199219 242.5625 L 202.652344 242.5625 C 203.566406 243.929688 204.542969 245.25 205.570312 246.523438 L 205.570312 254.613281 L 115.199219 254.613281 C 101.886719 254.613281 91.097656 243.824219 91.097656 230.515625 Z M 91.097656 134.117188 " fill-opacity="1" fill-rule="nonzero"/><path fill="#c262ff" d="M 289.921875 212.441406 C 289.921875 223.933594 285.324219 234.351562 277.867188 241.957031 L 277.871094 290.761719 C 277.871094 295.726562 272.203125 298.5625 268.230469 295.582031 L 251.359375 282.929688 C 249.21875 281.324219 246.273438 281.324219 244.128906 282.929688 L 227.261719 295.582031 C 223.289062 298.5625 217.621094 295.726562 217.621094 290.761719 L 217.621094 241.957031 C 210.167969 234.347656 205.570312 223.929688 205.570312 212.441406 C 205.570312 189.148438 224.453125 170.265625 247.746094 170.265625 C 271.039062 170.265625 289.921875 189.148438 289.921875 212.441406 Z M 247.746094 254.613281 C 241.273438 254.613281 235.152344 253.160156 229.671875 250.554688 L 229.671875 275.699219 L 244.644531 266.714844 C 246.554688 265.570312 248.9375 265.570312 250.84375 266.714844 L 265.820312 275.699219 L 265.820312 250.554688 C 260.34375 253.15625 254.214844 254.613281 247.746094 254.613281 Z M 247.746094 242.5625 C 264.382812 242.5625 277.871094 229.078125 277.871094 212.441406 C 277.871094 195.800781 264.382812 182.316406 247.746094 182.316406 C 231.109375 182.316406 217.621094 195.800781 217.621094 212.441406 C 217.621094 229.078125 231.109375 242.5625 247.746094 242.5625 Z M 247.746094 242.5625 " fill-opacity="1" fill-rule="nonzero"/><path fill="#c262ff" d="M 127.246094 152.191406 C 127.246094 148.863281 129.945312 146.164062 133.273438 146.164062 L 241.722656 146.164062 C 245.046875 146.164062 247.746094 148.863281 247.746094 152.191406 C 247.746094 155.519531 245.046875 158.214844 241.722656 158.214844 L 133.273438 158.214844 C 129.945312 158.214844 127.246094 155.519531 127.246094 152.191406 Z M 127.246094 152.191406 " fill-opacity="1" fill-rule="nonzero"/><path fill="#c262ff" d="M 133.273438 206.414062 C 129.945312 206.414062 127.246094 209.113281 127.246094 212.441406 C 127.246094 215.765625 129.945312 218.464844 133.273438 218.464844 L 181.472656 218.464844 C 184.800781 218.464844 187.496094 215.765625 187.496094 212.441406 C 187.496094 209.113281 184.800781 206.414062 181.472656 206.414062 Z M 133.273438 206.414062 " fill-opacity="1" fill-rule="nonzero"/></svg>