<svg xmlns="http://www.w3.org/2000/svg" xmlns:xlink="http://www.w3.org/1999/xlink" width="500" zoomAndPan="magnify" viewBox="0 0 375 374.999991" height="500" preserveAspectRatio="xMidYMid meet" version="1.0"><defs><clipPath id="27725dcd45"><path d="M 132 58 L 245 58 L 245 318.75 L 132 318.75 Z M 132 58 " clip-rule="nonzero"/></clipPath></defs><rect x="-37.5" width="450" fill="#ffffff" y="-37.499999" height="449.999989" fill-opacity="1"/><rect x="-37.5" width="450" fill="#ffffff" y="-37.499999" height="449.999989" fill-opacity="1"/><path fill="#ff5757" d="M 95.070312 281.777344 C 89.523438 281.777344 85.828125 279.929688 82.128906 276.230469 L 8.1875 202.289062 C 0.792969 194.894531 0.792969 183.804688 8.1875 176.410156 L 82.128906 102.464844 C 89.523438 95.070312 100.617188 95.070312 108.011719 102.464844 C 115.40625 109.859375 115.40625 120.949219 108.011719 128.34375 L 47.007812 189.347656 L 108.011719 250.351562 C 115.40625 257.746094 115.40625 268.839844 108.011719 276.230469 C 104.3125 279.929688 100.617188 281.777344 95.070312 281.777344 Z M 95.070312 281.777344 " fill-opacity="1" fill-rule="nonzero"/><path fill="#ff5757" d="M 279.929688 281.777344 C 274.382812 281.777344 270.6875 279.929688 266.988281 276.230469 C 259.59375 268.839844 259.59375 257.746094 266.988281 250.351562 L 327.992188 189.347656 L 266.988281 128.34375 C 259.59375 120.949219 259.59375 109.859375 266.988281 102.464844 C 274.382812 95.070312 285.476562 95.070312 292.871094 102.464844 L 366.8125 176.410156 C 374.207031 183.804688 374.207031 194.894531 366.8125 202.289062 L 292.871094 276.230469 C 289.171875 279.929688 285.476562 281.777344 279.929688 281.777344 Z M 279.929688 281.777344 " fill-opacity="1" fill-rule="nonzero"/><g clip-path="url(#27725dcd45)"><path fill="#ff5757" d="M 150.527344 318.75 C 148.679688 318.75 146.832031 318.75 144.980469 316.902344 C 135.738281 313.203125 130.195312 303.960938 133.890625 292.871094 L 207.835938 71.039062 C 211.53125 61.796875 220.773438 56.25 231.867188 59.945312 C 241.109375 63.644531 246.65625 72.886719 242.957031 83.980469 L 169.015625 305.808594 C 165.316406 313.203125 157.921875 318.75 150.527344 318.75 Z M 150.527344 318.75 " fill-opacity="1" fill-rule="nonzero"/></g></svg>