<svg xmlns="http://www.w3.org/2000/svg" xmlns:xlink="http://www.w3.org/1999/xlink" width="500" zoomAndPan="magnify" viewBox="0 0 375 374.999991" height="500" preserveAspectRatio="xMidYMid meet" version="1.0"><defs><clipPath id="73b69310f8"><path d="M 16 237 L 145.59375 237 L 145.59375 370 L 16 370 Z M 16 237 " clip-rule="nonzero"/></clipPath><clipPath id="efc380819d"><path d="M 105 267 L 149 267 L 149 336 L 105 336 Z M 105 267 " clip-rule="nonzero"/></clipPath><clipPath id="e157c9a875"><path d="M 136.414062 267.25 L 168.605469 288.613281 L 137.59375 335.34375 L 105.402344 313.980469 Z M 136.414062 267.25 " clip-rule="nonzero"/></clipPath><clipPath id="41c9c4d9ab"><path d="M 64.632812 204.582031 L 174.707031 277.632812 L 97.519531 393.9375 L -12.550781 320.886719 Z M 64.632812 204.582031 " clip-rule="nonzero"/></clipPath><clipPath id="3a2cc3a7af"><path d="M 120.308594 4.351562 L 250.757812 4.351562 L 250.757812 134.804688 L 120.308594 134.804688 Z M 120.308594 4.351562 " clip-rule="nonzero"/></clipPath><clipPath id="88aa0c434f"><path d="M 185.53125 4.351562 C 149.511719 4.351562 120.308594 33.554688 120.308594 69.578125 C 120.308594 105.601562 149.511719 134.804688 185.53125 134.804688 C 221.554688 134.804688 250.757812 105.601562 250.757812 69.578125 C 250.757812 33.554688 221.554688 4.351562 185.53125 4.351562 Z M 185.53125 4.351562 " clip-rule="nonzero"/></clipPath><clipPath id="c7efe91fd4"><path d="M 231.027344 240.160156 L 361.515625 240.160156 L 361.515625 370.648438 L 231.027344 370.648438 Z M 231.027344 240.160156 " clip-rule="nonzero"/></clipPath><clipPath id="ffcc05085c"><path d="M 296.269531 240.160156 C 260.238281 240.160156 231.027344 269.371094 231.027344 305.402344 C 231.027344 341.4375 260.238281 370.648438 296.269531 370.648438 C 332.304688 370.648438 361.515625 341.4375 361.515625 305.402344 C 361.515625 269.371094 332.304688 240.160156 296.269531 240.160156 Z M 296.269531 240.160156 " clip-rule="nonzero"/></clipPath><clipPath id="84958dea64"><path d="M 103 108 L 167 108 L 167 253 L 103 253 Z M 103 108 " clip-rule="nonzero"/></clipPath><clipPath id="31342db8a4"><path d="M 157.042969 107.203125 L 168.160156 111.484375 L 113.03125 254.621094 L 101.914062 250.339844 Z M 157.042969 107.203125 " clip-rule="nonzero"/></clipPath><clipPath id="28b3bd6586"><path d="M 162.601562 109.34375 C 164.074219 109.914062 165.265625 111.042969 165.90625 112.488281 C 166.546875 113.929688 166.585938 115.570312 166.019531 117.042969 L 115.179688 249.046875 C 114.613281 250.519531 113.480469 251.707031 112.039062 252.347656 C 110.59375 252.988281 108.953125 253.03125 107.480469 252.460938 C 106.003906 251.894531 104.816406 250.765625 104.175781 249.320312 C 103.535156 247.875 103.492188 246.238281 104.0625 244.761719 L 154.902344 112.761719 C 155.46875 111.289062 156.601562 110.101562 158.042969 109.457031 C 159.488281 108.816406 161.128906 108.777344 162.601562 109.34375 Z M 162.601562 109.34375 " clip-rule="nonzero"/></clipPath><clipPath id="f2091834f1"><path d="M 213 111 L 289 111 L 289 251 L 213 251 Z M 213 111 " clip-rule="nonzero"/></clipPath><clipPath id="ec54223154"><path d="M 211.007812 115.054688 L 221.652344 109.703125 L 290.523438 246.757812 L 279.878906 252.109375 Z M 211.007812 115.054688 " clip-rule="nonzero"/></clipPath><clipPath id="6142d329f2"><path d="M 216.328125 112.378906 C 217.738281 111.667969 219.375 111.550781 220.875 112.046875 C 222.375 112.542969 223.617188 113.613281 224.324219 115.027344 L 287.839844 241.417969 C 288.546875 242.832031 288.667969 244.464844 288.171875 245.964844 C 287.675781 247.464844 286.601562 248.707031 285.191406 249.414062 C 283.78125 250.125 282.144531 250.246094 280.644531 249.746094 C 279.144531 249.25 277.902344 248.179688 277.195312 246.769531 L 213.679688 120.375 C 212.972656 118.964844 212.851562 117.328125 213.347656 115.828125 C 213.84375 114.328125 214.917969 113.089844 216.328125 112.378906 Z M 216.328125 112.378906 " clip-rule="nonzero"/></clipPath></defs><rect x="-37.5" width="450" fill="#ffffff" y="-37.499999" height="449.999989" fill-opacity="1"/><rect x="-37.5" width="450" fill="#ffffff" y="-37.499999" height="449.999989" fill-opacity="1"/><g clip-path="url(#73b69310f8)"><path fill="#506efa" d="M 82.730469 369.304688 C 80.710938 369.304688 78.695312 369.210938 76.6875 369.023438 C 74.675781 368.835938 72.675781 368.554688 70.691406 368.183594 C 68.707031 367.8125 66.742188 367.351562 64.800781 366.800781 C 62.855469 366.25 60.945312 365.609375 59.058594 364.882812 C 57.175781 364.15625 55.328125 363.34375 53.519531 362.449219 C 51.710938 361.550781 49.945312 360.574219 48.226562 359.515625 C 46.503906 358.457031 44.835938 357.320312 43.222656 356.109375 C 41.605469 354.898438 40.050781 353.613281 38.554688 352.257812 C 37.054688 350.902344 35.625 349.484375 34.257812 347.996094 C 32.890625 346.507812 31.59375 344.964844 30.367188 343.359375 C 29.144531 341.75 27.996094 340.09375 26.921875 338.382812 C 25.851562 336.671875 24.859375 334.914062 23.945312 333.113281 C 23.035156 331.308594 22.210938 329.46875 21.46875 327.589844 C 20.726562 325.710938 20.070312 323.804688 19.503906 321.867188 C 18.9375 319.929688 18.460938 317.96875 18.074219 315.984375 C 17.6875 314.003906 17.390625 312.007812 17.1875 310 C 16.984375 307.988281 16.875 305.972656 16.855469 303.957031 C 16.839844 301.9375 16.914062 299.917969 17.078125 297.90625 C 17.246094 295.894531 17.503906 293.894531 17.855469 291.90625 C 18.207031 289.914062 18.648438 287.949219 19.179688 286 C 19.710938 284.050781 20.332031 282.132812 21.039062 280.238281 C 21.746094 278.347656 22.539062 276.492188 23.417969 274.675781 C 24.296875 272.855469 25.257812 271.082031 26.296875 269.351562 C 27.339844 267.621094 28.457031 265.941406 29.652344 264.316406 C 30.847656 262.6875 32.117188 261.117188 33.457031 259.605469 C 34.796875 258.09375 36.203125 256.648438 37.675781 255.265625 C 39.148438 253.886719 40.679688 252.574219 42.273438 251.332031 C 43.867188 250.089844 45.515625 248.925781 47.214844 247.835938 C 48.914062 246.746094 50.660156 245.738281 52.453125 244.808594 C 54.246094 243.878906 56.078125 243.03125 57.949219 242.273438 C 59.820312 241.511719 61.722656 240.835938 63.652344 240.25 C 65.585938 239.664062 67.542969 239.167969 69.519531 238.761719 C 71.5 238.355469 73.492188 238.039062 75.5 237.816406 C 77.503906 237.59375 79.519531 237.460938 81.539062 237.421875 C 83.558594 237.382812 85.574219 237.4375 87.585938 237.585938 C 89.601562 237.730469 91.605469 237.96875 93.597656 238.300781 C 95.589844 238.628906 97.5625 239.050781 99.515625 239.5625 C 101.46875 240.074219 103.394531 240.675781 105.292969 241.363281 C 107.191406 242.054688 109.054688 242.828125 110.882812 243.6875 C 112.710938 244.546875 114.496094 245.488281 116.234375 246.511719 C 117.976562 247.539062 119.664062 248.640625 121.304688 249.816406 C 122.945312 250.996094 124.527344 252.25 126.050781 253.574219 C 127.578125 254.898438 129.035156 256.289062 130.433594 257.746094 C 131.832031 259.207031 133.15625 260.726562 134.414062 262.304688 C 135.671875 263.886719 136.855469 265.523438 137.960938 267.210938 C 139.066406 268.898438 140.09375 270.636719 141.042969 272.421875 C 141.988281 274.203125 142.851562 276.027344 143.632812 277.890625 C 144.414062 279.753906 145.105469 281.648438 145.710938 283.574219 C 145.855469 283.992188 145.957031 284.417969 146.011719 284.855469 C 146.070312 285.292969 146.082031 285.734375 146.050781 286.175781 C 146.023438 286.613281 145.945312 287.046875 145.828125 287.472656 C 145.710938 287.898438 145.550781 288.308594 145.351562 288.703125 C 145.152344 289.097656 144.914062 289.464844 144.640625 289.8125 C 144.367188 290.15625 144.058594 290.472656 143.722656 290.757812 C 143.382812 291.042969 143.023438 291.289062 142.632812 291.5 C 142.246094 291.714844 141.84375 291.882812 141.421875 292.015625 C 141 292.144531 140.566406 292.230469 140.128906 292.277344 C 139.6875 292.320312 139.25 292.320312 138.808594 292.273438 C 138.371094 292.230469 137.941406 292.144531 137.519531 292.011719 C 137.097656 291.878906 136.691406 291.710938 136.304688 291.496094 C 135.917969 291.285156 135.554688 291.035156 135.21875 290.75 C 134.878906 290.464844 134.574219 290.152344 134.300781 289.804688 C 134.027344 289.457031 133.789062 289.089844 133.589844 288.695312 C 133.390625 288.300781 133.234375 287.890625 133.117188 287.464844 C 132.628906 285.925781 132.074219 284.410156 131.449219 282.921875 C 130.820312 281.433594 130.128906 279.976562 129.371094 278.550781 C 128.609375 277.125 127.789062 275.738281 126.902344 274.386719 C 126.015625 273.039062 125.066406 271.730469 124.058594 270.46875 C 123.054688 269.207031 121.992188 267.992188 120.871094 266.828125 C 119.753906 265.660156 118.585938 264.550781 117.363281 263.492188 C 116.144531 262.433594 114.878906 261.433594 113.566406 260.492188 C 112.253906 259.550781 110.902344 258.671875 109.507812 257.855469 C 108.117188 257.039062 106.6875 256.285156 105.226562 255.597656 C 103.765625 254.914062 102.273438 254.296875 100.753906 253.746094 C 99.238281 253.195312 97.695312 252.71875 96.132812 252.308594 C 94.570312 251.902344 92.992188 251.566406 91.398438 251.304688 C 89.804688 251.039062 88.203125 250.851562 86.59375 250.734375 C 84.980469 250.621094 83.367188 250.578125 81.753906 250.609375 C 80.140625 250.644531 78.53125 250.75 76.925781 250.929688 C 75.320312 251.109375 73.726562 251.363281 72.144531 251.6875 C 70.5625 252.015625 69 252.414062 67.453125 252.882812 C 65.910156 253.351562 64.390625 253.894531 62.894531 254.503906 C 61.398438 255.113281 59.933594 255.789062 58.5 256.535156 C 57.066406 257.277344 55.671875 258.085938 54.3125 258.957031 C 52.953125 259.832031 51.636719 260.761719 50.363281 261.757812 C 49.089844 262.75 47.863281 263.796875 46.6875 264.90625 C 45.507812 266.011719 44.386719 267.167969 43.316406 268.375 C 42.242188 269.585938 41.230469 270.839844 40.273438 272.144531 C 39.320312 273.445312 38.425781 274.789062 37.59375 276.171875 C 36.761719 277.554688 35.996094 278.976562 35.292969 280.429688 C 34.589844 281.882812 33.957031 283.367188 33.390625 284.878906 C 32.824219 286.394531 32.332031 287.929688 31.90625 289.488281 C 31.480469 291.046875 31.128906 292.621094 30.847656 294.210938 C 30.570312 295.800781 30.363281 297.402344 30.230469 299.011719 C 30.097656 300.621094 30.039062 302.230469 30.050781 303.847656 C 30.066406 305.460938 30.15625 307.074219 30.320312 308.679688 C 30.480469 310.285156 30.71875 311.882812 31.027344 313.46875 C 31.335938 315.050781 31.71875 316.621094 32.171875 318.167969 C 32.625 319.71875 33.148438 321.246094 33.742188 322.746094 C 34.335938 324.25 34.996094 325.722656 35.726562 327.164062 C 36.453125 328.605469 37.246094 330.007812 38.105469 331.378906 C 38.960938 332.746094 39.882812 334.070312 40.859375 335.355469 C 41.839844 336.640625 42.875 337.875 43.96875 339.066406 C 45.0625 340.253906 46.207031 341.390625 47.40625 342.472656 C 48.601562 343.558594 49.847656 344.585938 51.140625 345.554688 C 52.429688 346.523438 53.765625 347.433594 55.140625 348.277344 C 56.515625 349.125 57.925781 349.90625 59.371094 350.625 C 60.820312 351.34375 62.296875 351.992188 63.800781 352.574219 C 65.308594 353.15625 66.839844 353.667969 68.390625 354.109375 C 69.945312 354.550781 71.515625 354.917969 73.105469 355.214844 C 74.691406 355.511719 76.289062 355.738281 77.898438 355.886719 C 79.503906 356.039062 81.117188 356.113281 82.730469 356.117188 C 86.820312 356.136719 90.851562 355.675781 94.832031 354.742188 C 98.808594 353.804688 102.625 352.417969 106.273438 350.578125 C 106.664062 350.382812 107.066406 350.230469 107.484375 350.117188 C 107.902344 350.003906 108.324219 349.933594 108.757812 349.902344 C 109.1875 349.875 109.621094 349.886719 110.046875 349.941406 C 110.476562 349.996094 110.898438 350.09375 111.308594 350.230469 C 111.71875 350.371094 112.109375 350.546875 112.484375 350.761719 C 112.863281 350.976562 113.210938 351.226562 113.539062 351.511719 C 113.867188 351.792969 114.160156 352.109375 114.425781 352.449219 C 114.691406 352.792969 114.917969 353.15625 115.113281 353.542969 C 115.332031 353.941406 115.507812 354.351562 115.640625 354.785156 C 115.773438 355.214844 115.863281 355.65625 115.90625 356.105469 C 115.949219 356.554688 115.949219 357.003906 115.898438 357.453125 C 115.851562 357.902344 115.757812 358.34375 115.617188 358.773438 C 115.476562 359.203125 115.296875 359.613281 115.074219 360.003906 C 114.851562 360.398438 114.589844 360.761719 114.289062 361.101562 C 113.992188 361.441406 113.660156 361.746094 113.300781 362.015625 C 112.9375 362.289062 112.554688 362.519531 112.144531 362.710938 C 107.570312 364.953125 102.796875 366.628906 97.828125 367.742188 C 92.855469 368.859375 87.824219 369.378906 82.730469 369.304688 Z M 82.730469 369.304688 " fill-opacity="1" fill-rule="nonzero"/></g><g clip-path="url(#efc380819d)"><g clip-path="url(#e157c9a875)"><g clip-path="url(#41c9c4d9ab)"><path fill="#506efa" d="M 46.113281 357.71875 C 44.429688 356.597656 42.804688 355.40625 41.230469 354.136719 C 39.660156 352.871094 38.148438 351.53125 36.699219 350.125 C 35.25 348.71875 33.871094 347.25 32.554688 345.714844 C 31.242188 344.183594 30 342.589844 28.832031 340.945312 C 27.664062 339.296875 26.574219 337.597656 25.5625 335.851562 C 24.550781 334.101562 23.621094 332.3125 22.773438 330.480469 C 21.925781 328.644531 21.164062 326.777344 20.488281 324.875 C 19.8125 322.972656 19.226562 321.042969 18.730469 319.085938 C 18.230469 317.128906 17.824219 315.152344 17.503906 313.15625 C 17.1875 311.164062 16.964844 309.15625 16.832031 307.144531 C 16.699219 305.128906 16.65625 303.109375 16.710938 301.089844 C 16.761719 299.074219 16.910156 297.0625 17.144531 295.054688 C 17.382812 293.050781 17.710938 291.058594 18.132812 289.082031 C 18.550781 287.109375 19.0625 285.15625 19.660156 283.226562 C 20.261719 281.300781 20.949219 279.402344 21.722656 277.539062 C 22.496094 275.671875 23.355469 273.847656 24.296875 272.058594 C 25.238281 270.273438 26.257812 268.53125 27.359375 266.839844 C 28.460938 265.148438 29.636719 263.507812 30.890625 261.925781 C 32.140625 260.339844 33.464844 258.816406 34.855469 257.351562 C 36.246094 255.890625 37.703125 254.492188 39.222656 253.164062 C 40.746094 251.835938 42.324219 250.578125 43.957031 249.394531 C 45.59375 248.207031 47.28125 247.101562 49.019531 246.070312 C 50.753906 245.042969 52.535156 244.09375 54.359375 243.230469 C 56.183594 242.363281 58.046875 241.582031 59.941406 240.886719 C 61.839844 240.191406 63.761719 239.585938 65.714844 239.066406 C 67.667969 238.550781 69.636719 238.121094 71.628906 237.785156 C 73.621094 237.449219 75.621094 237.203125 77.636719 237.050781 C 79.648438 236.898438 81.667969 236.835938 83.6875 236.867188 C 85.703125 236.898438 87.71875 237.023438 89.726562 237.242188 C 91.734375 237.460938 93.726562 237.769531 95.707031 238.167969 C 97.6875 238.570312 99.644531 239.058594 101.578125 239.640625 C 103.511719 240.21875 105.417969 240.886719 107.289062 241.640625 C 109.164062 242.394531 110.996094 243.234375 112.792969 244.160156 C 114.589844 245.082031 116.339844 246.085938 118.042969 247.171875 C 119.746094 248.253906 121.398438 249.414062 122.996094 250.652344 C 124.589844 251.886719 126.128906 253.191406 127.605469 254.570312 C 129.082031 255.949219 130.492188 257.390625 131.839844 258.894531 C 133.183594 260.402344 134.457031 261.96875 135.65625 263.589844 C 136.859375 265.214844 137.980469 266.890625 139.027344 268.617188 C 140.078125 270.34375 141.042969 272.117188 141.925781 273.929688 C 142.808594 275.746094 143.609375 277.597656 144.324219 279.488281 C 145.039062 281.378906 145.664062 283.296875 146.203125 285.242188 C 146.738281 287.1875 147.1875 289.15625 147.542969 291.144531 C 147.902344 293.132812 148.167969 295.128906 148.339844 297.144531 C 148.515625 299.15625 148.59375 301.171875 148.582031 303.191406 C 148.570312 305.210938 148.46875 307.222656 148.269531 309.234375 C 148.074219 311.246094 147.785156 313.242188 147.40625 315.222656 C 147.023438 317.207031 146.554688 319.167969 145.992188 321.109375 C 145.882812 321.535156 145.730469 321.949219 145.535156 322.34375 C 145.339844 322.742188 145.109375 323.113281 144.839844 323.464844 C 144.570312 323.816406 144.269531 324.136719 143.933594 324.425781 C 143.601562 324.714844 143.242188 324.96875 142.859375 325.183594 C 142.472656 325.402344 142.070312 325.578125 141.652344 325.714844 C 141.230469 325.851562 140.800781 325.945312 140.363281 325.996094 C 139.925781 326.046875 139.484375 326.050781 139.046875 326.011719 C 138.605469 325.976562 138.175781 325.894531 137.75 325.769531 C 137.328125 325.644531 136.921875 325.480469 136.53125 325.273438 C 136.140625 325.066406 135.773438 324.824219 135.433594 324.542969 C 135.089844 324.261719 134.78125 323.953125 134.5 323.609375 C 134.222656 323.269531 133.980469 322.902344 133.773438 322.511719 C 133.570312 322.121094 133.40625 321.710938 133.28125 321.289062 C 133.15625 320.863281 133.078125 320.433594 133.042969 319.992188 C 133.003906 319.550781 133.011719 319.113281 133.0625 318.675781 C 133.113281 318.234375 133.210938 317.804688 133.347656 317.386719 C 133.792969 315.835938 134.167969 314.265625 134.46875 312.679688 C 134.769531 311.09375 135 309.496094 135.15625 307.886719 C 135.3125 306.28125 135.390625 304.667969 135.398438 303.054688 C 135.40625 301.4375 135.339844 299.828125 135.199219 298.21875 C 135.058594 296.609375 134.84375 295.011719 134.558594 293.421875 C 134.269531 291.832031 133.910156 290.257812 133.480469 288.703125 C 133.046875 287.148438 132.542969 285.613281 131.972656 284.105469 C 131.398438 282.59375 130.757812 281.113281 130.050781 279.660156 C 129.339844 278.210938 128.566406 276.792969 127.730469 275.414062 C 126.890625 274.035156 125.992188 272.695312 125.027344 271.398438 C 124.066406 270.101562 123.046875 268.851562 121.972656 267.644531 C 120.894531 266.441406 119.765625 265.289062 118.582031 264.191406 C 117.402344 263.089844 116.171875 262.046875 114.894531 261.058594 C 113.613281 260.070312 112.292969 259.144531 110.929688 258.277344 C 109.566406 257.414062 108.167969 256.609375 106.730469 255.875 C 105.292969 255.136719 103.828125 254.464844 102.328125 253.863281 C 100.828125 253.261719 99.308594 252.726562 97.757812 252.265625 C 96.210938 251.804688 94.648438 251.410156 93.0625 251.09375 C 91.480469 250.773438 89.886719 250.527344 88.28125 250.355469 C 86.675781 250.183594 85.066406 250.085938 83.449219 250.058594 C 81.835938 250.035156 80.222656 250.085938 78.613281 250.207031 C 77 250.332031 75.402344 250.527344 73.808594 250.796875 C 72.214844 251.070312 70.640625 251.410156 69.078125 251.828125 C 67.519531 252.242188 65.980469 252.726562 64.464844 253.285156 C 62.949219 253.839844 61.460938 254.464844 60 255.15625 C 58.542969 255.851562 57.117188 256.609375 55.730469 257.433594 C 54.339844 258.257812 52.992188 259.144531 51.683594 260.089844 C 50.375 261.039062 49.117188 262.042969 47.898438 263.105469 C 46.683594 264.171875 45.519531 265.289062 44.40625 266.457031 C 43.292969 267.628906 42.238281 268.847656 41.238281 270.113281 C 40.234375 271.382812 39.296875 272.691406 38.414062 274.046875 C 37.535156 275.402344 36.71875 276.792969 35.964844 278.222656 C 35.210938 279.648438 34.527344 281.109375 33.90625 282.601562 C 33.289062 284.09375 32.742188 285.609375 32.261719 287.152344 C 31.78125 288.695312 31.375 290.257812 31.039062 291.835938 C 30.703125 293.414062 30.4375 295.007812 30.25 296.609375 C 30.058594 298.214844 29.945312 299.824219 29.902344 301.4375 C 29.859375 303.054688 29.890625 304.664062 29.996094 306.277344 C 30.105469 307.890625 30.285156 309.492188 30.535156 311.085938 C 30.789062 312.683594 31.117188 314.261719 31.515625 315.828125 C 31.914062 317.390625 32.382812 318.9375 32.921875 320.457031 C 33.460938 321.980469 34.070312 323.472656 34.75 324.941406 C 35.425781 326.40625 36.167969 327.839844 36.976562 329.234375 C 37.785156 330.632812 38.65625 331.992188 39.589844 333.308594 C 40.523438 334.628906 41.515625 335.898438 42.566406 337.125 C 43.617188 338.351562 44.722656 339.527344 45.882812 340.652344 C 47.039062 341.78125 48.246094 342.847656 49.503906 343.863281 C 50.761719 344.878906 52.0625 345.832031 53.40625 346.726562 C 56.800781 349.003906 60.414062 350.851562 64.246094 352.273438 C 68.082031 353.691406 72.027344 354.644531 76.085938 355.128906 C 76.515625 355.183594 76.933594 355.28125 77.34375 355.417969 C 77.753906 355.554688 78.148438 355.730469 78.523438 355.941406 C 78.902344 356.15625 79.253906 356.40625 79.578125 356.6875 C 79.90625 356.972656 80.203125 357.285156 80.46875 357.625 C 80.734375 357.96875 80.964844 358.332031 81.160156 358.71875 C 81.351562 359.105469 81.507812 359.507812 81.621094 359.925781 C 81.734375 360.34375 81.808594 360.765625 81.839844 361.199219 C 81.871094 361.628906 81.859375 362.058594 81.808594 362.488281 C 81.769531 362.941406 81.6875 363.382812 81.5625 363.816406 C 81.4375 364.25 81.265625 364.664062 81.054688 365.0625 C 80.839844 365.460938 80.589844 365.835938 80.300781 366.183594 C 80.011719 366.53125 79.691406 366.84375 79.335938 367.125 C 78.984375 367.40625 78.605469 367.648438 78.203125 367.851562 C 77.800781 368.054688 77.378906 368.214844 76.941406 368.332031 C 76.507812 368.449219 76.0625 368.519531 75.613281 368.546875 C 75.160156 368.574219 74.710938 368.554688 74.265625 368.488281 C 69.214844 367.824219 64.3125 366.582031 59.554688 364.761719 C 54.796875 362.941406 50.316406 360.59375 46.113281 357.71875 Z M 46.113281 357.71875 " fill-opacity="1" fill-rule="nonzero"/></g></g></g><g clip-path="url(#3a2cc3a7af)"><g clip-path="url(#88aa0c434f)"><path fill="#506efa" d="M 120.308594 4.351562 L 250.757812 4.351562 L 250.757812 134.804688 L 120.308594 134.804688 Z M 120.308594 4.351562 " fill-opacity="1" fill-rule="nonzero"/></g></g><g clip-path="url(#c7efe91fd4)"><g clip-path="url(#ffcc05085c)"><path fill="#506efa" d="M 231.027344 240.160156 L 361.515625 240.160156 L 361.515625 370.648438 L 231.027344 370.648438 Z M 231.027344 240.160156 " fill-opacity="1" fill-rule="nonzero"/></g></g><g clip-path="url(#84958dea64)"><g clip-path="url(#31342db8a4)"><g clip-path="url(#28b3bd6586)"><path fill="#506efa" d="M 157.042969 107.203125 L 168.160156 111.484375 L 113.03125 254.621094 L 101.914062 250.339844 Z M 157.042969 107.203125 " fill-opacity="1" fill-rule="nonzero"/></g></g></g><g clip-path="url(#f2091834f1)"><g clip-path="url(#ec54223154)"><g clip-path="url(#6142d329f2)"><path fill="#506efa" d="M 211.007812 115.054688 L 221.652344 109.703125 L 290.523438 246.757812 L 279.878906 252.109375 Z M 211.007812 115.054688 " fill-opacity="1" fill-rule="nonzero"/></g></g></g></svg>