<svg xmlns="http://www.w3.org/2000/svg" xmlns:xlink="http://www.w3.org/1999/xlink" width="500" zoomAndPan="magnify" viewBox="0 0 375 374.999991" height="500" preserveAspectRatio="xMidYMid meet" version="1.0"><defs><clipPath id="04df4fa0bf"><path d="M 0 33 L 375 33 L 375 344.890625 L 0 344.890625 Z M 0 33 " clip-rule="nonzero"/></clipPath></defs><g clip-path="url(#04df4fa0bf)"><path fill="#ffcc00" d="M 122.199219 35.519531 C 121.792969 33.886719 120.246094 32.910156 118.613281 33.316406 C 117.554688 33.5625 116.65625 34.460938 116.414062 35.519531 C 111.195312 55.085938 98.316406 91.199219 69.945312 113.289062 C 50.21875 128.617188 27.148438 139.214844 2.691406 144.1875 C 1.058594 144.511719 0 146.0625 0.324219 147.691406 C 0.570312 148.835938 1.386719 149.648438 2.445312 149.976562 C 22.335938 155.519531 56.902344 167.664062 74.429688 188.289062 C 88.289062 204.59375 100.597656 245.4375 105.976562 265.410156 C 106.46875 266.960938 108.097656 267.9375 109.648438 267.449219 C 110.625 267.203125 111.441406 266.386719 111.683594 265.410156 C 117.226562 245.109375 131.574219 203.128906 158.398438 185.273438 C 182.363281 169.296875 209.023438 161.308594 224.101562 157.71875 C 225.734375 157.3125 226.628906 155.683594 226.222656 154.050781 C 225.976562 153.074219 225.246094 152.257812 224.265625 152.011719 C 206.085938 146.632812 172.253906 134.484375 158.398438 116.308594 C 136.875 88.101562 126.601562 54.105469 122.199219 35.519531 Z M 272.933594 203.046875 C 272.691406 202.066406 271.710938 201.496094 270.734375 201.742188 C 270.082031 201.90625 269.59375 202.394531 269.429688 203.046875 C 266.25 215.03125 258.34375 237.121094 240.976562 250.574219 C 228.914062 259.949219 214.808594 266.386719 199.808594 269.40625 C 198.832031 269.566406 198.179688 270.546875 198.425781 271.523438 C 198.585938 272.175781 199.074219 272.746094 199.726562 272.910156 C 211.875 276.335938 233.070312 283.671875 243.75 296.308594 C 252.226562 306.253906 259.726562 331.28125 263.070312 343.507812 C 263.316406 344.484375 264.375 345.058594 265.273438 344.8125 C 265.925781 344.648438 266.332031 344.160156 266.574219 343.507812 C 270 331.117188 278.722656 305.4375 295.109375 294.511719 C 309.78125 284.730469 326.085938 279.839844 335.300781 277.636719 C 336.277344 277.394531 336.847656 276.414062 336.601562 275.4375 C 336.441406 274.785156 335.949219 274.296875 335.378906 274.132812 C 324.210938 270.789062 303.585938 263.453125 295.109375 252.285156 C 281.902344 235.246094 275.625 214.460938 272.933594 203.046875 Z M 332.527344 66.742188 C 332.363281 66.089844 331.710938 65.683594 331.058594 65.84375 C 330.652344 65.925781 330.324219 66.253906 330.164062 66.742188 C 328.042969 74.730469 322.824219 89.324219 311.25 98.289062 C 303.261719 104.484375 293.886719 108.808594 283.941406 110.84375 C 283.289062 111.007812 282.878906 111.578125 282.960938 112.230469 C 283.042969 112.71875 283.371094 113.046875 283.859375 113.128906 C 291.929688 115.410156 305.949219 120.300781 313.125 128.699219 C 318.75 135.300781 323.722656 151.933594 325.925781 160.003906 C 326.085938 160.65625 326.738281 160.980469 327.390625 160.816406 C 327.800781 160.734375 328.125 160.410156 328.207031 160.003906 C 330.488281 151.769531 336.277344 134.730469 347.199219 127.476562 C 356.902344 120.953125 367.746094 117.773438 373.941406 116.308594 C 374.59375 116.144531 375 115.492188 374.835938 114.839844 C 374.753906 114.433594 374.429688 114.105469 374.023438 113.941406 C 366.601562 111.742188 352.90625 106.851562 347.28125 99.433594 C 338.558594 88.101562 334.320312 74.324219 332.527344 66.742188 Z M 332.527344 66.742188 " fill-opacity="1" fill-rule="nonzero"/></g></svg>