<svg xmlns="http://www.w3.org/2000/svg" xmlns:xlink="http://www.w3.org/1999/xlink" width="500" zoomAndPan="magnify" viewBox="0 0 375 374.999991" height="500" preserveAspectRatio="xMidYMid meet" version="1.0"><defs><clipPath id="0677170da5"><path d="M 0 235.519531 L 139.480469 235.519531 L 139.480469 375 L 0 375 Z M 0 235.519531 " clip-rule="nonzero"/></clipPath><clipPath id="ec0d9ec598"><path d="M 101.753906 0 L 374.976562 0 L 374.976562 273.246094 L 101.753906 273.246094 Z M 101.753906 0 " clip-rule="nonzero"/></clipPath><clipPath id="994b0c9c5c"><path d="M 275.535156 0 L 374.976562 0 L 374.976562 99.464844 L 275.535156 99.464844 Z M 275.535156 0 " clip-rule="nonzero"/></clipPath><clipPath id="a2857152d4"><path d="M 169 2.285156 L 374.976562 2.285156 L 374.976562 273.246094 L 169 273.246094 Z M 169 2.285156 " clip-rule="nonzero"/></clipPath><clipPath id="86c2d1cac2"><path d="M 361.28125 1.714844 L 374.976562 1.714844 L 374.976562 99.464844 L 361.28125 99.464844 Z M 361.28125 1.714844 " clip-rule="nonzero"/></clipPath></defs><path fill="#f15a24" d="M 234.910156 300.390625 C 219.308594 315.992188 202.929688 327.792969 189.1875 334.160156 L 185.957031 271.386719 C 188.984375 267.941406 192.207031 264.492188 195.613281 261.089844 C 226.179688 230.523438 259.753906 214.550781 270.601562 225.398438 C 281.453125 236.25 265.480469 269.820312 234.910156 300.390625 " fill-opacity="1" fill-rule="nonzero"/><path fill="#e05421" d="M 189.1875 334.160156 L 188.96875 329.910156 C 200.527344 323.140625 213.265625 313.230469 225.519531 300.972656 C 247.242188 279.25 261.59375 256.011719 264.191406 240.484375 C 267.453125 238.40625 270.71875 236.234375 273.972656 233.96875 C 273.992188 234.351562 274.003906 234.742188 274.003906 235.140625 C 274.007812 250.375 258.988281 276.316406 234.910156 300.390625 C 219.308594 315.992188 202.929688 327.792969 189.1875 334.160156 " fill-opacity="1" fill-rule="nonzero"/><path fill="#f15a24" d="M 74.277344 139.753906 C 58.671875 155.355469 46.875 171.738281 40.507812 185.480469 L 103.277344 188.707031 C 106.726562 185.683594 110.171875 182.457031 113.574219 179.050781 C 144.140625 148.484375 160.113281 114.910156 149.265625 104.0625 C 138.417969 93.214844 104.84375 109.1875 74.277344 139.753906 " fill-opacity="1" fill-rule="nonzero"/><path fill="#ededed" d="M 88.9375 187.972656 L 44.03125 185.664062 C 44.03125 185.664062 44.03125 185.664062 44.03125 185.660156 L 88.9375 187.972656 " fill-opacity="1" fill-rule="nonzero"/><path fill="#e05421" d="M 103.113281 188.699219 L 88.9375 187.972656 L 44.03125 185.660156 C 50.6875 175.023438 59.84375 163.558594 70.914062 152.484375 C 93.246094 130.148438 117.191406 115.609375 132.699219 113.625 C 116.691406 139.457031 106.5625 165.40625 103.113281 188.699219 " fill-opacity="1" fill-rule="nonzero"/><g clip-path="url(#0677170da5)"><path fill="#f56831" d="M 137.277344 256.609375 L 137.246094 256.625 C 136.003906 251.898438 133.785156 247.785156 130.519531 244.492188 C 127.222656 241.171875 123.09375 238.921875 118.335938 237.675781 L 118.339844 237.671875 L 118.253906 237.652344 C 118.179688 237.632812 118.109375 237.617188 118.039062 237.597656 C 87.121094 229.691406 53.273438 245.558594 32.652344 268.152344 C 31.859375 269.023438 32.363281 270.105469 33.394531 269.730469 C 36.503906 268.601562 39.484375 267.65625 42.410156 266.878906 C 43.140625 266.683594 43.398438 267.519531 42.78125 268.078125 C 40.789062 269.882812 38.820312 271.761719 36.878906 273.703125 C 5.933594 304.660156 0.679688 363.527344 0.00390625 373.613281 C -0.0507812 374.433594 0.574219 375.066406 1.398438 375.007812 C 11.460938 374.328125 70.351562 369.085938 101.308594 338.132812 C 103.214844 336.226562 105.050781 334.296875 106.820312 332.34375 C 107.382812 331.730469 108.21875 331.988281 108.019531 332.71875 C 107.253906 335.585938 106.328125 338.511719 105.214844 341.554688 C 104.839844 342.585938 105.925781 343.089844 106.796875 342.296875 C 129.460938 321.613281 145.363281 287.609375 137.277344 256.609375 " fill-opacity="1" fill-rule="nonzero"/></g><path fill="#fec34c" d="M 115.03125 302.65625 C 109.765625 309.789062 103.570312 317.015625 96.558594 324.03125 C 74.105469 346.476562 43 354.183594 27.15625 356.753906 C 21.292969 357.699219 17.277344 353.6875 18.226562 347.820312 C 20.796875 331.980469 28.5 300.875 50.949219 278.421875 C 54.757812 274.617188 58.632812 271.046875 62.519531 267.734375 C 65.429688 265.253906 68.351562 262.921875 71.253906 260.742188 C 72.3125 259.949219 72.234375 258.515625 71.128906 258.492188 C 67.941406 258.433594 64.675781 258.53125 61.335938 258.789062 C 60.847656 258.828125 60.792969 258.207031 61.257812 257.882812 C 69.113281 252.433594 78.34375 248.191406 87.121094 245.066406 C 87.433594 244.957031 87.742188 244.847656 88.050781 244.742188 C 102.339844 239.765625 116.210938 241.429688 124.925781 249.613281 C 125.175781 249.851562 125.421875 250.089844 125.667969 250.335938 C 125.925781 250.589844 126.175781 250.851562 126.421875 251.117188 C 134.84375 260.109375 136.148438 274.628906 130.433594 289.3125 C 130.289062 289.675781 130.148438 290.039062 130 290.40625 C 126.933594 298.042969 122.648438 305.953125 117.101562 313.78125 C 116.78125 314.234375 116.167969 314.179688 116.203125 313.703125 C 116.527344 309.136719 116.644531 302.78125 116.585938 302.011719 C 116.574219 301.828125 116.101562 301.261719 115.511719 302.003906 C 115.34375 302.214844 115.195312 302.4375 115.03125 302.65625 " fill-opacity="1" fill-rule="nonzero"/><path fill="#fbefa9" d="M 105.355469 296.902344 C 90.015625 312.242188 69.773438 318.515625 59.511719 320.839844 C 55.875 321.664062 53.34375 319.136719 54.171875 315.496094 C 56.496094 305.238281 62.769531 284.996094 78.109375 269.65625 C 99.527344 248.234375 122.992188 236.96875 130.519531 244.492188 C 138.042969 252.019531 126.777344 275.480469 105.355469 296.902344 " fill-opacity="1" fill-rule="nonzero"/><g clip-path="url(#ec0d9ec598)"><path fill="#f2f2f2" d="M 316.808594 197.980469 C 270.585938 244.207031 216.550781 271.097656 174.007812 273.054688 C 161.042969 273.65625 149.140625 271.9375 138.855469 267.738281 L 107.226562 236.113281 C 103.011719 225.785156 101.296875 213.832031 101.917969 200.804688 C 103.933594 158.289062 130.816406 104.328125 176.988281 58.160156 C 231.777344 3.371094 321.03125 -0.746094 357.605469 0.0859375 C 360.269531 0.148438 362.789062 0.796875 365.03125 1.90625 C 365.53125 2.15625 366.015625 2.421875 366.484375 2.707031 C 366.605469 2.78125 366.71875 2.855469 366.835938 2.933594 C 368.800781 4.210938 370.492188 5.867188 371.816406 7.796875 C 371.890625 7.910156 371.96875 8.023438 372.042969 8.140625 C 373.777344 10.804688 374.804688 13.964844 374.882812 17.359375 C 375.289062 35.386719 374.5 66.203125 367.035156 99.390625 C 359.351562 133.539062 344.597656 170.195312 316.808594 197.980469 " fill-opacity="1" fill-rule="nonzero"/></g><g clip-path="url(#994b0c9c5c)"><path fill="#f15a24" d="M 335.28125 39.710938 C 317.789062 22.21875 296.535156 11.503906 275.570312 7.953125 C 308.761719 0.476562 339.589844 -0.3125 357.617188 0.0976562 C 367.074219 0.316406 374.679688 7.917969 374.894531 17.371094 C 375.300781 35.398438 374.511719 66.226562 367.039062 99.421875 C 363.488281 78.453125 352.769531 57.199219 335.28125 39.710938 " fill-opacity="1" fill-rule="nonzero"/></g><path fill="#4d4d4d" d="M 174.007812 273.054688 C 161.042969 273.65625 149.140625 271.9375 138.855469 267.738281 L 107.226562 236.113281 C 103.011719 225.785156 101.296875 213.832031 101.917969 200.804688 C 116.742188 208.015625 131.019531 218.070312 143.804688 230.859375 C 156.679688 243.734375 166.789062 258.117188 174.007812 273.054688 " fill-opacity="1" fill-rule="nonzero"/><g clip-path="url(#a2857152d4)"><path fill="#ececec" d="M 169.054688 273.171875 C 169.054688 273.171875 169.050781 273.171875 169.050781 273.171875 C 169.050781 273.171875 169.054688 273.171875 169.054688 273.171875 M 169.054688 273.171875 C 170.6875 273.171875 172.339844 273.132812 174.007812 273.054688 C 177.910156 272.875 181.902344 272.488281 185.984375 271.894531 C 181.902344 272.488281 177.910156 272.875 174.007812 273.054688 C 172.339844 273.132812 170.691406 273.171875 169.054688 273.171875 M 273.972656 233.96875 C 288.601562 223.785156 303.054688 211.738281 316.808594 197.980469 C 332.984375 181.808594 344.742188 162.632812 353.257812 142.691406 C 344.742188 162.632812 332.984375 181.808594 316.808594 197.980469 C 303.054688 211.738281 288.601562 223.785156 273.972656 233.96875 M 353.296875 142.601562 C 353.300781 142.597656 353.300781 142.597656 353.300781 142.59375 C 353.300781 142.597656 353.300781 142.601562 353.296875 142.601562 M 367.039062 99.421875 L 367.035156 99.394531 C 367.035156 99.402344 367.039062 99.414062 367.039062 99.421875 C 373.53125 70.570312 374.980469 43.507812 374.980469 25.082031 C 374.980469 43.507812 373.53125 70.570312 367.039062 99.421875 M 374.894531 17.371094 C 374.886719 17.207031 374.882812 17.042969 374.875 16.882812 C 374.882812 17.042969 374.886719 17.207031 374.894531 17.371094 M 374.875 16.871094 C 374.871094 16.867188 374.871094 16.863281 374.871094 16.855469 C 374.871094 16.863281 374.871094 16.867188 374.875 16.871094 M 374.871094 16.839844 C 374.871094 16.835938 374.871094 16.835938 374.871094 16.832031 C 374.871094 16.835938 374.871094 16.835938 374.871094 16.839844 M 366.484375 2.707031 C 366.441406 2.683594 366.398438 2.65625 366.355469 2.628906 C 366.398438 2.65625 366.441406 2.683594 366.484375 2.707031 M 366.339844 2.621094 C 366.339844 2.621094 366.335938 2.621094 366.335938 2.621094 C 366.335938 2.621094 366.339844 2.621094 366.339844 2.621094 " fill-opacity="1" fill-rule="nonzero"/></g><path fill="#e0e0e0" d="M 174.007812 273.054688 C 167.792969 260.199219 159.4375 247.742188 149.015625 236.316406 C 149.074219 236.269531 149.136719 236.222656 149.191406 236.175781 L 155.980469 242.628906 C 163.625 245.527344 172.191406 246.9375 181.417969 246.9375 C 183.671875 246.9375 185.964844 246.851562 188.292969 246.683594 C 227.210938 243.910156 276.089844 218.03125 317.390625 174.625 C 342.210938 148.539062 354.898438 114.625 361.167969 83.175781 L 361.171875 83.203125 C 361.375 82.183594 361.570312 81.171875 361.761719 80.164062 C 364.183594 86.523438 365.945312 92.972656 367.035156 99.394531 C 363.832031 113.632812 359.394531 128.308594 353.300781 142.59375 C 353.300781 142.597656 353.300781 142.597656 353.296875 142.601562 C 353.285156 142.632812 353.273438 142.660156 353.257812 142.691406 C 344.742188 162.632812 332.984375 181.808594 316.808594 197.980469 C 303.054688 211.738281 288.601562 223.785156 273.972656 233.96875 C 270.71875 236.234375 267.453125 238.40625 264.191406 240.484375 C 237.3125 257.59375 210.207031 268.363281 185.984375 271.894531 C 181.902344 272.488281 177.910156 272.875 174.007812 273.054688 M 366.910156 2.984375 C 366.324219 2.597656 365.714844 2.25 365.082031 1.933594 C 365.082031 1.933594 365.082031 1.933594 365.082031 1.929688 C 365.511719 2.148438 365.929688 2.375 366.335938 2.621094 C 366.335938 2.621094 366.339844 2.621094 366.339844 2.621094 C 366.34375 2.625 366.347656 2.625 366.355469 2.628906 C 366.398438 2.65625 366.441406 2.683594 366.484375 2.707031 C 366.605469 2.78125 366.71875 2.855469 366.835938 2.933594 C 366.863281 2.949219 366.886719 2.96875 366.910156 2.984375 " fill-opacity="1" fill-rule="nonzero"/><g clip-path="url(#86c2d1cac2)"><path fill="#df5321" d="M 367.039062 99.421875 C 367.039062 99.414062 367.035156 99.402344 367.035156 99.394531 C 365.945312 92.972656 364.183594 86.523438 361.761719 80.164062 C 367.273438 50.765625 367.277344 23.824219 366.519531 7.875 C 366.421875 5.757812 365.910156 3.757812 365.082031 1.933594 C 365.714844 2.25 366.324219 2.597656 366.910156 2.984375 C 366.953125 3.015625 366.996094 3.042969 367.039062 3.074219 C 367.144531 3.144531 367.25 3.21875 367.355469 3.292969 C 367.472656 3.371094 367.589844 3.453125 367.703125 3.539062 C 367.828125 3.632812 367.957031 3.730469 368.082031 3.828125 C 368.171875 3.898438 368.265625 3.96875 368.355469 4.042969 C 368.5 4.160156 368.636719 4.28125 368.777344 4.402344 C 368.847656 4.464844 368.917969 4.523438 368.992188 4.585938 C 369.148438 4.726562 369.300781 4.867188 369.449219 5.011719 L 369.605469 5.160156 C 369.773438 5.328125 369.941406 5.496094 370.101562 5.667969 L 370.195312 5.769531 C 370.382812 5.972656 370.5625 6.175781 370.742188 6.386719 L 370.757812 6.40625 C 371.179688 6.910156 371.578125 7.441406 371.941406 7.992188 L 372.042969 8.140625 L 372.078125 8.195312 C 372.492188 8.84375 372.871094 9.515625 373.203125 10.21875 L 373.210938 10.242188 C 374.164062 12.257812 374.746094 14.484375 374.871094 16.832031 C 374.871094 16.835938 374.871094 16.835938 374.871094 16.839844 C 374.871094 16.84375 374.871094 16.851562 374.871094 16.855469 C 374.871094 16.863281 374.871094 16.867188 374.875 16.871094 C 374.875 16.875 374.875 16.878906 374.875 16.882812 C 374.882812 17.042969 374.886719 17.207031 374.894531 17.371094 C 374.945312 19.730469 374.980469 22.308594 374.980469 25.082031 C 374.980469 43.507812 373.53125 70.570312 367.039062 99.421875 " fill-opacity="1" fill-rule="nonzero"/></g><path fill="#474747" d="M 169.054688 273.171875 C 169.054688 273.171875 169.050781 273.171875 169.050781 273.171875 C 158.113281 273.171875 148.019531 271.429688 139.128906 267.851562 C 139.117188 267.84375 139.101562 267.839844 139.085938 267.835938 C 139.011719 267.804688 138.933594 267.773438 138.855469 267.738281 L 125.15625 254.039062 C 131.539062 249.546875 139.820312 243.515625 149.015625 236.316406 C 159.4375 247.742188 167.792969 260.199219 174.007812 273.054688 C 172.339844 273.132812 170.6875 273.171875 169.054688 273.171875 " fill-opacity="1" fill-rule="nonzero"/><path fill="#e0e0e0" d="M 135.097656 222.761719 C 124.664062 213.753906 113.457031 206.417969 101.917969 200.804688 C 103.933594 158.289062 130.816406 104.328125 176.988281 58.160156 C 180.148438 55 183.429688 52.011719 186.804688 49.183594 C 186.601562 49.390625 186.394531 49.59375 186.195312 49.808594 C 144.945312 93.160156 121.539062 143.199219 120.644531 182.183594 C 120.371094 194.128906 122.210938 205.035156 126.300781 214.394531 L 135.097656 222.761719 " fill-opacity="1" fill-rule="nonzero"/><path fill="#474747" d="M 120.917969 249.804688 L 107.226562 236.113281 C 103.574219 227.15625 101.796875 216.976562 101.796875 205.9375 C 101.792969 204.246094 101.835938 202.535156 101.917969 200.804688 C 113.457031 206.417969 124.664062 213.753906 135.097656 222.761719 L 138.5625 226.0625 C 131.359375 235.261719 125.375 243.472656 120.917969 249.804688 " fill-opacity="1" fill-rule="nonzero"/><path fill="#f15a24" d="M 166.296875 222.214844 C 137.742188 246.527344 111.976562 262.980469 111.976562 262.980469 C 111.976562 262.980469 128.085938 237.691406 152.742188 208.660156 C 176.800781 180.339844 203.324219 164.152344 207.066406 167.894531 C 210.808594 171.636719 194.59375 198.125 166.296875 222.214844 " fill-opacity="1" fill-rule="nonzero"/><path fill="#f5835b" d="M 123.035156 251.917969 C 123.035156 251.917969 138.910156 233.402344 160.585938 210.46875 C 181.066406 188.800781 199.746094 172.867188 201.878906 172.867188 C 201.949219 172.867188 202 172.886719 202.03125 172.917969 C 203.109375 173.996094 186.847656 193.210938 164.480469 214.367188 C 141.910156 235.71875 123.035156 251.917969 123.035156 251.917969 " fill-opacity="1" fill-rule="nonzero"/><path fill="#f15a24" d="M 228.328125 103.117188 C 230.738281 80.429688 251.089844 63.988281 273.78125 66.398438 C 296.46875 68.8125 312.910156 89.160156 310.496094 111.851562 C 308.085938 134.542969 287.738281 150.980469 265.046875 148.570312 C 242.355469 146.160156 225.917969 125.808594 228.328125 103.117188 " fill-opacity="1" fill-rule="nonzero"/><path fill="#0071bc" d="M 240.148438 104.375 C 241.867188 88.210938 256.359375 76.5 272.523438 78.21875 C 288.6875 79.9375 300.394531 94.433594 298.679688 110.59375 C 296.960938 126.757812 282.464844 138.46875 266.300781 136.75 C 250.140625 135.03125 238.429688 120.535156 240.148438 104.375 " fill-opacity="1" fill-rule="nonzero"/><path fill="#e05421" d="M 269.453125 136.917969 C 284.308594 136.914062 297.074219 125.699219 298.679688 110.59375 C 298.679688 110.582031 298.679688 110.570312 298.683594 110.554688 C 298.679688 110.570312 298.679688 110.582031 298.679688 110.59375 C 297.074219 125.699219 284.308594 136.914062 269.453125 136.917969 M 298.683594 110.539062 C 298.683594 110.53125 298.6875 110.519531 298.6875 110.511719 C 298.6875 110.523438 298.683594 110.53125 298.683594 110.539062 M 298.691406 110.496094 C 298.691406 110.484375 298.691406 110.46875 298.695312 110.457031 C 298.691406 110.46875 298.691406 110.480469 298.691406 110.496094 M 298.695312 110.4375 C 298.695312 110.429688 298.695312 110.425781 298.695312 110.417969 C 298.695312 110.425781 298.695312 110.429688 298.695312 110.4375 M 298.699219 110.394531 C 298.699219 110.390625 298.699219 110.386719 298.699219 110.382812 C 298.699219 110.386719 298.699219 110.390625 298.699219 110.394531 M 240.148438 104.375 C 240.253906 103.363281 240.414062 102.371094 240.617188 101.398438 C 240.414062 102.371094 240.253906 103.363281 240.148438 104.375 " fill-opacity="1" fill-rule="nonzero"/><path fill="#0069af" d="M 269.449219 136.917969 C 268.410156 136.917969 267.359375 136.863281 266.300781 136.75 C 251.195312 135.144531 239.980469 122.378906 239.980469 107.519531 C 239.980469 106.484375 240.035156 105.429688 240.148438 104.375 C 240.253906 103.363281 240.414062 102.371094 240.617188 101.398438 C 242.476562 114.167969 252.203125 124.453125 264.921875 125.804688 C 265.859375 125.90625 266.792969 125.953125 267.714844 125.953125 C 281.789062 125.953125 293.984375 114.636719 295.597656 99.472656 C 295.785156 97.714844 295.8125 95.984375 295.710938 94.285156 C 298.132812 99.097656 299.269531 104.628906 298.699219 110.382812 C 298.699219 110.386719 298.699219 110.390625 298.699219 110.394531 C 298.699219 110.402344 298.699219 110.410156 298.695312 110.417969 C 298.695312 110.425781 298.695312 110.429688 298.695312 110.4375 C 298.695312 110.445312 298.695312 110.449219 298.695312 110.457031 C 298.691406 110.46875 298.691406 110.484375 298.691406 110.496094 C 298.691406 110.5 298.6875 110.507812 298.6875 110.511719 C 298.6875 110.519531 298.683594 110.53125 298.683594 110.539062 C 298.683594 110.542969 298.683594 110.546875 298.683594 110.554688 C 298.679688 110.570312 298.679688 110.582031 298.679688 110.59375 C 297.074219 125.699219 284.308594 136.914062 269.453125 136.917969 C 269.453125 136.917969 269.449219 136.917969 269.449219 136.917969 " fill-opacity="1" fill-rule="nonzero"/></svg>